<?xml version="1.0" standalone="no"?>
<!DOCTYPE svg PUBLIC "-//W3C//DTD SVG 1.1//EN" "http://www.w3.org/Graphics/SVG/1.1/DTD/svg11.dtd" >
<svg>
<metadata>
Created by FontForge 20090622 at Tue May 29 10:58:11 2018
 By deploy user
Copyright (c) 2017 Swiss Typefaces S&#195;&#160;rl. All rights reserved.
</metadata>
<defs>
<font id="Font" horiz-adv-x="617" >
  <font-face 
    font-family="Font"
    font-weight="400"
    font-stretch="normal"
    units-per-em="1000"
    panose-1="2 11 5 0 3 0 0 0 0 0"
    ascent="800"
    descent="-200"
    x-height="500"
    cap-height="710"
    bbox="-54 -229 1027 940"
    underline-thickness="73"
    underline-position="-98"
    unicode-range="U+000D-U+FB02"
  />
<missing-glyph horiz-adv-x="500" 
 />
    <glyph glyph-name=".notdef" horiz-adv-x="500" 
 />
    <glyph glyph-name="glyph1" horiz-adv-x="0" 
 />
    <glyph glyph-name="uni000D" unicode="&#xd;" horiz-adv-x="240" 
 />
    <glyph glyph-name="space" unicode=" " horiz-adv-x="240" 
 />
    <glyph glyph-name="exclam" unicode="!" horiz-adv-x="267" 
d="M90 417v293h87v-293l-16 -197h-55zM132 -8q-30 0 -51.5 21.5t-21.5 52.5q0 20 9 36t25 26h80q15 -10 24.5 -26t9.5 -36q0 -31 -21.5 -52.5t-53.5 -21.5z" />
    <glyph glyph-name="quotedbl" unicode="&#x22;" horiz-adv-x="416" 
d="M68 710h78v-245h-78v245zM270 710h78v-245h-78v245z" />
    <glyph glyph-name="numbersign" unicode="#" horiz-adv-x="737" 
d="M409 200h-181l-62 -200h-79l62 200h-115v73h138l54 171h-119v73h142l60 193h79l-60 -193h181l60 193h79l-60 -193h116v-73h-139l-54 -171h121v-73h-144l-62 -200h-79zM251 273h181l54 171h-181z" />
    <glyph glyph-name="dollar" unicode="$" horiz-adv-x="521" 
d="M227 -6q-66 7 -116.5 37t-78.5 71l63 53q25 -34 67.5 -59t96.5 -25q65 0 101.5 30.5t36.5 77.5q0 24 -8.5 42t-24 33t-37.5 28t-50 27l-65 32q-80 39 -116 85.5t-36 113.5q0 36 13.5 65.5t36 52t53 37.5t64.5 20v83h74v-82q50 -7 89.5 -29.5t70.5 -59.5l-59 -55
q-27 32 -59.5 49.5t-78.5 17.5q-52 0 -86 -28t-34 -70q0 -41 26.5 -67.5t82.5 -53.5l65 -32q35 -17 65.5 -36.5t52.5 -43t34.5 -53t12.5 -66.5q0 -39 -12.5 -72t-36 -58.5t-57 -42t-76.5 -21.5v-83h-74v82z" />
    <glyph glyph-name="percent" unicode="%" horiz-adv-x="1009" 
d="M230 388q27 0 50 10t40.5 27.5t27.5 41t10 50.5t-10 50.5t-27.5 41t-40.5 27.5t-50 10t-50.5 -10t-40.5 -27.5t-27 -41t-10 -50.5t10 -50.5t27 -41t40.5 -27.5t50.5 -10zM230 320q-41 0 -77 15.5t-62.5 42.5t-42 62.5t-15.5 76.5q0 40 15.5 76t42 63t62.5 42.5t77 15.5
q40 0 76 -15.5t63 -42.5t42.5 -63t15.5 -76q0 -41 -15.5 -76.5t-42.5 -62.5t-63 -42.5t-76 -15.5zM717 710h85l-510 -710h-85zM779 64q27 0 50 10t40.5 27.5t27.5 41t10 50.5t-10 50.5t-27.5 41t-40.5 27.5t-50 10t-50.5 -10t-40.5 -27.5t-27 -41t-10 -50.5t10 -50.5t27 -41
t40.5 -27.5t50.5 -10zM779 -4q-41 0 -77 15.5t-62.5 42.5t-42 62.5t-15.5 76.5q0 40 15.5 76t42 63t62.5 42.5t77 15.5q40 0 76 -15.5t63 -42.5t42.5 -63t15.5 -76q0 -41 -15.5 -76.5t-42.5 -62.5t-63 -42.5t-76 -15.5z" />
    <glyph glyph-name="ampersand" unicode="&#x26;" horiz-adv-x="737" 
d="M282 -8q-48 0 -87 15.5t-66.5 41.5t-42 61.5t-14.5 76.5q0 43 14 74.5t36.5 55t50.5 41.5l55 34q-32 35 -54 73.5t-22 89.5q0 34 13.5 63.5t37 51.5t56 35t70.5 13q39 0 70.5 -13t54 -35t35 -50.5t12.5 -59.5q0 -32 -13 -58t-33.5 -47t-46.5 -38.5t-52 -32.5l-5 -3
l143 -151l107 130l60 -55l-110 -135l163 -170h-113l-103 108q-51 -57 -100.5 -86.5t-115.5 -29.5zM283 69q45 0 83 26.5t76 71.5l-161 170l-4 -2q-24 -14 -45.5 -28t-37.5 -31.5t-25.5 -38.5t-9.5 -48q0 -25 9.5 -47t26 -38t39 -25.5t49.5 -9.5zM235 554q0 -33 17.5 -59.5
t49.5 -60.5l12 7q21 12 40 24.5t33 26.5t22.5 29.5t8.5 34.5q0 36 -23.5 62t-65.5 26q-19 0 -36 -7t-30 -19t-20.5 -28.5t-7.5 -35.5z" />
    <glyph glyph-name="quotesingle" unicode="'" horiz-adv-x="214" 
d="M68 710h78v-245h-78v245z" />
    <glyph glyph-name="parenleft" unicode="(" horiz-adv-x="262" 
d="M159 -142q-27 55 -47.5 106t-34 103.5t-20 109.5t-6.5 124t6.5 124t20 109.5t34 103.5t47.5 106l68 -29q-25 -53 -43.5 -103.5t-31 -100.5t-18.5 -102t-6 -108t6 -108t18.5 -102t31 -100.5t43.5 -103.5l-68 -29v0z" />
    <glyph glyph-name="parenright" unicode=")" horiz-adv-x="261" 
d="M103 -142l-68 29q25 53 43.5 103.5t31 100.5t18.5 102t6 108t-6 108t-18.5 102t-31 100.5t-43.5 103.5l68 29q27 -55 47 -106t33.5 -103.5t20.5 -109.5t7 -124t-7 -124t-20.5 -109.5t-33.5 -103.5t-47 -106z" />
    <glyph glyph-name="asterisk" unicode="*" horiz-adv-x="437" 
d="M218 481l-77 -105l-55 38l78 105l-125 42l20 64l126 -42v127h66v-127l127 42l20 -64l-126 -41l78 -106l-53 -39z" />
    <glyph glyph-name="plus" unicode="+" horiz-adv-x="590" 
d="M77 310h183v178h71v-178h183v-70h-183v-182h-71v182h-183v70z" />
    <glyph glyph-name="comma" unicode="," horiz-adv-x="258" 
d="M119 0h-51v123h122v-124l-57 -141h-57z" />
    <glyph glyph-name="hyphen" unicode="-" horiz-adv-x="375" 
d="M66 318h243v-89h-243v89z" />
    <glyph glyph-name="period" unicode="." horiz-adv-x="250" 
d="M125 -8q-30 0 -52 21.5t-22 52.5t22 52.5t52 21.5q31 0 52.5 -21.5t21.5 -52.5t-21.5 -52.5t-52.5 -21.5z" />
    <glyph glyph-name="slash" unicode="/" horiz-adv-x="472" 
d="M368 710h81l-344 -710h-81z" />
    <glyph glyph-name="zero" unicode="0" horiz-adv-x="590" 
d="M443 355q0 133 -38 205.5t-110 72.5t-110 -72.5t-38 -205.5t38 -205.5t110 -72.5t110 72.5t38 205.5zM295 -8q-57 0 -101.5 25.5t-75 72.5t-46.5 114t-16 151t16 151t46.5 114t75 72.5t101.5 25.5t101.5 -25.5t75 -72.5t46.5 -114t16 -151t-16 -151t-46.5 -114t-75 -72.5
t-101.5 -25.5z" />
    <glyph glyph-name="one" unicode="1" horiz-adv-x="590" 
d="M331 576l-231 -107v93l317 148v-710h-86v576z" />
    <glyph glyph-name="two" unicode="2" horiz-adv-x="590" 
d="M361 370q35 40 52 73.5t17 66.5q0 27 -9.5 50t-27 40.5t-41 27t-50.5 9.5q-28 0 -52 -9.5t-41.5 -27t-27.5 -40.5t-10 -50v-4h-87q0 46 17 85t46 67t69 44t86 16t85 -16t68 -44t45.5 -66.5t16.5 -84.5q0 -29 -8.5 -56t-24 -53.5t-37 -54t-47.5 -57.5l-185 -205h309v-81
h-486z" />
    <glyph glyph-name="three" unicode="3" horiz-adv-x="590" 
d="M268 -8q-63 0 -118 29.5t-86 79.5l66 51q18 -34 54 -57.5t83 -23.5q33 0 61 11t49 31t32.5 48.5t11.5 63.5q0 34 -11 63t-32 50t-50.5 33t-65.5 12h-63l143 247h-249v80h382l-149 -258q43 -9 77 -30t57.5 -51t36 -67.5t12.5 -78.5q0 -49 -17.5 -91.5t-49 -74t-76 -49.5
t-98.5 -18z" />
    <glyph glyph-name="four" unicode="4" horiz-adv-x="590" 
d="M368 179h-371l458 539v-463h119v-76h-119v-179h-87v179zM368 505l-207 -250h207v250z" />
    <glyph glyph-name="five" unicode="5" horiz-adv-x="590" 
d="M283 -8q-64 0 -120.5 29.5t-86.5 79.5l67 52q17 -34 54 -58t84 -24q33 0 61 11.5t48 31.5t31.5 48t11.5 61t-11 61.5t-31.5 49.5t-49 33t-64.5 12q-41 0 -68 -18t-43 -37l-59 25v361h358v-80h-272v-193q17 8 40 14t47 6q56 0 100.5 -18.5t75.5 -50t47.5 -74.5t16.5 -91
t-17 -90t-48.5 -73.5t-75 -49.5t-96.5 -18z" />
    <glyph glyph-name="six" unicode="6" horiz-adv-x="590" 
d="M299 -8q-50 0 -92.5 18t-74.5 49.5t-50 73.5t-18 90q0 37 12 70t29 62l212 355h99l-158 -262q7 2 18 4t28 2q47 0 89 -18t73.5 -49.5t50 -73.5t18.5 -90t-18.5 -90t-50 -73.5t-75 -49.5t-92.5 -18zM299 71q33 0 60 12t46.5 32.5t30.5 48t11 59.5q0 31 -11 59t-30.5 48.5
t-46.5 32.5t-60 12t-60 -12t-46.5 -32.5t-30.5 -48.5t-11 -59q0 -32 11 -59.5t30.5 -48t46.5 -32.5t60 -12z" />
    <glyph glyph-name="seven" unicode="7" horiz-adv-x="590" 
d="M414 630h-336v80h465l-340 -710h-91z" />
    <glyph glyph-name="eight" unicode="8" horiz-adv-x="590" 
d="M295 -8q-47 0 -88.5 17t-72.5 47.5t-49 72.5t-18 91q0 63 29 113.5t77 80.5q-25 23 -39.5 56t-14.5 72q0 38 14 70.5t38 56t56 36.5t68 13t68 -13t56 -36.5t38 -56t14 -70.5q0 -39 -14.5 -72t-39.5 -56q48 -30 77 -80.5t29 -113.5q0 -49 -18 -91t-49 -72.5t-72.5 -47.5
t-88.5 -17zM295 73q29 0 54.5 11.5t44 31t29.5 46.5t11 58t-11 58t-29.5 46.5t-44 31t-54.5 11.5t-54.5 -11.5t-44.5 -31t-29.5 -46.5t-10.5 -58t10.5 -58t29.5 -46.5t44.5 -31t54.5 -11.5zM298 448q37 2 62.5 27.5t25.5 66.5q0 42 -26.5 68.5t-64.5 26.5t-64.5 -26.5
t-26.5 -68.5q0 -41 25.5 -66.5t61.5 -27.5h7z" />
    <glyph glyph-name="nine" unicode="9" horiz-adv-x="590" 
d="M332 261q-7 -2 -18 -4t-28 -2q-47 0 -89 18t-73.5 49.5t-50 73.5t-18.5 90t18.5 90t50 73.5t74.5 50t93 18.5q49 0 92 -18.5t75 -50t50 -73.5t18 -90q0 -37 -12.5 -70t-29.5 -62l-212 -355h-98zM291 334q33 0 60 12t46.5 32.5t30.5 48t11 59.5q0 31 -11 59t-30.5 49
t-46.5 33t-60 12t-60.5 -12t-47 -33t-30 -49t-10.5 -59q0 -32 10.5 -59.5t30 -48t47 -32.5t60.5 -12z" />
    <glyph glyph-name="colon" unicode=":" horiz-adv-x="280" 
d="M140 360q-30 0 -52 21.5t-22 52.5t22 52.5t52 21.5q31 0 52.5 -21.5t21.5 -52.5t-21.5 -52.5t-52.5 -21.5zM140 -8q-30 0 -52 21.5t-22 52.5t22 52.5t52 21.5q31 0 52.5 -21.5t21.5 -52.5t-21.5 -52.5t-52.5 -21.5z" />
    <glyph glyph-name="semicolon" unicode=";" horiz-adv-x="282" 
d="M128 0h-51v123h122v-124l-57 -141h-57zM144 360q-30 0 -52 21.5t-22 52.5t22 52.5t52 21.5q31 0 52.5 -21.5t21.5 -52.5t-21.5 -52.5t-52.5 -21.5z" />
    <glyph glyph-name="equal" unicode="=" horiz-adv-x="590" 
d="M73 201h444v-70h-444v70zM73 420h444v-70h-444v70z" />
    <glyph glyph-name="question" unicode="?" horiz-adv-x="538" 
d="M210 356h45q33 0 60.5 11t46.5 30t29.5 45t10.5 56q0 28 -10 53.5t-28.5 44.5t-44.5 30t-57 11t-57 -11t-45 -30t-30 -45t-11 -55v-6h-87q0 47 17 88.5t47.5 72.5t72 49t90.5 18t91.5 -18t73 -48.5t48 -72t17.5 -87.5q0 -47 -17 -84.5t-45 -65t-64.5 -44t-74.5 -20.5v-55
h-78v133zM248 -8q-30 0 -51.5 21.5t-21.5 52.5q0 20 9 36t25 26h80q15 -10 24.5 -26t9.5 -36q0 -31 -21.5 -52.5t-53.5 -21.5z" />
    <glyph glyph-name="at" unicode="@" horiz-adv-x="812" 
d="M363 165q-36 0 -65 13.5t-50 37t-32 55t-11 66.5q0 45 16.5 85t45.5 70t68.5 47t86.5 17q36 0 63 -10t47 -28l6 28h72l-51 -239q-7 -33 4 -56t43 -23q20 0 38.5 11.5t32.5 34.5t22.5 56.5t8.5 77.5q0 58 -21 104t-58 78t-87.5 48.5t-108.5 16.5q-64 0 -121.5 -22.5
t-100.5 -64t-68.5 -100.5t-25.5 -131q0 -59 19 -110t54.5 -88.5t87.5 -59t118 -21.5q45 0 94 10t90 31l25 -63q-47 -21 -103.5 -32.5t-105.5 -11.5q-81 0 -145.5 27t-110 73.5t-69.5 109.5t-24 135q0 85 32 155.5t85.5 120.5t123.5 77.5t146 27.5q73 0 135.5 -22
t108.5 -62.5t72 -98t26 -129.5q0 -65 -15.5 -111.5t-41 -75.5t-58.5 -42.5t-67 -13.5q-31 0 -59 15t-39 39q-23 -23 -57 -37.5t-76 -14.5zM380 231q28 0 55.5 12.5t46.5 43.5l34 157q-17 24 -44 35t-54 11t-51.5 -11t-43.5 -30.5t-30 -46t-11 -58.5q0 -54 27 -83.5t71 -29.5
z" />
    <glyph glyph-name="A" unicode="A" horiz-adv-x="678" 
d="M339 718l346 -718h-98l-88 186h-320l-88 -186h-98zM219 270h240l-120 254z" />
    <glyph glyph-name="B" unicode="B" horiz-adv-x="632" 
d="M95 710h237q51 0 90.5 -15t65.5 -40t39.5 -59t13.5 -71q0 -54 -19.5 -89.5t-54.5 -58.5q53 -20 87 -62.5t34 -114.5q0 -48 -18 -85.5t-50 -63t-77 -38.5t-100 -13h-248v710zM354 84q72 0 107 34t35 86t-35 87t-107 35h-168v-242h168zM330 404q57 0 88.5 31.5t31.5 79.5
q0 22 -8 42.5t-23.5 35.5t-38 24t-50.5 9h-144v-222h144z" />
    <glyph glyph-name="C" unicode="C" horiz-adv-x="665" 
d="M409 -8q-76 0 -142.5 27.5t-115.5 76.5t-77 115.5t-28 143.5t28 143.5t77 115t115.5 76.5t142.5 28q67 0 125.5 -21t104.5 -63l-53 -69q-35 29 -79 47.5t-98 18.5q-58 0 -107.5 -21t-85.5 -58.5t-56.5 -88t-20.5 -108.5q0 -59 20.5 -109t56.5 -87.5t85.5 -58.5t107.5 -21
q54 0 98 18.5t79 47.5l53 -69q-46 -42 -104.5 -63t-125.5 -21z" />
    <glyph glyph-name="D" unicode="D" horiz-adv-x="731" 
d="M306 85q64 0 117 20.5t90.5 56.5t58 85.5t20.5 107.5t-20.5 107.5t-58 85.5t-90.5 56.5t-117 20.5h-120v-540h120zM95 710h211q82 0 151.5 -27t120 -74.5t79 -112.5t28.5 -141t-28.5 -141t-79 -112.5t-120 -74.5t-151.5 -27h-211v710z" />
    <glyph glyph-name="E" unicode="E" horiz-adv-x="555" 
d="M95 710h410v-88h-319v-215h259v-88h-259v-231h319v-88h-410v710z" />
    <glyph glyph-name="F" unicode="F" horiz-adv-x="517" 
d="M95 710h398v-88h-307v-215h240v-88h-240v-319h-91v710z" />
    <glyph glyph-name="G" unicode="G" horiz-adv-x="724" 
d="M409 -8q-76 0 -142.5 27.5t-115.5 76.5t-77 115.5t-28 143.5t28 143.5t77 115t115.5 76.5t142.5 28q72 0 135.5 -22.5t111.5 -67.5l-56 -68q-35 33 -84.5 52t-106.5 19q-58 0 -107.5 -21t-85.5 -58.5t-56.5 -88t-20.5 -108.5q0 -59 20.5 -109t56.5 -87.5t85.5 -58.5
t107.5 -21q43 0 85.5 9.5t75.5 29.5v201h-198l39 88h250v-335q-50 -38 -116 -59t-136 -21z" />
    <glyph glyph-name="H" unicode="H" horiz-adv-x="764" 
d="M95 710h91v-303h392v303h91v-710h-91v319h-392v-319h-91v710z" />
    <glyph glyph-name="I" unicode="I" horiz-adv-x="281" 
d="M95 710h91v-710h-91v710z" />
    <glyph glyph-name="J" unicode="J" horiz-adv-x="523" 
d="M228 -8q-43 0 -80.5 13.5t-65.5 39.5t-44.5 64.5t-16.5 88.5h91q0 -30 9 -52.5t25 -37t36.5 -22t44.5 -7.5q51 0 84 29t33 90v512h91v-518q0 -50 -16.5 -87.5t-45 -62.5t-66 -37.5t-79.5 -12.5z" />
    <glyph glyph-name="K" unicode="K" horiz-adv-x="641" 
d="M95 710h91v-356l324 356h112l-328 -361l355 -349h-121l-342 337v-337h-91v710z" />
    <glyph glyph-name="L" unicode="L" horiz-adv-x="514" 
d="M95 710h91v-621h311v-89h-402v710z" />
    <glyph glyph-name="M" unicode="M" horiz-adv-x="882" 
d="M95 718l346 -381l346 381v-718h-91v494l-255 -285l-255 285v-494h-91v718z" />
    <glyph glyph-name="N" unicode="N" horiz-adv-x="787" 
d="M186 505v-505h-91v718l506 -513v505h91v-718z" />
    <glyph glyph-name="O" unicode="O" horiz-adv-x="818" 
d="M409 79q58 0 107.5 21t85.5 58.5t56.5 87.5t20.5 109q0 58 -20.5 108.5t-56.5 88t-85.5 58.5t-107.5 21t-107.5 -21t-85.5 -58.5t-56.5 -88t-20.5 -108.5q0 -59 20.5 -109t56.5 -87.5t85.5 -58.5t107.5 -21zM409 -8q-76 0 -142.5 27.5t-115.5 76.5t-77 115.5t-28 143.5
t28 143.5t77 115t115.5 76.5t142.5 28t142.5 -28t115.5 -76.5t77 -115t28 -143.5t-28 -143.5t-77 -115.5t-115.5 -76.5t-142.5 -27.5z" />
    <glyph glyph-name="P" unicode="P" horiz-adv-x="574" 
d="M95 710h201q56 0 101.5 -15t77.5 -43t49.5 -68.5t17.5 -90.5t-17.5 -90t-49.5 -68t-77.5 -43.5t-101.5 -15.5h-110v-276h-91v710zM293 360q77 0 116.5 35t39.5 98t-39.5 98t-116.5 35h-107v-266h107z" />
    <glyph glyph-name="Q" unicode="Q" horiz-adv-x="832" 
d="M644 76q-48 -40 -107.5 -62t-127.5 -22q-76 0 -142 28t-115 77t-77.5 115t-28.5 143q0 76 28.5 142.5t77.5 115.5t115 77t142 28t142.5 -28t115.5 -77t77 -115.5t28 -142.5q0 -62 -18.5 -116.5t-51.5 -99.5l92 -85l-58 -62zM409 80q49 0 91.5 15t77.5 43l-92 85l58 62
l91 -84q21 32 32.5 71t11.5 83q0 58 -20.5 108.5t-56.5 87.5t-85.5 58t-107.5 21t-107.5 -21t-85.5 -58t-56.5 -87.5t-20.5 -108.5t20.5 -108.5t56.5 -87.5t85.5 -58t107.5 -21z" />
    <glyph glyph-name="R" unicode="R" horiz-adv-x="619" 
d="M264 310h-78v-310h-91v710h211q52 0 94 -14t72 -40.5t46 -63.5t16 -82q0 -76 -45 -127.5t-123 -66.5l245 -316h-110zM300 391q70 0 105 31t35 86q0 56 -35 87t-105 31h-114v-235h114z" />
    <glyph glyph-name="S" unicode="S" horiz-adv-x="528" 
d="M263 -8q-78 0 -138.5 32.5t-92.5 77.5l69 60q26 -33 67.5 -58t93.5 -25q62 0 98 26.5t36 73.5q0 49 -29.5 78t-86.5 54l-65 28q-81 35 -118 84.5t-37 116.5q0 40 17.5 73t46.5 56.5t66.5 36t76.5 12.5q63 0 113 -23.5t86 -67.5l-64 -64q-28 33 -59.5 50.5t-78.5 17.5
q-23 0 -43 -6t-36 -18t-25 -29.5t-9 -39.5q0 -39 24 -67t81 -53l65 -28q36 -16 66.5 -35t53 -43.5t35 -55t12.5 -67.5q0 -44 -15.5 -80t-45 -62t-71 -40.5t-93.5 -14.5z" />
    <glyph glyph-name="T" unicode="T" horiz-adv-x="526" 
d="M217 622h-201v88h494v-88h-202v-622h-91v622z" />
    <glyph glyph-name="U" unicode="U" horiz-adv-x="738" 
d="M369 -8q-62 0 -114 19t-89.5 55t-58.5 87.5t-21 116.5v440h91v-444q0 -46 14 -81t39.5 -58.5t60.5 -35.5t78 -12t78 12t60.5 35.5t39.5 58.5t14 81v444h91v-440q0 -65 -21 -116.5t-58.5 -87.5t-89.5 -55t-114 -19z" />
    <glyph glyph-name="V" unicode="V" horiz-adv-x="656" 
d="M0 710h100l228 -509l227 509h100l-327 -718z" />
    <glyph glyph-name="W" unicode="W" horiz-adv-x="889" 
d="M8 710h94l157 -474l185 482l186 -482l157 474h94l-244 -718l-193 501l-192 -501z" />
    <glyph glyph-name="X" unicode="X" horiz-adv-x="639" 
d="M262 362l-243 348h105l195 -279l195 279h105l-241 -348l255 -362h-103l-210 295l-208 -295h-106z" />
    <glyph glyph-name="Y" unicode="Y" horiz-adv-x="628" 
d="M268 301l-260 409h106l200 -320l200 320h106l-260 -409v-301h-92v301z" />
    <glyph glyph-name="Z" unicode="Z" horiz-adv-x="593" 
d="M404 622h-352v88h508l-395 -622h397v-88h-553z" />
    <glyph glyph-name="bracketleft" unicode="[" horiz-adv-x="306" 
d="M89 741h187v-71h-108v-740h108v-71h-187v882z" />
    <glyph glyph-name="bracketright" unicode="]" horiz-adv-x="306" 
d="M217 -141h-187v71h108v740h-108v71h187v-882z" />
    <glyph glyph-name="underscore" unicode="_" horiz-adv-x="556" 
d="M66 0h424v-73h-424v73z" />
    <glyph glyph-name="grave" unicode="`" horiz-adv-x="272" 
d="M42 710h109l87 -165h-71z" />
    <glyph glyph-name="a" unicode="a" 
d="M456 50q-32 -29 -72.5 -43.5t-86.5 -14.5q-55 0 -102 20t-81 54.5t-53 82t-19 101.5t19 101.5t53 82t81 54.5t102 20q46 0 86.5 -14.5t72.5 -43.5v50h86v-500h-86v50zM299 73q54 0 94.5 23t62.5 58v192q-22 35 -62.5 58t-94.5 23q-37 0 -67.5 -13.5t-53 -37.5t-35 -56.5
t-12.5 -69.5t12.5 -69.5t35 -56.5t53 -37.5t67.5 -13.5z" />
    <glyph glyph-name="b" unicode="b" 
d="M75 710h86v-260q31 29 71.5 43.5t87.5 14.5q55 0 102 -20t81 -54.5t53 -82t19 -101.5t-19 -101.5t-53 -82t-81 -54.5t-102 -20q-47 0 -87.5 14.5t-71.5 43.5v-50h-86v710zM318 427q-54 0 -95 -23t-62 -58v-192q21 -35 62 -58t95 -23q37 0 67.5 13.5t53 37.5t35 56.5
t12.5 69.5t-12.5 69.5t-35 56.5t-53 37.5t-67.5 13.5z" />
    <glyph glyph-name="c" unicode="c" horiz-adv-x="518" 
d="M299 -8q-56 0 -103 20t-81 55t-53.5 82t-19.5 101t19.5 101t53.5 82t81 55t103 20q63 0 110.5 -22.5t80.5 -56.5l-55 -60q-24 24 -57.5 41t-78.5 17q-37 0 -67.5 -13.5t-53 -37.5t-35 -56.5t-12.5 -69.5t12.5 -69.5t35 -56.5t53 -37.5t67.5 -13.5q45 0 78.5 17t57.5 41
l55 -60q-33 -34 -80.5 -56.5t-110.5 -22.5z" />
    <glyph glyph-name="d" unicode="d" 
d="M456 50q-32 -29 -72.5 -43.5t-86.5 -14.5q-55 0 -102 20t-81 54.5t-53 82t-19 101.5t19 101.5t53 82t81 54.5t102 20q46 0 86.5 -14.5t72.5 -43.5v260h86v-710h-86v50zM299 73q54 0 94.5 23t62.5 58v192q-22 35 -62.5 58t-94.5 23q-37 0 -67.5 -13.5t-53 -37.5t-35 -56.5
t-12.5 -69.5t12.5 -69.5t35 -56.5t53 -37.5t67.5 -13.5z" />
    <glyph glyph-name="e" unicode="e" horiz-adv-x="568" 
d="M299 -8q-56 0 -103 20t-81 55t-53.5 82t-19.5 101t19.5 101.5t53.5 82t79.5 54.5t98.5 20q52 0 96.5 -18.5t77 -54t51 -87.5t19.5 -119h-406q3 -33 17 -61.5t36 -49.5t51.5 -33t63.5 -12q48 0 85 18t61 42l55 -60q-32 -34 -83.5 -57.5t-117.5 -23.5zM288 429
q-55 0 -97 -34t-56 -91h305q-9 62 -52 94t-100 31z" />
    <glyph glyph-name="f" unicode="f" horiz-adv-x="352" 
d="M27 500h84q-17 17 -27 39.5t-10 48.5t10.5 48.5t29.5 39t46 25.5t60 9h118v-78h-104q-32 0 -54 -15.5t-22 -47.5q0 -33 22 -50t47 -19h111v-78h-139v-422h-86v422h-86v78z" />
    <glyph glyph-name="g" unicode="g" horiz-adv-x="611" 
d="M291 -194q-54 0 -111 15t-102 44l45 73q32 -23 76.5 -37.5t94.5 -14.5q33 0 63 6.5t53.5 21.5t37.5 39t14 59q0 13 -3 31t-10 32q-62 -60 -159 -60q-56 0 -101.5 19t-77.5 52t-50 78t-18 97t18 97.5t50 78.5t77.5 52t101.5 19q48 0 86.5 -15t69.5 -44v51h86v-398
q10 -26 14.5 -51t4.5 -47q0 -54 -22.5 -91.5t-59.5 -61.5t-83.5 -34.5t-94.5 -10.5zM292 95q54 0 94 23.5t60 58.5v169q-20 35 -60 58t-94 23q-36 0 -65.5 -12.5t-50.5 -35t-32.5 -52.5t-11.5 -66q0 -35 11.5 -65.5t32.5 -53t50.5 -35t65.5 -12.5z" />
    <glyph glyph-name="h" unicode="h" horiz-adv-x="579" 
d="M75 710h86v-267q29 36 70 50.5t85 14.5q42 0 77.5 -14.5t61 -40.5t40 -64t14.5 -84v-305h-86v300q0 55 -33.5 91t-92.5 36q-53 0 -87.5 -27.5t-48.5 -76.5v-323h-86v710z" />
    <glyph glyph-name="i" unicode="i" horiz-adv-x="236" 
d="M75 609q-19 17 -19 46q0 26 18 44.5t44 18.5t44 -18.5t18 -44.5q0 -29 -19 -46h-86zM75 500h86v-500h-86v500z" />
    <glyph glyph-name="j" unicode="j" horiz-adv-x="244" 
d="M-21 -106h30q42 0 58 21t16 59v526h86v-539q0 -72 -39.5 -108.5t-111.5 -36.5h-39v78zM83 609q-19 17 -19 46q0 26 18 44.5t44 18.5t44 -18.5t18 -44.5q0 -29 -19 -46h-86z" />
    <glyph glyph-name="k" unicode="k" horiz-adv-x="507" 
d="M75 710h86v-436l221 226h108l-233 -236l256 -264h-111l-241 249v-249h-86v710z" />
    <glyph glyph-name="l" unicode="l" horiz-adv-x="236" 
d="M75 710h86v-710h-86v710z" />
    <glyph glyph-name="m" unicode="m" horiz-adv-x="876" 
d="M720 300q0 55 -30 91t-84 36q-47 0 -78 -27t-45 -75q1 -5 1 -10v-10v-305h-86v300q0 55 -30.5 91t-84.5 36q-44 0 -75.5 -24.5t-46.5 -69.5v-333h-86v500h86v-55q28 35 65.5 49t75.5 14q50 0 89 -21.5t62 -60.5q18 24 39 40t43 25.5t44 13t41 3.5q43 0 77.5 -14.5
t58.5 -40.5t37 -64t13 -84v-305h-86v300z" />
    <glyph glyph-name="n" unicode="n" horiz-adv-x="579" 
d="M75 500h86v-57q29 36 70 50.5t85 14.5q42 0 77.5 -14.5t61 -40.5t40 -64t14.5 -84v-305h-86v300q0 55 -33.5 91t-92.5 36q-53 0 -87.5 -27.5t-48.5 -76.5v-323h-86v500z" />
    <glyph glyph-name="o" unicode="o" horiz-adv-x="603" 
d="M302 73q38 0 69.5 13.5t54 37.5t34.5 56.5t12 69.5t-12 69.5t-34.5 56.5t-54 37.5t-69.5 13.5t-69.5 -13.5t-54 -37.5t-35 -56.5t-12.5 -69.5t12.5 -69.5t35 -56.5t54 -37.5t69.5 -13.5zM302 -8q-57 0 -104.5 20t-82 55t-54 82t-19.5 101t19.5 101t54 82t82 55t104.5 20
q56 0 103.5 -20t82 -55t54 -82t19.5 -101t-19.5 -101t-54 -82t-82 -55t-103.5 -20z" />
    <glyph glyph-name="p" unicode="p" 
d="M75 500h86v-50q31 29 71.5 43.5t87.5 14.5q55 0 102 -20t81 -54.5t53 -82t19 -101.5t-19 -101.5t-53 -82t-81 -54.5t-102 -20q-47 0 -87.5 14.5t-71.5 43.5v-234h-86v684zM318 427q-54 0 -95 -23t-62 -58v-192q21 -35 62 -58t95 -23q37 0 67.5 13.5t53 37.5t35 56.5
t12.5 69.5t-12.5 69.5t-35 56.5t-53 37.5t-67.5 13.5z" />
    <glyph glyph-name="q" unicode="q" 
d="M456 50q-32 -29 -72.5 -43.5t-86.5 -14.5q-55 0 -102 20t-81 54.5t-53 82t-19 101.5t19 101.5t53 82t81 54.5t102 20q46 0 86.5 -14.5t72.5 -43.5v50h86v-684h-86v234zM299 73q54 0 94.5 23t62.5 58v192q-22 35 -62.5 58t-94.5 23q-37 0 -67.5 -13.5t-53 -37.5t-35 -56.5
t-12.5 -69.5t12.5 -69.5t35 -56.5t53 -37.5t67.5 -13.5z" />
    <glyph glyph-name="r" unicode="r" horiz-adv-x="350" 
d="M75 500h86v-59q26 32 61 48t77 16q18 0 35 -3v-89q-21 6 -48 6q-41 0 -74.5 -20t-50.5 -59v-340h-86v500z" />
    <glyph glyph-name="s" unicode="s" horiz-adv-x="420" 
d="M207 -8q-56 0 -101.5 24.5t-75.5 75.5l68 46q20 -33 45.5 -51t65.5 -18q37 0 63 17t26 46t-20 46.5t-65 33.5l-39 15q-66 25 -92.5 64t-26.5 84q0 28 11.5 52.5t32.5 42.5t49.5 28t62.5 10q48 0 87.5 -22t62.5 -68l-67 -39q-25 52 -83 52q-29 0 -50 -14.5t-21 -40.5
q0 -23 14.5 -41.5t58.5 -34.5l41 -15q64 -23 97 -58.5t33 -91.5q0 -30 -12.5 -56t-35.5 -45.5t-55.5 -30.5t-73.5 -11z" />
    <glyph glyph-name="t" unicode="t" horiz-adv-x="365" 
d="M9 500h99v107l86 43v-150h151l-19 -78h-132v-264q0 -38 16 -59t58 -21h67v-78h-76q-72 0 -111.5 36.5t-39.5 108.5v277h-80z" />
    <glyph glyph-name="u" unicode="u" horiz-adv-x="578" 
d="M417 56q-29 -36 -69.5 -50t-84.5 -14q-43 0 -78.5 14.5t-61 40.5t-39.5 63.5t-14 84.5v305h86v-300q0 -55 33.5 -91t91.5 -36q52 0 86.5 26t49.5 74v327h86v-500h-86v56z" />
    <glyph glyph-name="v" unicode="v" horiz-adv-x="520" 
d="M-4 500h97l167 -337l168 337h97l-265 -508z" />
    <glyph glyph-name="w" unicode="w" horiz-adv-x="700" 
d="M11 500h89l112 -364l138 372l138 -372l112 364h89l-158 -500h-69l-112 303l-111 -303h-70z" />
    <glyph glyph-name="x" unicode="x" horiz-adv-x="514" 
d="M205 254l-185 246h99l139 -184l137 184h99l-185 -246l195 -254h-100l-147 194l-147 -194h-100z" />
    <glyph glyph-name="y" unicode="y" horiz-adv-x="507" 
d="M210 42l-204 458h93l156 -364l157 364h93l-307 -684h-91z" />
    <glyph glyph-name="z" unicode="z" horiz-adv-x="486" 
d="M310 422h-262v78h411l-293 -422h283v-78h-433z" />
    <glyph glyph-name="braceleft" unicode="{" horiz-adv-x="317" 
d="M234 -141q-71 0 -99.5 36.5t-28.5 107.5v190q0 35 -10.5 53t-47.5 18h-16v71h16q37 0 47.5 18t10.5 53v191q0 70 27.5 107t98.5 37h50v-71h-39q-37 0 -48 -17.5t-11 -55.5v-187q0 -46 -11 -71t-42 -39q31 -15 42 -40t11 -71v-186q0 -38 11 -55.5t48 -17.5h39v-71h-48v0z
" />
    <glyph glyph-name="bar" unicode="|" horiz-adv-x="257" 
d="M89 710h79v-894h-79v894z" />
    <glyph glyph-name="braceright" unicode="}" horiz-adv-x="317" 
d="M83 -141h-48v71h39q37 0 48 17.5t11 55.5v186q0 46 11 71t42 40q-31 14 -42 39t-11 71v187q0 38 -11 55.5t-48 17.5h-39v71h50q71 0 98.5 -37t27.5 -107v-191q0 -35 10.5 -53t47.5 -18h16v-71h-16q-37 0 -47.5 -18t-10.5 -53v-190q0 -71 -28.5 -107.5t-99.5 -36.5z" />
    <glyph glyph-name="uni00A0" unicode="&#xa0;" horiz-adv-x="240" 
 />
    <glyph glyph-name="exclamdown" unicode="&#xa1;" horiz-adv-x="254" 
d="M84 84l16 197h55l16 -197v-269h-87v269zM87 373q-16 9 -25 25t-9 36q0 31 21.5 52.5t51.5 21.5q32 0 53.5 -21.5t21.5 -52.5q0 -20 -9.5 -36t-24.5 -25h-80z" />
    <glyph glyph-name="sterling" unicode="&#xa3;" horiz-adv-x="580" 
d="M53 378h91q-25 26 -39 60.5t-14 72.5q0 42 15.5 80t44 66t68 44.5t86.5 16.5q46 0 85 -16.5t67.5 -45.5t44.5 -67.5t16 -81.5h-87q0 27 -9 51t-25.5 42t-40 28.5t-51.5 10.5q-29 0 -52.5 -9.5t-40 -27t-26 -41t-9.5 -50.5t9.5 -51.5t26 -42.5t40 -28.5t52.5 -10.5h82v-73
h-157v-225h315v-80h-492v80h90v225h-90v73z" />
    <glyph glyph-name="yen" unicode="&#xa5;" horiz-adv-x="658" 
d="M129 345h130l-233 365h100l203 -322l203 322h100l-232 -365h130v-73h-158v-74h158v-73h-158v-125h-85v125h-158v73h158v74h-158v73z" />
    <glyph glyph-name="dieresis" unicode="&#xa8;" horiz-adv-x="406" 
d="M90 571q-24 0 -42 17t-18 43q0 25 18 42t42 17q26 0 43.5 -17t17.5 -42q0 -26 -17.5 -43t-43.5 -17zM315 571q-25 0 -42.5 17t-17.5 43q0 25 17.5 42t42.5 17q26 0 43 -17t17 -42q0 -26 -17 -43t-43 -17z" />
    <glyph glyph-name="copyright" unicode="&#xa9;" horiz-adv-x="816" 
d="M419 161q-41 0 -76.5 15t-61.5 41t-40.5 61.5t-14.5 77.5t14.5 77.5t40.5 61.5t61.5 41t76.5 15q20 0 42 -4.5t43 -14.5t39.5 -25t32.5 -36l-51 -46q-19 26 -46.5 41.5t-56.5 15.5q-56 0 -89 -35.5t-33 -90.5t33 -90.5t89 -35.5q29 0 56.5 15.5t46.5 41.5l51 -46
q-14 -21 -32.5 -36t-39.5 -25t-43 -14.5t-42 -4.5zM407 61q61 0 114.5 23t93.5 63t63 93.5t23 113.5q0 61 -23 114.5t-63 93.5t-93.5 63t-114.5 23q-60 0 -113.5 -23t-93.5 -63t-63 -93.5t-23 -114.5q0 -60 23 -113.5t63 -93.5t93.5 -63t113.5 -23zM408 -9q-75 0 -141 28.5
t-115.5 78t-78 115.5t-28.5 141t28.5 141t78 115.5t115.5 78.5t141 29t141 -29t115.5 -78.5t78 -115.5t28.5 -141t-28.5 -141t-78 -115.5t-115.5 -78t-141 -28.5z" />
    <glyph glyph-name="guillemotleft" unicode="&#xab;" horiz-adv-x="509" 
d="M244 250l152 221l62 -42l-123 -179l123 -179l-62 -42zM42 250l152 221l62 -42l-123 -179l123 -179l-62 -42z" />
    <glyph glyph-name="uni00AD" unicode="&#xad;" horiz-adv-x="375" 
d="M66 318h243v-89h-243v89z" />
    <glyph glyph-name="macron" unicode="&#xaf;" horiz-adv-x="365" 
d="M37 679h292v-65h-292v65z" />
    <glyph glyph-name="degree" unicode="&#xb0;" horiz-adv-x="330" 
d="M165 525q28 0 47 20t19 47t-19 46.5t-47 19.5q-27 0 -47 -19.5t-20 -46.5t20 -47t47 -20zM165 470q-25 0 -47.5 9.5t-39 26t-26 39t-9.5 47.5t9.5 47.5t26 39t39 26t47.5 9.5t47.5 -9.5t39 -26t26 -39t9.5 -47.5t-9.5 -47.5t-26 -39t-39 -26t-47.5 -9.5z" />
    <glyph glyph-name="acute" unicode="&#xb4;" horiz-adv-x="272" 
d="M120 710h109l-124 -165h-72z" />
    <glyph glyph-name="periodcentered" unicode="&#xb7;" horiz-adv-x="270" 
d="M135 198q-30 0 -52 21.5t-22 52.5t22 52.5t52 21.5q31 0 52.5 -21.5t21.5 -52.5t-21.5 -52.5t-52.5 -21.5z" />
    <glyph glyph-name="cedilla" unicode="&#xb8;" horiz-adv-x="197" 
d="M71 0h59l-38 -135h-98z" />
    <glyph glyph-name="guillemotright" unicode="&#xbb;" horiz-adv-x="509" 
d="M315 29l-62 42l123 179l-123 179l62 42l152 -221zM113 29l-62 42l123 179l-123 179l62 42l152 -221z" />
    <glyph glyph-name="questiondown" unicode="&#xbf;" horiz-adv-x="530" 
d="M273 -194q-49 0 -91 18t-72.5 48.5t-48 71.5t-17.5 88q0 46 17 84t45 65.5t64 44t74 20.5v38h79v-116h-46q-33 0 -60 -11t-46 -30t-29.5 -45t-10.5 -56q0 -29 10 -54t28.5 -44t44 -30t56.5 -11t57.5 11t45.5 30t29.5 45t10.5 55v6h88q0 -47 -17 -88.5t-47.5 -72.5
t-72.5 -49t-91 -18zM283 508q32 0 53.5 -21.5t21.5 -52.5q0 -20 -9.5 -36t-24.5 -26h-80q-16 10 -25 26t-9 36q0 31 21.5 52.5t51.5 21.5z" />
    <glyph glyph-name="Agrave" unicode="&#xc0;" horiz-adv-x="678" 
d="M339 718l346 -718h-98l-88 186h-320l-88 -186h-98zM219 270h240l-120 254zM189 913h109l77 -145h-73z" />
    <glyph glyph-name="Aacute" unicode="&#xc1;" horiz-adv-x="678" 
d="M339 718l346 -718h-98l-88 186h-320l-88 -186h-98zM219 270h240l-120 254zM380 913h108l-112 -145h-73z" />
    <glyph glyph-name="Acircumflex" unicode="&#xc2;" horiz-adv-x="678" 
d="M339 718l346 -718h-98l-88 186h-320l-88 -186h-98zM219 270h240l-120 254zM166 826l173 100l173 -100l-35 -60l-138 82l-138 -82z" />
    <glyph glyph-name="Atilde" unicode="&#xc3;" horiz-adv-x="678" 
d="M339 718l346 -718h-98l-88 186h-320l-88 -186h-98zM219 270h240l-120 254zM407 783q-21 0 -39 7t-33.5 15l-29 15t-26.5 7q-20 0 -30.5 -10.5t-15.5 -32.5h-69l4 18q4 23 14.5 41t25 30t31.5 18.5t34 6.5q21 0 38.5 -7t33 -15l29 -15t25.5 -7q21 0 32 10t16 33h68l-3 -18
q-8 -45 -38 -70.5t-67 -25.5z" />
    <glyph glyph-name="Adieresis" unicode="&#xc4;" horiz-adv-x="678" 
d="M339 718l346 -718h-98l-88 186h-320l-88 -186h-98zM219 270h240l-120 254zM226 782q-24 0 -42.5 18t-18.5 44q0 25 18.5 42.5t42.5 17.5q26 0 44 -17.5t18 -42.5q0 -26 -18 -44t-44 -18zM451 782q-25 0 -43 18t-18 44q0 25 18 42.5t43 17.5q26 0 44 -17.5t18 -42.5
q0 -26 -18 -44t-44 -18z" />
    <glyph glyph-name="Aring" unicode="&#xc5;" horiz-adv-x="678" 
d="M339 718l346 -718h-98l-88 186h-320l-88 -186h-98zM219 270h240l-120 254zM338 798q20 0 34 13t14 34t-14 34.5t-34 13.5t-34 -13.5t-14 -34.5t14 -34t34 -13zM338 751q-42 0 -70.5 26.5t-28.5 67.5q0 42 29 68.5t70 26.5t70 -26.5t29 -68.5q0 -41 -28.5 -67.5
t-70.5 -26.5z" />
    <glyph glyph-name="AE" unicode="&#xc6;" horiz-adv-x="998" 
d="M301 621l-42 89h399l42 -88h-306l104 -215h262l42 -88h-262l111 -231h306l43 -88h-404l-88 186h-320l-88 -186h-98zM228 270h240l-120 254z" />
    <glyph glyph-name="Ccedilla" unicode="&#xc7;" horiz-adv-x="665" 
d="M359 -5q-67 9 -124.5 39.5t-99.5 78t-65.5 109.5t-23.5 133q0 77 28 143.5t77 115t115.5 76.5t142.5 28q67 0 125.5 -21t104.5 -63l-53 -69q-35 29 -79 47.5t-98 18.5q-58 0 -107.5 -21t-85.5 -58.5t-56.5 -88t-20.5 -108.5q0 -59 20.5 -109t56.5 -87.5t85.5 -58.5
t107.5 -21q54 0 98 18.5t79 47.5l53 -69q-45 -40 -101 -61t-120 -23l-35 -127h-98z" />
    <glyph glyph-name="Egrave" unicode="&#xc8;" horiz-adv-x="555" 
d="M95 710h410v-88h-319v-215h259v-88h-259v-231h319v-88h-410v710zM178 913h109l77 -145h-73z" />
    <glyph glyph-name="Eacute" unicode="&#xc9;" horiz-adv-x="555" 
d="M95 710h410v-88h-319v-215h259v-88h-259v-231h319v-88h-410v710zM311 913h108l-112 -145h-73z" />
    <glyph glyph-name="Ecircumflex" unicode="&#xca;" horiz-adv-x="555" 
d="M95 710h410v-88h-319v-215h259v-88h-259v-231h319v-88h-410v710zM126 826l173 100l173 -100l-35 -60l-138 82l-138 -82z" />
    <glyph glyph-name="Edieresis" unicode="&#xcb;" horiz-adv-x="555" 
d="M95 710h410v-88h-319v-215h259v-88h-259v-231h319v-88h-410v710zM187 782q-24 0 -42.5 18t-18.5 44q0 25 18.5 42.5t42.5 17.5q26 0 44 -17.5t18 -42.5q0 -26 -18 -44t-44 -18zM412 782q-25 0 -43 18t-18 44q0 25 18 42.5t43 17.5q26 0 44 -17.5t18 -42.5q0 -26 -18 -44
t-44 -18z" />
    <glyph glyph-name="Igrave" unicode="&#xcc;" horiz-adv-x="281" 
d="M95 710h91v-710h-91v710zM20 913h109l77 -145h-73z" />
    <glyph glyph-name="Iacute" unicode="&#xcd;" horiz-adv-x="281" 
d="M95 710h91v-710h-91v710zM152 913h108l-112 -145h-73z" />
    <glyph glyph-name="Icircumflex" unicode="&#xce;" horiz-adv-x="281" 
d="M95 710h91v-710h-91v710zM-32 826l173 100l173 -100l-35 -60l-138 82l-138 -82z" />
    <glyph glyph-name="Idieresis" unicode="&#xcf;" horiz-adv-x="281" 
d="M95 710h91v-710h-91v710zM29 782q-24 0 -42.5 18t-18.5 44q0 25 18.5 42.5t42.5 17.5q26 0 44 -17.5t18 -42.5q0 -26 -18 -44t-44 -18zM254 782q-25 0 -43 18t-18 44q0 25 18 42.5t43 17.5q26 0 44 -17.5t18 -42.5q0 -26 -18 -44t-44 -18z" />
    <glyph glyph-name="Eth" unicode="&#xd0;" horiz-adv-x="759" 
d="M15 399h108v311h211q82 0 151.5 -27t120 -74.5t79 -112.5t28.5 -141t-28.5 -141t-79 -112.5t-120 -74.5t-151.5 -27h-211v312h-108v87zM334 85q64 0 117 20.5t90.5 56.5t58 85.5t20.5 107.5t-20.5 107.5t-58 85.5t-90.5 56.5t-117 20.5h-120v-226h134v-87h-134v-227h120z
" />
    <glyph glyph-name="Ntilde" unicode="&#xd1;" horiz-adv-x="787" 
d="M186 505v-505h-91v718l506 -513v505h91v-718zM461 783q-21 0 -39 7t-33.5 15l-29 15t-26.5 7q-20 0 -30.5 -10.5t-15.5 -32.5h-69l4 18q4 23 14.5 41t25 30t31.5 18.5t34 6.5q21 0 38.5 -7t33 -15l29 -15t25.5 -7q21 0 32 10t16 33h68l-3 -18q-8 -45 -38 -70.5t-67 -25.5
z" />
    <glyph glyph-name="Ograve" unicode="&#xd2;" horiz-adv-x="818" 
d="M409 79q58 0 107.5 21t85.5 58.5t56.5 87.5t20.5 109q0 58 -20.5 108.5t-56.5 88t-85.5 58.5t-107.5 21t-107.5 -21t-85.5 -58.5t-56.5 -88t-20.5 -108.5q0 -59 20.5 -109t56.5 -87.5t85.5 -58.5t107.5 -21zM409 -8q-76 0 -142.5 27.5t-115.5 76.5t-77 115.5t-28 143.5
t28 143.5t77 115t115.5 76.5t142.5 28t142.5 -28t115.5 -76.5t77 -115t28 -143.5t-28 -143.5t-77 -115.5t-115.5 -76.5t-142.5 -27.5zM288 913h109l77 -145h-73z" />
    <glyph glyph-name="Oacute" unicode="&#xd3;" horiz-adv-x="818" 
d="M409 79q58 0 107.5 21t85.5 58.5t56.5 87.5t20.5 109q0 58 -20.5 108.5t-56.5 88t-85.5 58.5t-107.5 21t-107.5 -21t-85.5 -58.5t-56.5 -88t-20.5 -108.5q0 -59 20.5 -109t56.5 -87.5t85.5 -58.5t107.5 -21zM409 -8q-76 0 -142.5 27.5t-115.5 76.5t-77 115.5t-28 143.5
t28 143.5t77 115t115.5 76.5t142.5 28t142.5 -28t115.5 -76.5t77 -115t28 -143.5t-28 -143.5t-77 -115.5t-115.5 -76.5t-142.5 -27.5zM420 913h108l-112 -145h-73z" />
    <glyph glyph-name="Ocircumflex" unicode="&#xd4;" horiz-adv-x="818" 
d="M409 79q58 0 107.5 21t85.5 58.5t56.5 87.5t20.5 109q0 58 -20.5 108.5t-56.5 88t-85.5 58.5t-107.5 21t-107.5 -21t-85.5 -58.5t-56.5 -88t-20.5 -108.5q0 -59 20.5 -109t56.5 -87.5t85.5 -58.5t107.5 -21zM409 -8q-76 0 -142.5 27.5t-115.5 76.5t-77 115.5t-28 143.5
t28 143.5t77 115t115.5 76.5t142.5 28t142.5 -28t115.5 -76.5t77 -115t28 -143.5t-28 -143.5t-77 -115.5t-115.5 -76.5t-142.5 -27.5zM236 826l173 100l173 -100l-35 -60l-138 82l-138 -82z" />
    <glyph glyph-name="Otilde" unicode="&#xd5;" horiz-adv-x="818" 
d="M409 79q58 0 107.5 21t85.5 58.5t56.5 87.5t20.5 109q0 58 -20.5 108.5t-56.5 88t-85.5 58.5t-107.5 21t-107.5 -21t-85.5 -58.5t-56.5 -88t-20.5 -108.5q0 -59 20.5 -109t56.5 -87.5t85.5 -58.5t107.5 -21zM409 -8q-76 0 -142.5 27.5t-115.5 76.5t-77 115.5t-28 143.5
t28 143.5t77 115t115.5 76.5t142.5 28t142.5 -28t115.5 -76.5t77 -115t28 -143.5t-28 -143.5t-77 -115.5t-115.5 -76.5t-142.5 -27.5zM477 783q-21 0 -39 7t-33.5 15l-29 15t-26.5 7q-20 0 -30.5 -10.5t-15.5 -32.5h-69l4 18q4 23 14.5 41t25 30t31.5 18.5t34 6.5
q21 0 38.5 -7t33 -15l29 -15t25.5 -7q21 0 32 10t16 33h68l-3 -18q-8 -45 -38 -70.5t-67 -25.5z" />
    <glyph glyph-name="Odieresis" unicode="&#xd6;" horiz-adv-x="818" 
d="M409 79q58 0 107.5 21t85.5 58.5t56.5 87.5t20.5 109q0 58 -20.5 108.5t-56.5 88t-85.5 58.5t-107.5 21t-107.5 -21t-85.5 -58.5t-56.5 -88t-20.5 -108.5q0 -59 20.5 -109t56.5 -87.5t85.5 -58.5t107.5 -21zM409 -8q-76 0 -142.5 27.5t-115.5 76.5t-77 115.5t-28 143.5
t28 143.5t77 115t115.5 76.5t142.5 28t142.5 -28t115.5 -76.5t77 -115t28 -143.5t-28 -143.5t-77 -115.5t-115.5 -76.5t-142.5 -27.5zM296 782q-24 0 -42.5 18t-18.5 44q0 25 18.5 42.5t42.5 17.5q26 0 44 -17.5t18 -42.5q0 -26 -18 -44t-44 -18zM521 782q-25 0 -43 18
t-18 44q0 25 18 42.5t43 17.5q26 0 44 -17.5t18 -42.5q0 -26 -18 -44t-44 -18z" />
    <glyph glyph-name="multiply" unicode="&#xd7;" horiz-adv-x="590" 
d="M98 119l148 147l-150 150l50 49l149 -150l148 148l49 -49l-148 -148l150 -149l-49 -49l-150 149l-147 -147z" />
    <glyph glyph-name="Oslash" unicode="&#xd8;" horiz-adv-x="820" 
d="M76 36l64 72q-44 48 -68.5 111t-24.5 136q0 77 28 143.5t77 115t115.5 76.5t142.5 28q60 0 114 -17.5t99 -49.5l71 79l54 -51l-69 -77q44 -48 69 -111t25 -136q0 -77 -28 -143.5t-77 -115.5t-115.5 -76.5t-142.5 -27.5q-61 0 -115.5 17.5t-99.5 49.5l-66 -74zM410 79
q58 0 107.5 21t85.5 58.5t56.5 87.5t20.5 109q0 52 -16.5 97.5t-45.5 81.5l-363 -408q32 -23 71 -35t84 -12zM140 355q0 -52 16 -97.5t45 -81.5l363 408q-32 23 -71 35t-83 12q-58 0 -107.5 -21t-85.5 -58.5t-56.5 -88t-20.5 -108.5z" />
    <glyph glyph-name="Ugrave" unicode="&#xd9;" horiz-adv-x="738" 
d="M369 -8q-62 0 -114 19t-89.5 55t-58.5 87.5t-21 116.5v440h91v-444q0 -46 14 -81t39.5 -58.5t60.5 -35.5t78 -12t78 12t60.5 35.5t39.5 58.5t14 81v444h91v-440q0 -65 -21 -116.5t-58.5 -87.5t-89.5 -55t-114 -19zM245 913h109l77 -145h-73z" />
    <glyph glyph-name="Uacute" unicode="&#xda;" horiz-adv-x="738" 
d="M369 -8q-62 0 -114 19t-89.5 55t-58.5 87.5t-21 116.5v440h91v-444q0 -46 14 -81t39.5 -58.5t60.5 -35.5t78 -12t78 12t60.5 35.5t39.5 58.5t14 81v444h91v-440q0 -65 -21 -116.5t-58.5 -87.5t-89.5 -55t-114 -19zM385 913h108l-112 -145h-73z" />
    <glyph glyph-name="Ucircumflex" unicode="&#xdb;" horiz-adv-x="738" 
d="M369 -8q-62 0 -114 19t-89.5 55t-58.5 87.5t-21 116.5v440h91v-444q0 -46 14 -81t39.5 -58.5t60.5 -35.5t78 -12t78 12t60.5 35.5t39.5 58.5t14 81v444h91v-440q0 -65 -21 -116.5t-58.5 -87.5t-89.5 -55t-114 -19zM196 826l173 100l173 -100l-35 -60l-138 82l-138 -82z
" />
    <glyph glyph-name="Udieresis" unicode="&#xdc;" horiz-adv-x="738" 
d="M369 -8q-62 0 -114 19t-89.5 55t-58.5 87.5t-21 116.5v440h91v-444q0 -46 14 -81t39.5 -58.5t60.5 -35.5t78 -12t78 12t60.5 35.5t39.5 58.5t14 81v444h91v-440q0 -65 -21 -116.5t-58.5 -87.5t-89.5 -55t-114 -19zM256 782q-24 0 -42.5 18t-18.5 44q0 25 18.5 42.5
t42.5 17.5q26 0 44 -17.5t18 -42.5q0 -26 -18 -44t-44 -18zM481 782q-25 0 -43 18t-18 44q0 25 18 42.5t43 17.5q26 0 44 -17.5t18 -42.5q0 -26 -18 -44t-44 -18z" />
    <glyph glyph-name="Yacute" unicode="&#xdd;" horiz-adv-x="628" 
d="M268 301l-260 409h106l200 -320l200 320h106l-260 -409v-301h-92v301zM355 913h108l-112 -145h-73z" />
    <glyph glyph-name="Thorn" unicode="&#xde;" horiz-adv-x="580" 
d="M95 710h91v-136h102q57 0 103.5 -15.5t79.5 -44t51 -68.5t18 -89q0 -50 -18 -90t-51 -68.5t-79.5 -44t-103.5 -15.5h-102v-139h-91v710zM287 223q78 0 119.5 35.5t41.5 98.5t-41.5 97.5t-119.5 34.5h-101v-266h101z" />
    <glyph glyph-name="germandbls" unicode="&#xdf;" horiz-adv-x="556" 
d="M75 500q0 52 16 93t44 68.5t65.5 42t80.5 14.5t79 -14.5t62.5 -39.5t41.5 -57.5t15 -68.5q0 -54 -27.5 -93.5t-72.5 -60.5q32 -9 57.5 -26t43 -40t26.5 -50.5t9 -56.5q0 -44 -16 -82.5t-46 -67t-73.5 -45t-98.5 -16.5h-46v79h46q70 0 109 38t39 96q0 59 -43 93.5
t-111 34.5h-40v77h23q26 0 50.5 7.5t43 22.5t30 36.5t11.5 49.5q0 48 -32 77t-80 29q-54 0 -87 -35.5t-33 -104.5v-500h-86v500z" />
    <glyph glyph-name="agrave" unicode="&#xe0;" 
d="M456 50q-32 -29 -72.5 -43.5t-86.5 -14.5q-55 0 -102 20t-81 54.5t-53 82t-19 101.5t19 101.5t53 82t81 54.5t102 20q46 0 86.5 -14.5t72.5 -43.5v50h86v-500h-86v50zM299 73q54 0 94.5 23t62.5 58v192q-22 35 -62.5 58t-94.5 23q-37 0 -67.5 -13.5t-53 -37.5t-35 -56.5
t-12.5 -69.5t12.5 -69.5t35 -56.5t53 -37.5t67.5 -13.5zM157 710h109l87 -165h-71z" />
    <glyph glyph-name="aacute" unicode="&#xe1;" 
d="M456 50q-32 -29 -72.5 -43.5t-86.5 -14.5q-55 0 -102 20t-81 54.5t-53 82t-19 101.5t19 101.5t53 82t81 54.5t102 20q46 0 86.5 -14.5t72.5 -43.5v50h86v-500h-86v50zM299 73q54 0 94.5 23t62.5 58v192q-22 35 -62.5 58t-94.5 23q-37 0 -67.5 -13.5t-53 -37.5t-35 -56.5
t-12.5 -69.5t12.5 -69.5t35 -56.5t53 -37.5t67.5 -13.5zM348 710h109l-124 -165h-72z" />
    <glyph glyph-name="acircumflex" unicode="&#xe2;" 
d="M456 50q-32 -29 -72.5 -43.5t-86.5 -14.5q-55 0 -102 20t-81 54.5t-53 82t-19 101.5t19 101.5t53 82t81 54.5t102 20q46 0 86.5 -14.5t72.5 -43.5v50h86v-500h-86v50zM299 73q54 0 94.5 23t62.5 58v192q-22 35 -62.5 58t-94.5 23q-37 0 -67.5 -13.5t-53 -37.5t-35 -56.5
t-12.5 -69.5t12.5 -69.5t35 -56.5t53 -37.5t67.5 -13.5zM147 611l170 107l170 -107l-35 -58l-135 86l-136 -86z" />
    <glyph glyph-name="atilde" unicode="&#xe3;" 
d="M456 50q-32 -29 -72.5 -43.5t-86.5 -14.5q-55 0 -102 20t-81 54.5t-53 82t-19 101.5t19 101.5t53 82t81 54.5t102 20q46 0 86.5 -14.5t72.5 -43.5v50h86v-500h-86v50zM299 73q54 0 94.5 23t62.5 58v192q-22 35 -62.5 58t-94.5 23q-37 0 -67.5 -13.5t-53 -37.5t-35 -56.5
t-12.5 -69.5t12.5 -69.5t35 -56.5t53 -37.5t67.5 -13.5zM147 585q9 45 38.5 69.5t64.5 24.5q21 0 38.5 -7t33 -15l29 -15t25.5 -7q21 0 32 11t16 33h66l-3 -18q-8 -42 -36.5 -68t-66.5 -26q-21 0 -39 7t-33.5 15l-29 15t-26.5 7q-20 0 -30.5 -11t-15.5 -34h-66z" />
    <glyph glyph-name="adieresis" unicode="&#xe4;" 
d="M456 50q-32 -29 -72.5 -43.5t-86.5 -14.5q-55 0 -102 20t-81 54.5t-53 82t-19 101.5t19 101.5t53 82t81 54.5t102 20q46 0 86.5 -14.5t72.5 -43.5v50h86v-500h-86v50zM299 73q54 0 94.5 23t62.5 58v192q-22 35 -62.5 58t-94.5 23q-37 0 -67.5 -13.5t-53 -37.5t-35 -56.5
t-12.5 -69.5t12.5 -69.5t35 -56.5t53 -37.5t67.5 -13.5zM204 571q-24 0 -42 17t-18 43q0 25 18 42t42 17q26 0 43.5 -17t17.5 -42q0 -26 -17.5 -43t-43.5 -17zM429 571q-25 0 -42.5 17t-17.5 43q0 25 17.5 42t42.5 17q26 0 43 -17t17 -42q0 -26 -17 -43t-43 -17z" />
    <glyph glyph-name="aring" unicode="&#xe5;" 
d="M456 50q-32 -29 -72.5 -43.5t-86.5 -14.5q-55 0 -102 20t-81 54.5t-53 82t-19 101.5t19 101.5t53 82t81 54.5t102 20q46 0 86.5 -14.5t72.5 -43.5v50h86v-500h-86v50zM299 73q54 0 94.5 23t62.5 58v192q-22 35 -62.5 58t-94.5 23q-37 0 -67.5 -13.5t-53 -37.5t-35 -56.5
t-12.5 -69.5t12.5 -69.5t35 -56.5t53 -37.5t67.5 -13.5zM297 613q20 0 34 13t14 34q0 22 -14 35t-34 13t-34 -13t-14 -35q0 -21 14 -34t34 -13zM297 566q-21 0 -39 7t-31.5 20t-21 30t-7.5 37q0 42 29 68.5t70 26.5t70 -26.5t29 -68.5q0 -20 -7.5 -37t-21 -30t-31.5 -20
t-39 -7z" />
    <glyph glyph-name="ae" unicode="&#xe6;" horiz-adv-x="919" 
d="M650 -8q-65 0 -117.5 26.5t-87.5 72.5q-42 -48 -94 -73.5t-118 -25.5q-91 0 -145 44.5t-54 121.5q0 36 15 66t42 51.5t65 34t83 12.5q51 0 88.5 -10.5t64.5 -25.5v25q-1 35 -13 57.5t-31 35.5t-43.5 18t-50.5 5q-44 0 -80 -14.5t-62 -36.5l-41 70q32 26 79.5 44t104.5 18
q61 0 113 -23t77 -76q35 45 86 72t113 27q52 0 96.5 -18.5t77 -54t51 -87.5t19.5 -119h-406q3 -33 17 -61.5t36 -49.5t51.5 -33t63.5 -12q48 0 85 18t61 42l55 -60q-32 -34 -83.5 -57.5t-117.5 -23.5zM237 73q56 0 95.5 22t59.5 55v56q-26 20 -61 31.5t-85 11.5
q-25 0 -47 -5.5t-39 -17t-27 -28.5t-10 -40t9.5 -39t25.5 -26.5t36.5 -15t42.5 -4.5zM639 429q-55 0 -97 -34t-56 -91h305q-9 62 -52 94t-100 31z" />
    <glyph glyph-name="ccedilla" unicode="&#xe7;" horiz-adv-x="518" 
d="M258 -5q-48 7 -87.5 29.5t-68 56t-44.5 77t-16 92.5q0 54 19.5 101t53.5 82t81 55t103 20q63 0 110.5 -22.5t80.5 -56.5l-55 -60q-24 24 -57.5 41t-78.5 17q-37 0 -67.5 -13.5t-53 -37.5t-35 -56.5t-12.5 -69.5t12.5 -69.5t35 -56.5t53 -37.5t67.5 -13.5q45 0 78.5 17
t57.5 41l55 -60q-31 -32 -73.5 -53.5t-98.5 -24.5l-36 -128h-98z" />
    <glyph glyph-name="egrave" unicode="&#xe8;" horiz-adv-x="568" 
d="M299 -8q-56 0 -103 20t-81 55t-53.5 82t-19.5 101t19.5 101.5t53.5 82t79.5 54.5t98.5 20q52 0 96.5 -18.5t77 -54t51 -87.5t19.5 -119h-406q3 -33 17 -61.5t36 -49.5t51.5 -33t63.5 -12q48 0 85 18t61 42l55 -60q-32 -34 -83.5 -57.5t-117.5 -23.5zM288 429
q-55 0 -97 -34t-56 -91h305q-9 62 -52 94t-100 31zM163 710h109l87 -165h-71z" />
    <glyph glyph-name="eacute" unicode="&#xe9;" horiz-adv-x="568" 
d="M299 -8q-56 0 -103 20t-81 55t-53.5 82t-19.5 101t19.5 101.5t53.5 82t79.5 54.5t98.5 20q52 0 96.5 -18.5t77 -54t51 -87.5t19.5 -119h-406q3 -33 17 -61.5t36 -49.5t51.5 -33t63.5 -12q48 0 85 18t61 42l55 -60q-32 -34 -83.5 -57.5t-117.5 -23.5zM288 429
q-55 0 -97 -34t-56 -91h305q-9 62 -52 94t-100 31zM324 710h109l-124 -165h-72z" />
    <glyph glyph-name="ecircumflex" unicode="&#xea;" horiz-adv-x="568" 
d="M299 -8q-56 0 -103 20t-81 55t-53.5 82t-19.5 101t19.5 101.5t53.5 82t79.5 54.5t98.5 20q52 0 96.5 -18.5t77 -54t51 -87.5t19.5 -119h-406q3 -33 17 -61.5t36 -49.5t51.5 -33t63.5 -12q48 0 85 18t61 42l55 -60q-32 -34 -83.5 -57.5t-117.5 -23.5zM288 429
q-55 0 -97 -34t-56 -91h305q-9 62 -52 94t-100 31zM123 611l170 107l170 -107l-35 -58l-135 86l-136 -86z" />
    <glyph glyph-name="edieresis" unicode="&#xeb;" horiz-adv-x="568" 
d="M299 -8q-56 0 -103 20t-81 55t-53.5 82t-19.5 101t19.5 101.5t53.5 82t79.5 54.5t98.5 20q52 0 96.5 -18.5t77 -54t51 -87.5t19.5 -119h-406q3 -33 17 -61.5t36 -49.5t51.5 -33t63.5 -12q48 0 85 18t61 42l55 -60q-32 -34 -83.5 -57.5t-117.5 -23.5zM288 429
q-55 0 -97 -34t-56 -91h305q-9 62 -52 94t-100 31zM181 571q-24 0 -42 17t-18 43q0 25 18 42t42 17q26 0 43.5 -17t17.5 -42q0 -26 -17.5 -43t-43.5 -17zM406 571q-25 0 -42.5 17t-17.5 43q0 25 17.5 42t42.5 17q26 0 43 -17t17 -42q0 -26 -17 -43t-43 -17z" />
    <glyph glyph-name="igrave" unicode="&#xec;" horiz-adv-x="236" 
d="M75 500h86v-500h-86v500zM-11 710h109l87 -165h-71z" />
    <glyph glyph-name="iacute" unicode="&#xed;" horiz-adv-x="236" 
d="M75 500h86v-500h-86v500zM140 710h109l-124 -165h-72z" />
    <glyph glyph-name="icircumflex" unicode="&#xee;" horiz-adv-x="236" 
d="M-51 611l170 107l170 -107l-35 -58l-135 86l-136 -86zM75 500h86v-500h-86v500z" />
    <glyph glyph-name="idieresis" unicode="&#xef;" horiz-adv-x="236" 
d="M75 500h86v-500h-86v500zM6 571q-24 0 -42 17t-18 43q0 25 18 42t42 17q26 0 43.5 -17t17.5 -42q0 -26 -17.5 -43t-43.5 -17zM231 571q-25 0 -42.5 17t-17.5 43q0 25 17.5 42t42.5 17q26 0 43 -17t17 -42q0 -26 -17 -43t-43 -17z" />
    <glyph glyph-name="eth" unicode="&#xf0;" horiz-adv-x="603" 
d="M176 629h85l-55 81h94l56 -81h125v-67h-79l105 -152q30 -45 42 -83t12 -77q0 -53 -19.5 -100t-54 -82t-82.5 -55.5t-104 -20.5t-103.5 20.5t-82 55.5t-54 82t-19.5 100q0 52 18.5 98.5t52 81.5t79.5 55.5t101 22.5q16 0 30.5 -2.5t27.5 -6.5l-44 63h-131v67zM301 71
q39 0 70.5 14t54 38.5t35 57t12.5 69.5t-12.5 69.5t-35 57t-54 38.5t-70.5 14q-38 0 -70 -14t-54.5 -38.5t-35 -57t-12.5 -69.5t12.5 -69.5t35 -57t54.5 -38.5t70 -14z" />
    <glyph glyph-name="ntilde" unicode="&#xf1;" horiz-adv-x="579" 
d="M75 500h86v-57q29 36 70 50.5t85 14.5q42 0 77.5 -14.5t61 -40.5t40 -64t14.5 -84v-305h-86v300q0 55 -33.5 91t-92.5 36q-53 0 -87.5 -27.5t-48.5 -76.5v-323h-86v500zM122 585q9 45 38.5 69.5t64.5 24.5q21 0 38.5 -7t33 -15l29 -15t25.5 -7q21 0 32 11t16 33h66
l-3 -18q-8 -42 -36.5 -68t-66.5 -26q-21 0 -39 7t-33.5 15l-29 15t-26.5 7q-20 0 -30.5 -11t-15.5 -34h-66z" />
    <glyph glyph-name="ograve" unicode="&#xf2;" horiz-adv-x="603" 
d="M302 73q38 0 69.5 13.5t54 37.5t34.5 56.5t12 69.5t-12 69.5t-34.5 56.5t-54 37.5t-69.5 13.5t-69.5 -13.5t-54 -37.5t-35 -56.5t-12.5 -69.5t12.5 -69.5t35 -56.5t54 -37.5t69.5 -13.5zM302 -8q-57 0 -104.5 20t-82 55t-54 82t-19.5 101t19.5 101t54 82t82 55t104.5 20
q56 0 103.5 -20t82 -55t54 -82t19.5 -101t-19.5 -101t-54 -82t-82 -55t-103.5 -20zM161 710h109l87 -165h-71z" />
    <glyph glyph-name="oacute" unicode="&#xf3;" horiz-adv-x="603" 
d="M302 73q38 0 69.5 13.5t54 37.5t34.5 56.5t12 69.5t-12 69.5t-34.5 56.5t-54 37.5t-69.5 13.5t-69.5 -13.5t-54 -37.5t-35 -56.5t-12.5 -69.5t12.5 -69.5t35 -56.5t54 -37.5t69.5 -13.5zM302 -8q-57 0 -104.5 20t-82 55t-54 82t-19.5 101t19.5 101t54 82t82 55t104.5 20
q56 0 103.5 -20t82 -55t54 -82t19.5 -101t-19.5 -101t-54 -82t-82 -55t-103.5 -20zM333 710h109l-124 -165h-72z" />
    <glyph glyph-name="ocircumflex" unicode="&#xf4;" horiz-adv-x="603" 
d="M302 73q38 0 69.5 13.5t54 37.5t34.5 56.5t12 69.5t-12 69.5t-34.5 56.5t-54 37.5t-69.5 13.5t-69.5 -13.5t-54 -37.5t-35 -56.5t-12.5 -69.5t12.5 -69.5t35 -56.5t54 -37.5t69.5 -13.5zM302 -8q-57 0 -104.5 20t-82 55t-54 82t-19.5 101t19.5 101t54 82t82 55t104.5 20
q56 0 103.5 -20t82 -55t54 -82t19.5 -101t-19.5 -101t-54 -82t-82 -55t-103.5 -20zM131 611l170 107l170 -107l-35 -58l-135 86l-136 -86z" />
    <glyph glyph-name="otilde" unicode="&#xf5;" horiz-adv-x="603" 
d="M302 73q38 0 69.5 13.5t54 37.5t34.5 56.5t12 69.5t-12 69.5t-34.5 56.5t-54 37.5t-69.5 13.5t-69.5 -13.5t-54 -37.5t-35 -56.5t-12.5 -69.5t12.5 -69.5t35 -56.5t54 -37.5t69.5 -13.5zM302 -8q-57 0 -104.5 20t-82 55t-54 82t-19.5 101t19.5 101t54 82t82 55t104.5 20
q56 0 103.5 -20t82 -55t54 -82t19.5 -101t-19.5 -101t-54 -82t-82 -55t-103.5 -20zM131 585q9 45 38.5 69.5t64.5 24.5q21 0 38.5 -7t33 -15l29 -15t25.5 -7q21 0 32 11t16 33h66l-3 -18q-8 -42 -36.5 -68t-66.5 -26q-21 0 -39 7t-33.5 15l-29 15t-26.5 7q-20 0 -30.5 -11
t-15.5 -34h-66z" />
    <glyph glyph-name="odieresis" unicode="&#xf6;" horiz-adv-x="603" 
d="M302 73q38 0 69.5 13.5t54 37.5t34.5 56.5t12 69.5t-12 69.5t-34.5 56.5t-54 37.5t-69.5 13.5t-69.5 -13.5t-54 -37.5t-35 -56.5t-12.5 -69.5t12.5 -69.5t35 -56.5t54 -37.5t69.5 -13.5zM302 -8q-57 0 -104.5 20t-82 55t-54 82t-19.5 101t19.5 101t54 82t82 55t104.5 20
q56 0 103.5 -20t82 -55t54 -82t19.5 -101t-19.5 -101t-54 -82t-82 -55t-103.5 -20zM188 571q-24 0 -42 17t-18 43q0 25 18 42t42 17q26 0 43.5 -17t17.5 -42q0 -26 -17.5 -43t-43.5 -17zM413 571q-25 0 -42.5 17t-17.5 43q0 25 17.5 42t42.5 17q26 0 43 -17t17 -42
q0 -26 -17 -43t-43 -17z" />
    <glyph glyph-name="divide" unicode="&#xf7;" horiz-adv-x="590" 
d="M295 69q-27 0 -47 19t-20 47t20 47t47 19q28 0 47 -19t19 -47t-19 -47t-47 -19zM76 310h438v-70h-438v70zM295 348q-27 0 -47 19.5t-20 47.5q0 27 20 46.5t47 19.5q28 0 47 -19.5t19 -46.5q0 -28 -19 -47.5t-47 -19.5z" />
    <glyph glyph-name="oslash" unicode="&#xf8;" horiz-adv-x="611" 
d="M43 34l56 57q-25 33 -38.5 73.5t-13.5 85.5q0 54 19.5 101t54 82t82 55t104.5 20q45 0 83.5 -12.5t70.5 -35.5l54 55l50 -50l-53 -54q26 -33 40 -74t14 -87q0 -54 -19.5 -101t-54 -82t-82 -55t-103.5 -20q-46 0 -86 13t-72 37l-56 -58zM307 73q38 0 69.5 13.5t54 37.5
t34.5 56.5t12 69.5q0 54 -27 98l-241 -246q20 -14 44.5 -21.5t53.5 -7.5zM136 250q0 -54 25 -96l241 245q-42 28 -95 28q-38 0 -69.5 -13.5t-54 -37.5t-35 -56.5t-12.5 -69.5z" />
    <glyph glyph-name="ugrave" unicode="&#xf9;" horiz-adv-x="578" 
d="M417 56q-29 -36 -69.5 -50t-84.5 -14q-43 0 -78.5 14.5t-61 40.5t-39.5 63.5t-14 84.5v305h86v-300q0 -55 33.5 -91t91.5 -36q52 0 86.5 26t49.5 74v327h86v-500h-86v56zM145 710h109l87 -165h-71z" />
    <glyph glyph-name="uacute" unicode="&#xfa;" horiz-adv-x="578" 
d="M417 56q-29 -36 -69.5 -50t-84.5 -14q-43 0 -78.5 14.5t-61 40.5t-39.5 63.5t-14 84.5v305h86v-300q0 -55 33.5 -91t91.5 -36q52 0 86.5 26t49.5 74v327h86v-500h-86v56zM317 710h109l-124 -165h-72z" />
    <glyph glyph-name="ucircumflex" unicode="&#xfb;" horiz-adv-x="578" 
d="M417 56q-29 -36 -69.5 -50t-84.5 -14q-43 0 -78.5 14.5t-61 40.5t-39.5 63.5t-14 84.5v305h86v-300q0 -55 33.5 -91t91.5 -36q52 0 86.5 26t49.5 74v327h86v-500h-86v56zM116 611l170 107l170 -107l-35 -58l-135 86l-136 -86z" />
    <glyph glyph-name="udieresis" unicode="&#xfc;" horiz-adv-x="578" 
d="M417 56q-29 -36 -69.5 -50t-84.5 -14q-43 0 -78.5 14.5t-61 40.5t-39.5 63.5t-14 84.5v305h86v-300q0 -55 33.5 -91t91.5 -36q52 0 86.5 26t49.5 74v327h86v-500h-86v56zM173 571q-24 0 -42 17t-18 43q0 25 18 42t42 17q26 0 43.5 -17t17.5 -42q0 -26 -17.5 -43
t-43.5 -17zM398 571q-25 0 -42.5 17t-17.5 43q0 25 17.5 42t42.5 17q26 0 43 -17t17 -42q0 -26 -17 -43t-43 -17z" />
    <glyph glyph-name="yacute" unicode="&#xfd;" horiz-adv-x="507" 
d="M210 42l-204 458h93l156 -364l157 364h93l-307 -684h-91zM306 710h109l-124 -165h-72z" />
    <glyph glyph-name="thorn" unicode="&#xfe;" 
d="M75 710h86v-260q31 29 71.5 43.5t87.5 14.5q55 0 102 -20t81 -54.5t53 -82t19 -101.5t-19 -101.5t-53 -82t-81 -54.5t-102 -20q-47 0 -87.5 14.5t-71.5 43.5v-234h-86v894zM318 427q-54 0 -95 -23t-62 -58v-192q21 -35 62 -58t95 -23q37 0 67.5 13.5t53 37.5t35 56.5
t12.5 69.5t-12.5 69.5t-35 56.5t-53 37.5t-67.5 13.5z" />
    <glyph glyph-name="ydieresis" unicode="&#xff;" horiz-adv-x="507" 
d="M210 42l-204 458h93l156 -364l157 364h93l-307 -684h-91zM149 571q-24 0 -42 17t-18 43q0 25 18 42t42 17q26 0 43.5 -17t17.5 -42q0 -26 -17.5 -43t-43.5 -17zM374 571q-25 0 -42.5 17t-17.5 43q0 25 17.5 42t42.5 17q26 0 43 -17t17 -42q0 -26 -17 -43t-43 -17z" />
    <glyph glyph-name="Abreve" unicode="&#x102;" horiz-adv-x="678" 
d="M339 718l346 -718h-98l-88 186h-320l-88 -186h-98zM219 270h240l-120 254zM337 772q-35 0 -63 11t-48.5 29.5t-32 43.5t-12.5 53h64q2 -31 26 -55t67 -24t67.5 24t26.5 55h64q-2 -28 -13.5 -53t-32 -43.5t-49 -29.5t-64.5 -11z" />
    <glyph glyph-name="Amacron" unicode="&#x100;" horiz-adv-x="678" 
d="M339 718l346 -718h-98l-88 186h-320l-88 -186h-98zM219 270h240l-120 254zM192 868h292v-65h-292v65z" />
    <glyph glyph-name="Aogonek" unicode="&#x104;" horiz-adv-x="678" 
d="M339 718l346 -718h-1q-31 -14 -53.5 -34.5t-22.5 -46.5q0 -25 15 -36.5t29 -11.5q8 0 17.5 3t15.5 8v-54q-27 -18 -61 -18q-19 0 -36.5 6.5t-31 19t-21.5 30t-8 39.5q0 29 17 55t43 40l-88 186h-320l-88 -186h-98zM219 270h240l-120 254z" />
    <glyph glyph-name="Cacute" unicode="&#x106;" horiz-adv-x="665" 
d="M409 -8q-76 0 -142.5 27.5t-115.5 76.5t-77 115.5t-28 143.5t28 143.5t77 115t115.5 76.5t142.5 28q67 0 125.5 -21t104.5 -63l-53 -69q-35 29 -79 47.5t-98 18.5q-58 0 -107.5 -21t-85.5 -58.5t-56.5 -88t-20.5 -108.5q0 -59 20.5 -109t56.5 -87.5t85.5 -58.5t107.5 -21
q54 0 98 18.5t79 47.5l53 -69q-46 -42 -104.5 -63t-125.5 -21zM421 913h108l-112 -145h-73z" />
    <glyph glyph-name="Ccaron" unicode="&#x10c;" horiz-adv-x="665" 
d="M409 -8q-76 0 -142.5 27.5t-115.5 76.5t-77 115.5t-28 143.5t28 143.5t77 115t115.5 76.5t142.5 28q67 0 125.5 -21t104.5 -63l-53 -69q-35 29 -79 47.5t-98 18.5q-58 0 -107.5 -21t-85.5 -58.5t-56.5 -88t-20.5 -108.5q0 -59 20.5 -109t56.5 -87.5t85.5 -58.5t107.5 -21
q54 0 98 18.5t79 47.5l53 -69q-46 -42 -104.5 -63t-125.5 -21zM235 866l35 60l138 -82l138 82l35 -60l-173 -100z" />
    <glyph glyph-name="Ccircumflex" unicode="&#x108;" horiz-adv-x="665" 
d="M409 -8q-76 0 -142.5 27.5t-115.5 76.5t-77 115.5t-28 143.5t28 143.5t77 115t115.5 76.5t142.5 28q67 0 125.5 -21t104.5 -63l-53 -69q-35 29 -79 47.5t-98 18.5q-58 0 -107.5 -21t-85.5 -58.5t-56.5 -88t-20.5 -108.5q0 -59 20.5 -109t56.5 -87.5t85.5 -58.5t107.5 -21
q54 0 98 18.5t79 47.5l53 -69q-46 -42 -104.5 -63t-125.5 -21zM235 826l173 100l173 -100l-35 -60l-138 82l-138 -82z" />
    <glyph glyph-name="Cdotaccent" unicode="&#x10a;" horiz-adv-x="665" 
d="M409 -8q-76 0 -142.5 27.5t-115.5 76.5t-77 115.5t-28 143.5t28 143.5t77 115t115.5 76.5t142.5 28q67 0 125.5 -21t104.5 -63l-53 -69q-35 29 -79 47.5t-98 18.5q-58 0 -107.5 -21t-85.5 -58.5t-56.5 -88t-20.5 -108.5q0 -59 20.5 -109t56.5 -87.5t85.5 -58.5t107.5 -21
q54 0 98 18.5t79 47.5l53 -69q-46 -42 -104.5 -63t-125.5 -21zM409 780q-25 0 -43.5 18.5t-18.5 45.5q0 26 18.5 44t43.5 18q27 0 45.5 -18t18.5 -44q0 -27 -18.5 -45.5t-45.5 -18.5z" />
    <glyph glyph-name="Dcaron" unicode="&#x10e;" horiz-adv-x="731" 
d="M306 85q64 0 117 20.5t90.5 56.5t58 85.5t20.5 107.5t-20.5 107.5t-58 85.5t-90.5 56.5t-117 20.5h-120v-540h120zM95 710h211q82 0 151.5 -27t120 -74.5t79 -112.5t28.5 -141t-28.5 -141t-79 -112.5t-120 -74.5t-151.5 -27h-211v710zM156 866l35 60l138 -82l138 82
l35 -60l-173 -100z" />
    <glyph glyph-name="Dcroat" unicode="&#x110;" horiz-adv-x="759" 
d="M15 399h108v311h211q82 0 151.5 -27t120 -74.5t79 -112.5t28.5 -141t-28.5 -141t-79 -112.5t-120 -74.5t-151.5 -27h-211v312h-108v87zM334 85q64 0 117 20.5t90.5 56.5t58 85.5t20.5 107.5t-20.5 107.5t-58 85.5t-90.5 56.5t-117 20.5h-120v-226h134v-87h-134v-227h120z
" />
    <glyph glyph-name="Ebreve" unicode="&#x114;" horiz-adv-x="555" 
d="M95 710h410v-88h-319v-215h259v-88h-259v-231h319v-88h-410v710zM298 772q-35 0 -63 11t-48.5 29.5t-32 43.5t-12.5 53h64q2 -31 26 -55t67 -24t67.5 24t26.5 55h64q-2 -28 -13.5 -53t-32 -43.5t-49 -29.5t-64.5 -11z" />
    <glyph glyph-name="Ecaron" unicode="&#x11a;" horiz-adv-x="555" 
d="M95 710h410v-88h-319v-215h259v-88h-259v-231h319v-88h-410v710zM126 866l35 60l138 -82l138 82l35 -60l-173 -100z" />
    <glyph glyph-name="Emacron" unicode="&#x112;" horiz-adv-x="555" 
d="M95 710h410v-88h-319v-215h259v-88h-259v-231h319v-88h-410v710zM153 868h292v-65h-292v65z" />
    <glyph glyph-name="Eogonek" unicode="&#x118;" horiz-adv-x="555" 
d="M95 710h410v-88h-319v-215h259v-88h-259v-231h319v-88h-1q-42 -18 -63.5 -40t-21.5 -44q0 -17 13 -28.5t37 -11.5q11 0 20.5 2.5t15.5 4.5v-59q-27 -13 -64 -13q-22 0 -41.5 6t-34.5 17.5t-23.5 28t-8.5 37.5q0 32 24 60t55 40h-317v710z" />
    <glyph glyph-name="Edotaccent" unicode="&#x116;" horiz-adv-x="555" 
d="M95 710h410v-88h-319v-215h259v-88h-259v-231h319v-88h-410v710zM302 780q-25 0 -43.5 18.5t-18.5 45.5q0 26 18.5 44t43.5 18q27 0 45.5 -18t18.5 -44q0 -27 -18.5 -45.5t-45.5 -18.5z" />
    <glyph glyph-name="Gbreve" unicode="&#x11e;" horiz-adv-x="724" 
d="M409 -8q-76 0 -142.5 27.5t-115.5 76.5t-77 115.5t-28 143.5t28 143.5t77 115t115.5 76.5t142.5 28q72 0 135.5 -22.5t111.5 -67.5l-56 -68q-35 33 -84.5 52t-106.5 19q-58 0 -107.5 -21t-85.5 -58.5t-56.5 -88t-20.5 -108.5q0 -59 20.5 -109t56.5 -87.5t85.5 -58.5
t107.5 -21q43 0 85.5 9.5t75.5 29.5v201h-198l39 88h250v-335q-50 -38 -116 -59t-136 -21zM407 772q-35 0 -63 11t-48.5 29.5t-32 43.5t-12.5 53h64q2 -31 26 -55t67 -24t67.5 24t26.5 55h64q-2 -28 -13.5 -53t-32 -43.5t-49 -29.5t-64.5 -11z" />
    <glyph glyph-name="Gcircumflex" unicode="&#x11c;" horiz-adv-x="724" 
d="M409 -8q-76 0 -142.5 27.5t-115.5 76.5t-77 115.5t-28 143.5t28 143.5t77 115t115.5 76.5t142.5 28q72 0 135.5 -22.5t111.5 -67.5l-56 -68q-35 33 -84.5 52t-106.5 19q-58 0 -107.5 -21t-85.5 -58.5t-56.5 -88t-20.5 -108.5q0 -59 20.5 -109t56.5 -87.5t85.5 -58.5
t107.5 -21q43 0 85.5 9.5t75.5 29.5v201h-198l39 88h250v-335q-50 -38 -116 -59t-136 -21zM236 826l173 100l173 -100l-35 -60l-138 82l-138 -82z" />
    <glyph glyph-name="Gcommaaccent" unicode="&#x122;" horiz-adv-x="724" 
d="M360 -50h100l-109 -179h-65zM409 -8q-76 0 -142.5 27.5t-115.5 76.5t-77 115.5t-28 143.5t28 143.5t77 115t115.5 76.5t142.5 28q72 0 135.5 -22.5t111.5 -67.5l-56 -68q-35 33 -84.5 52t-106.5 19q-58 0 -107.5 -21t-85.5 -58.5t-56.5 -88t-20.5 -108.5q0 -59 20.5 -109
t56.5 -87.5t85.5 -58.5t107.5 -21q43 0 85.5 9.5t75.5 29.5v201h-198l39 88h250v-335q-50 -38 -116 -59t-136 -21z" />
    <glyph glyph-name="Gdotaccent" unicode="&#x120;" horiz-adv-x="724" 
d="M409 -8q-76 0 -142.5 27.5t-115.5 76.5t-77 115.5t-28 143.5t28 143.5t77 115t115.5 76.5t142.5 28q72 0 135.5 -22.5t111.5 -67.5l-56 -68q-35 33 -84.5 52t-106.5 19q-58 0 -107.5 -21t-85.5 -58.5t-56.5 -88t-20.5 -108.5q0 -59 20.5 -109t56.5 -87.5t85.5 -58.5
t107.5 -21q43 0 85.5 9.5t75.5 29.5v201h-198l39 88h250v-335q-50 -38 -116 -59t-136 -21zM408 780q-25 0 -43.5 18.5t-18.5 45.5q0 26 18.5 44t43.5 18q27 0 45.5 -18t18.5 -44q0 -27 -18.5 -45.5t-45.5 -18.5z" />
    <glyph glyph-name="Hbar" unicode="&#x126;" horiz-adv-x="770" 
d="M35 602h63v108h91v-108h392v108h91v-108h63v-88h-63v-514h-91v319h-392v-319h-91v514h-63v88zM581 407v107h-392v-107h392z" />
    <glyph glyph-name="Hcircumflex" unicode="&#x124;" horiz-adv-x="764" 
d="M95 710h91v-303h392v303h91v-710h-91v319h-392v-319h-91v710zM209 826l173 100l173 -100l-35 -60l-138 82l-138 -82z" />
    <glyph glyph-name="Ibreve" unicode="&#x12c;" horiz-adv-x="281" 
d="M95 710h91v-710h-91v710zM140 772q-35 0 -63 11t-48.5 29.5t-32 43.5t-12.5 53h64q2 -31 26 -55t67 -24t67.5 24t26.5 55h64q-2 -28 -13.5 -53t-32 -43.5t-49 -29.5t-64.5 -11z" />
    <glyph glyph-name="Idotaccent" unicode="&#x130;" horiz-adv-x="281" 
d="M95 710h91v-710h-91v710zM139 780q-25 0 -43.5 18.5t-18.5 45.5q0 26 18.5 44t43.5 18q27 0 45.5 -18t18.5 -44q0 -27 -18.5 -45.5t-45.5 -18.5z" />
    <glyph glyph-name="Imacron" unicode="&#x12a;" horiz-adv-x="281" 
d="M95 710h91v-710h-91v710zM-5 868h292v-65h-292v65z" />
    <glyph glyph-name="Iogonek" unicode="&#x12e;" horiz-adv-x="281" 
d="M130 -190q-19 0 -36.5 6.5t-31 19t-21.5 30t-8 39.5q0 29 18 55t44 40v710h91v-710q-31 -14 -51.5 -34.5t-20.5 -46.5q0 -25 15 -36.5t29 -11.5q8 0 17.5 3t15.5 8v-54q-27 -18 -61 -18z" />
    <glyph glyph-name="Itilde" unicode="&#x128;" horiz-adv-x="281" 
d="M95 710h91v-710h-91v710zM210 783q-21 0 -39 7t-33.5 15l-29 15t-26.5 7q-20 0 -30.5 -10.5t-15.5 -32.5h-69l4 18q4 23 14.5 41t25 30t31.5 18.5t34 6.5q21 0 38.5 -7t33 -15l29 -15t25.5 -7q21 0 32 10t16 33h68l-3 -18q-8 -45 -38 -70.5t-67 -25.5z" />
    <glyph glyph-name="uni1ECA" unicode="&#x1eca;" horiz-adv-x="281" 
d="M95 710h91v-710h-91v710zM140 -192q-26 0 -44 18t-18 44t18 43.5t44 17.5t44 -17.5t18 -43.5t-18 -44t-44 -18z" />
    <glyph glyph-name="Jcircumflex" unicode="&#x134;" horiz-adv-x="523" 
d="M228 -8q-43 0 -80.5 13.5t-65.5 39.5t-44.5 64.5t-16.5 88.5h91q0 -30 9 -52.5t25 -37t36.5 -22t44.5 -7.5q51 0 84 29t33 90v512h91v-518q0 -50 -16.5 -87.5t-45 -62.5t-66 -37.5t-79.5 -12.5zM216 826l173 100l173 -100l-35 -60l-138 82l-138 -82z" />
    <glyph glyph-name="Kcommaaccent" unicode="&#x136;" horiz-adv-x="641" 
d="M287 -50h100l-109 -179h-65zM95 710h91v-356l324 356h112l-328 -361l355 -349h-121l-342 337v-337h-91v710z" />
    <glyph glyph-name="Lacute" unicode="&#x139;" horiz-adv-x="514" 
d="M95 710h91v-621h311v-89h-402v710zM181 913h108l-112 -145h-73z" />
    <glyph glyph-name="Lcaron" unicode="&#x13d;" horiz-adv-x="515" 
d="M95 710h91v-621h311v-89h-402v710zM290 710h87l-51 -165h-61z" />
    <glyph glyph-name="Lcommaaccent" unicode="&#x13b;" horiz-adv-x="514" 
d="M240 -50h100l-109 -179h-65zM95 710h91v-621h311v-89h-402v710z" />
    <glyph glyph-name="Ldot" unicode="&#x13f;" horiz-adv-x="520" 
d="M381 339q-26 0 -44 18t-18 44t18 43.5t44 17.5t44 -17.5t18 -43.5t-18 -44t-44 -18zM95 710h91v-621h311v-89h-402v710z" />
    <glyph glyph-name="Lslash" unicode="&#x141;" horiz-adv-x="561" 
d="M16 268l124 81v361h91v-302l168 110l42 -71l-210 -137v-221h311v-89h-402v250l-82 -53z" />
    <glyph glyph-name="Nacute" unicode="&#x143;" horiz-adv-x="787" 
d="M186 505v-505h-91v718l506 -513v505h91v-718zM409 913h108l-112 -145h-73z" />
    <glyph glyph-name="Ncaron" unicode="&#x147;" horiz-adv-x="787" 
d="M186 505v-505h-91v718l506 -513v505h91v-718zM220 866l35 60l138 -82l138 82l35 -60l-173 -100z" />
    <glyph glyph-name="Ncommaaccent" unicode="&#x145;" horiz-adv-x="787" 
d="M362 -50h100l-109 -179h-65zM186 505v-505h-91v718l506 -513v505h91v-718z" />
    <glyph glyph-name="OE" unicode="&#x152;" horiz-adv-x="1077" 
d="M409 -8q-76 0 -142.5 27.5t-115.5 76.5t-77 115.5t-28 143.5t28 143.5t77 115t115.5 76.5t142.5 28q58 0 110 -16.5t97 -46.5v55h411v-88h-324v-51q26 -35 42.5 -76.5t22.5 -87.5h198v-88h-196q-5 -51 -22 -97t-45 -84v-50h324v-88h-411v54q-45 -29 -97 -45.5t-110 -16.5
zM409 79q58 0 107.5 21t85.5 58.5t56.5 87.5t20.5 109q0 58 -20.5 108.5t-56.5 88t-85.5 58.5t-107.5 21t-107.5 -21t-85.5 -58.5t-56.5 -88t-20.5 -108.5q0 -59 20.5 -109t56.5 -87.5t85.5 -58.5t107.5 -21z" />
    <glyph glyph-name="Obreve" unicode="&#x14e;" horiz-adv-x="818" 
d="M409 79q58 0 107.5 21t85.5 58.5t56.5 87.5t20.5 109q0 58 -20.5 108.5t-56.5 88t-85.5 58.5t-107.5 21t-107.5 -21t-85.5 -58.5t-56.5 -88t-20.5 -108.5q0 -59 20.5 -109t56.5 -87.5t85.5 -58.5t107.5 -21zM409 -8q-76 0 -142.5 27.5t-115.5 76.5t-77 115.5t-28 143.5
t28 143.5t77 115t115.5 76.5t142.5 28t142.5 -28t115.5 -76.5t77 -115t28 -143.5t-28 -143.5t-77 -115.5t-115.5 -76.5t-142.5 -27.5zM407 772q-35 0 -63 11t-48.5 29.5t-32 43.5t-12.5 53h64q2 -31 26 -55t67 -24t67.5 24t26.5 55h64q-2 -28 -13.5 -53t-32 -43.5t-49 -29.5
t-64.5 -11z" />
    <glyph glyph-name="Ohungarumlaut" unicode="&#x150;" horiz-adv-x="818" 
d="M409 79q58 0 107.5 21t85.5 58.5t56.5 87.5t20.5 109q0 58 -20.5 108.5t-56.5 88t-85.5 58.5t-107.5 21t-107.5 -21t-85.5 -58.5t-56.5 -88t-20.5 -108.5q0 -59 20.5 -109t56.5 -87.5t85.5 -58.5t107.5 -21zM409 -8q-76 0 -142.5 27.5t-115.5 76.5t-77 115.5t-28 143.5
t28 143.5t77 115t115.5 76.5t142.5 28t142.5 -28t115.5 -76.5t77 -115t28 -143.5t-28 -143.5t-77 -115.5t-115.5 -76.5t-142.5 -27.5zM336 913h104l-113 -145h-68zM536 913h104l-113 -145h-68z" />
    <glyph glyph-name="Omacron" unicode="&#x14c;" horiz-adv-x="818" 
d="M409 79q58 0 107.5 21t85.5 58.5t56.5 87.5t20.5 109q0 58 -20.5 108.5t-56.5 88t-85.5 58.5t-107.5 21t-107.5 -21t-85.5 -58.5t-56.5 -88t-20.5 -108.5q0 -59 20.5 -109t56.5 -87.5t85.5 -58.5t107.5 -21zM409 -8q-76 0 -142.5 27.5t-115.5 76.5t-77 115.5t-28 143.5
t28 143.5t77 115t115.5 76.5t142.5 28t142.5 -28t115.5 -76.5t77 -115t28 -143.5t-28 -143.5t-77 -115.5t-115.5 -76.5t-142.5 -27.5zM262 868h292v-65h-292v65z" />
    <glyph glyph-name="uni1ECC" unicode="&#x1ecc;" horiz-adv-x="818" 
d="M409 79q58 0 107.5 21t85.5 58.5t56.5 87.5t20.5 109q0 58 -20.5 108.5t-56.5 88t-85.5 58.5t-107.5 21t-107.5 -21t-85.5 -58.5t-56.5 -88t-20.5 -108.5q0 -59 20.5 -109t56.5 -87.5t85.5 -58.5t107.5 -21zM409 -8q-76 0 -142.5 27.5t-115.5 76.5t-77 115.5t-28 143.5
t28 143.5t77 115t115.5 76.5t142.5 28t142.5 -28t115.5 -76.5t77 -115t28 -143.5t-28 -143.5t-77 -115.5t-115.5 -76.5t-142.5 -27.5zM409 -192q-26 0 -44 18t-18 44t18 43.5t44 17.5t44 -17.5t18 -43.5t-18 -44t-44 -18z" />
    <glyph glyph-name="Racute" unicode="&#x154;" horiz-adv-x="619" 
d="M264 310h-78v-310h-91v710h211q52 0 94 -14t72 -40.5t46 -63.5t16 -82q0 -76 -45 -127.5t-123 -66.5l245 -316h-110zM300 391q70 0 105 31t35 86q0 56 -35 87t-105 31h-114v-235h114zM306 913h108l-112 -145h-73z" />
    <glyph glyph-name="Rcaron" unicode="&#x158;" horiz-adv-x="619" 
d="M264 310h-78v-310h-91v710h211q52 0 94 -14t72 -40.5t46 -63.5t16 -82q0 -76 -45 -127.5t-123 -66.5l245 -316h-110zM300 391q70 0 105 31t35 86q0 56 -35 87t-105 31h-114v-235h114zM117 866l35 60l138 -82l138 82l35 -60l-173 -100z" />
    <glyph glyph-name="Rcommaaccent" unicode="&#x156;" horiz-adv-x="619" 
d="M269 -50h100l-109 -179h-65zM264 310h-78v-310h-91v710h211q52 0 94 -14t72 -40.5t46 -63.5t16 -82q0 -76 -45 -127.5t-123 -66.5l245 -316h-110zM300 391q70 0 105 31t35 86q0 56 -35 87t-105 31h-114v-235h114z" />
    <glyph glyph-name="Sacute" unicode="&#x15a;" horiz-adv-x="528" 
d="M263 -8q-78 0 -138.5 32.5t-92.5 77.5l69 60q26 -33 67.5 -58t93.5 -25q62 0 98 26.5t36 73.5q0 49 -29.5 78t-86.5 54l-65 28q-81 35 -118 84.5t-37 116.5q0 40 17.5 73t46.5 56.5t66.5 36t76.5 12.5q63 0 113 -23.5t86 -67.5l-64 -64q-28 33 -59.5 50.5t-78.5 17.5
q-23 0 -43 -6t-36 -18t-25 -29.5t-9 -39.5q0 -39 24 -67t81 -53l65 -28q36 -16 66.5 -35t53 -43.5t35 -55t12.5 -67.5q0 -44 -15.5 -80t-45 -62t-71 -40.5t-93.5 -14.5zM296 913h108l-112 -145h-73z" />
    <glyph glyph-name="Scaron" unicode="&#x160;" horiz-adv-x="528" 
d="M263 -8q-78 0 -138.5 32.5t-92.5 77.5l69 60q26 -33 67.5 -58t93.5 -25q62 0 98 26.5t36 73.5q0 49 -29.5 78t-86.5 54l-65 28q-81 35 -118 84.5t-37 116.5q0 40 17.5 73t46.5 56.5t66.5 36t76.5 12.5q63 0 113 -23.5t86 -67.5l-64 -64q-28 33 -59.5 50.5t-78.5 17.5
q-23 0 -43 -6t-36 -18t-25 -29.5t-9 -39.5q0 -39 24 -67t81 -53l65 -28q36 -16 66.5 -35t53 -43.5t35 -55t12.5 -67.5q0 -44 -15.5 -80t-45 -62t-71 -40.5t-93.5 -14.5zM96 866l35 60l138 -82l138 82l35 -60l-173 -100z" />
    <glyph glyph-name="Scedilla" unicode="&#x15e;" horiz-adv-x="528" 
d="M241 -7q-70 5 -125 36t-84 73l69 60q26 -33 67.5 -58t93.5 -25q62 0 98 26.5t36 73.5q0 49 -29.5 78t-86.5 54l-65 28q-81 35 -118 84.5t-37 116.5q0 40 17.5 73t46.5 56.5t66.5 36t76.5 12.5q63 0 113 -23.5t86 -67.5l-64 -64q-28 33 -59.5 50.5t-78.5 17.5
q-23 0 -43 -6t-36 -18t-25 -29.5t-9 -39.5q0 -39 24 -67t81 -53l65 -28q36 -16 66.5 -35t53 -43.5t35 -55t12.5 -67.5q0 -79 -49 -131.5t-137 -62.5l-36 -130h-98z" />
    <glyph glyph-name="Scircumflex" unicode="&#x15c;" horiz-adv-x="528" 
d="M263 -8q-78 0 -138.5 32.5t-92.5 77.5l69 60q26 -33 67.5 -58t93.5 -25q62 0 98 26.5t36 73.5q0 49 -29.5 78t-86.5 54l-65 28q-81 35 -118 84.5t-37 116.5q0 40 17.5 73t46.5 56.5t66.5 36t76.5 12.5q63 0 113 -23.5t86 -67.5l-64 -64q-28 33 -59.5 50.5t-78.5 17.5
q-23 0 -43 -6t-36 -18t-25 -29.5t-9 -39.5q0 -39 24 -67t81 -53l65 -28q36 -16 66.5 -35t53 -43.5t35 -55t12.5 -67.5q0 -44 -15.5 -80t-45 -62t-71 -40.5t-93.5 -14.5zM96 826l173 100l173 -100l-35 -60l-138 82l-138 -82z" />
    <glyph glyph-name="Scommaaccent" unicode="&#x218;" horiz-adv-x="528" 
d="M218 -50h100l-109 -179h-65zM263 -8q-78 0 -138.5 32.5t-92.5 77.5l69 60q26 -33 67.5 -58t93.5 -25q62 0 98 26.5t36 73.5q0 49 -29.5 78t-86.5 54l-65 28q-81 35 -118 84.5t-37 116.5q0 40 17.5 73t46.5 56.5t66.5 36t76.5 12.5q63 0 113 -23.5t86 -67.5l-64 -64
q-28 33 -59.5 50.5t-78.5 17.5q-23 0 -43 -6t-36 -18t-25 -29.5t-9 -39.5q0 -39 24 -67t81 -53l65 -28q36 -16 66.5 -35t53 -43.5t35 -55t12.5 -67.5q0 -44 -15.5 -80t-45 -62t-71 -40.5t-93.5 -14.5z" />
    <glyph glyph-name="Tcaron" unicode="&#x164;" horiz-adv-x="526" 
d="M217 622h-201v88h494v-88h-202v-622h-91v622zM90 866l35 60l138 -82l138 82l35 -60l-173 -100z" />
    <glyph glyph-name="Tcommaaccent" unicode="&#x162;" horiz-adv-x="526" 
d="M214 -50h100l-109 -179h-65zM217 622h-201v88h494v-88h-202v-622h-91v622z" />
    <glyph glyph-name="uni021A" unicode="&#x21a;" horiz-adv-x="526" 
d="M214 -50h100l-109 -179h-65zM217 622h-201v88h494v-88h-202v-622h-91v622z" />
    <glyph glyph-name="Ubreve" unicode="&#x16c;" horiz-adv-x="738" 
d="M369 -8q-62 0 -114 19t-89.5 55t-58.5 87.5t-21 116.5v440h91v-444q0 -46 14 -81t39.5 -58.5t60.5 -35.5t78 -12t78 12t60.5 35.5t39.5 58.5t14 81v444h91v-440q0 -65 -21 -116.5t-58.5 -87.5t-89.5 -55t-114 -19zM367 772q-35 0 -63 11t-48.5 29.5t-32 43.5t-12.5 53h64
q2 -31 26 -55t67 -24t67.5 24t26.5 55h64q-2 -28 -13.5 -53t-32 -43.5t-49 -29.5t-64.5 -11z" />
    <glyph glyph-name="Uhungarumlaut" unicode="&#x170;" horiz-adv-x="738" 
d="M369 -8q-62 0 -114 19t-89.5 55t-58.5 87.5t-21 116.5v440h91v-444q0 -46 14 -81t39.5 -58.5t60.5 -35.5t78 -12t78 12t60.5 35.5t39.5 58.5t14 81v444h91v-440q0 -65 -21 -116.5t-58.5 -87.5t-89.5 -55t-114 -19zM296 913h104l-113 -145h-68zM496 913h104l-113 -145h-68
z" />
    <glyph glyph-name="Umacron" unicode="&#x16a;" horiz-adv-x="738" 
d="M369 -8q-62 0 -114 19t-89.5 55t-58.5 87.5t-21 116.5v440h91v-444q0 -46 14 -81t39.5 -58.5t60.5 -35.5t78 -12t78 12t60.5 35.5t39.5 58.5t14 81v444h91v-440q0 -65 -21 -116.5t-58.5 -87.5t-89.5 -55t-114 -19zM222 868h292v-65h-292v65z" />
    <glyph glyph-name="Uogonek" unicode="&#x172;" horiz-adv-x="738" 
d="M391 -189q-22 0 -41.5 6t-34.5 17.5t-23.5 28t-8.5 37.5q0 28 18.5 53t44.5 40q-57 3 -105 23.5t-82.5 56t-53.5 85.5t-19 112v440h91v-444q0 -46 14 -81t39.5 -58.5t60.5 -35.5t78 -12t78 12t60.5 35.5t39.5 58.5t14 81v444h91v-440q0 -55 -15 -100.5t-42.5 -80
t-66.5 -57t-86 -32.5q-36 -18 -54.5 -41t-18.5 -43q0 -17 13 -28.5t37 -11.5q11 0 20.5 2.5t15.5 4.5v-59q-27 -13 -64 -13z" />
    <glyph glyph-name="Uring" unicode="&#x16e;" horiz-adv-x="738" 
d="M369 -8q-62 0 -114 19t-89.5 55t-58.5 87.5t-21 116.5v440h91v-444q0 -46 14 -81t39.5 -58.5t60.5 -35.5t78 -12t78 12t60.5 35.5t39.5 58.5t14 81v444h91v-440q0 -65 -21 -116.5t-58.5 -87.5t-89.5 -55t-114 -19zM368 798q20 0 34 13t14 34t-14 34.5t-34 13.5t-34 -13.5
t-14 -34.5t14 -34t34 -13zM368 751q-42 0 -70.5 26.5t-28.5 67.5q0 42 29 68.5t70 26.5t70 -26.5t29 -68.5q0 -41 -28.5 -67.5t-70.5 -26.5z" />
    <glyph glyph-name="Utilde" unicode="&#x168;" horiz-adv-x="738" 
d="M369 -8q-62 0 -114 19t-89.5 55t-58.5 87.5t-21 116.5v440h91v-444q0 -46 14 -81t39.5 -58.5t60.5 -35.5t78 -12t78 12t60.5 35.5t39.5 58.5t14 81v444h91v-440q0 -65 -21 -116.5t-58.5 -87.5t-89.5 -55t-114 -19zM437 783q-21 0 -39 7t-33.5 15l-29 15t-26.5 7
q-20 0 -30.5 -10.5t-15.5 -32.5h-69l4 18q4 23 14.5 41t25 30t31.5 18.5t34 6.5q21 0 38.5 -7t33 -15l29 -15t25.5 -7q21 0 32 10t16 33h68l-3 -18q-8 -45 -38 -70.5t-67 -25.5z" />
    <glyph glyph-name="uni1EE4" unicode="&#x1ee4;" horiz-adv-x="738" 
d="M369 -8q-62 0 -114 19t-89.5 55t-58.5 87.5t-21 116.5v440h91v-444q0 -46 14 -81t39.5 -58.5t60.5 -35.5t78 -12t78 12t60.5 35.5t39.5 58.5t14 81v444h91v-440q0 -65 -21 -116.5t-58.5 -87.5t-89.5 -55t-114 -19zM369 -192q-26 0 -44 18t-18 44t18 43.5t44 17.5
t44 -17.5t18 -43.5t-18 -44t-44 -18z" />
    <glyph glyph-name="Wacute" unicode="&#x1e82;" horiz-adv-x="889" 
d="M8 710h94l157 -474l185 482l186 -482l157 474h94l-244 -718l-193 501l-192 -501zM485 913h108l-112 -145h-73z" />
    <glyph glyph-name="Wcircumflex" unicode="&#x174;" horiz-adv-x="889" 
d="M8 710h94l157 -474l185 482l186 -482l157 474h94l-244 -718l-193 501l-192 -501zM271 826l173 100l173 -100l-35 -60l-138 82l-138 -82z" />
    <glyph glyph-name="Wdieresis" unicode="&#x1e84;" horiz-adv-x="889" 
d="M8 710h94l157 -474l185 482l186 -482l157 474h94l-244 -718l-193 501l-192 -501zM331 782q-24 0 -42.5 18t-18.5 44q0 25 18.5 42.5t42.5 17.5q26 0 44 -17.5t18 -42.5q0 -26 -18 -44t-44 -18zM556 782q-25 0 -43 18t-18 44q0 25 18 42.5t43 17.5q26 0 44 -17.5t18 -42.5
q0 -26 -18 -44t-44 -18z" />
    <glyph glyph-name="Wgrave" unicode="&#x1e80;" horiz-adv-x="889" 
d="M8 710h94l157 -474l185 482l186 -482l157 474h94l-244 -718l-193 501l-192 -501zM294 913h109l77 -145h-73z" />
    <glyph glyph-name="Ycircumflex" unicode="&#x176;" horiz-adv-x="628" 
d="M268 301l-260 409h106l200 -320l200 320h106l-260 -409v-301h-92v301zM141 826l173 100l173 -100l-35 -60l-138 82l-138 -82z" />
    <glyph glyph-name="Ydieresis" unicode="&#x178;" horiz-adv-x="628" 
d="M268 301l-260 409h106l200 -320l200 320h106l-260 -409v-301h-92v301zM201 782q-24 0 -42.5 18t-18.5 44q0 25 18.5 42.5t42.5 17.5q26 0 44 -17.5t18 -42.5q0 -26 -18 -44t-44 -18zM426 782q-25 0 -43 18t-18 44q0 25 18 42.5t43 17.5q26 0 44 -17.5t18 -42.5
q0 -26 -18 -44t-44 -18z" />
    <glyph glyph-name="Ygrave" unicode="&#x1ef2;" horiz-adv-x="628" 
d="M268 301l-260 409h106l200 -320l200 320h106l-260 -409v-301h-92v301zM175 913h109l77 -145h-73z" />
    <glyph glyph-name="uni0232" unicode="&#x232;" horiz-adv-x="628" 
d="M268 301l-260 409h106l200 -320l200 320h106l-260 -409v-301h-92v301zM167 868h292v-65h-292v65z" />
    <glyph glyph-name="Zacute" unicode="&#x179;" horiz-adv-x="593" 
d="M404 622h-352v88h508l-395 -622h397v-88h-553zM318 913h108l-112 -145h-73z" />
    <glyph glyph-name="Zcaron" unicode="&#x17d;" horiz-adv-x="593" 
d="M404 622h-352v88h508l-395 -622h397v-88h-553zM133 866l35 60l138 -82l138 82l35 -60l-173 -100z" />
    <glyph glyph-name="Zdotaccent" unicode="&#x17b;" horiz-adv-x="593" 
d="M404 622h-352v88h508l-395 -622h397v-88h-553zM306 780q-25 0 -43.5 18.5t-18.5 45.5q0 26 18.5 44t43.5 18q27 0 45.5 -18t18.5 -44q0 -27 -18.5 -45.5t-45.5 -18.5z" />
    <glyph glyph-name="abreve" unicode="&#x103;" 
d="M456 50q-32 -29 -72.5 -43.5t-86.5 -14.5q-55 0 -102 20t-81 54.5t-53 82t-19 101.5t19 101.5t53 82t81 54.5t102 20q46 0 86.5 -14.5t72.5 -43.5v50h86v-500h-86v50zM299 73q54 0 94.5 23t62.5 58v192q-22 35 -62.5 58t-94.5 23q-37 0 -67.5 -13.5t-53 -37.5t-35 -56.5
t-12.5 -69.5t12.5 -69.5t35 -56.5t53 -37.5t67.5 -13.5zM316 573q-35 0 -63 11t-48.5 29.5t-32 43.5t-12.5 53h64q2 -31 26 -55t67 -24t67.5 24t26.5 55h64q-2 -28 -13.5 -53t-32 -43.5t-49 -29.5t-64.5 -11z" />
    <glyph glyph-name="amacron" unicode="&#x101;" 
d="M456 50q-32 -29 -72.5 -43.5t-86.5 -14.5q-55 0 -102 20t-81 54.5t-53 82t-19 101.5t19 101.5t53 82t81 54.5t102 20q46 0 86.5 -14.5t72.5 -43.5v50h86v-500h-86v50zM299 73q54 0 94.5 23t62.5 58v192q-22 35 -62.5 58t-94.5 23q-37 0 -67.5 -13.5t-53 -37.5t-35 -56.5
t-12.5 -69.5t12.5 -69.5t35 -56.5t53 -37.5t67.5 -13.5zM171 679h292v-65h-292v65z" />
    <glyph glyph-name="aogonek" unicode="&#x105;" 
d="M456 50q-32 -29 -72.5 -43.5t-86.5 -14.5q-55 0 -102 20t-81 54.5t-53 82t-19 101.5t19 101.5t53 82t81 54.5t102 20q46 0 86.5 -14.5t72.5 -43.5v50h86v-500q-30 -14 -50 -36t-20 -45t14.5 -35.5t28.5 -12.5q8 0 15.5 3t13.5 8v-54q-22 -18 -58 -18q-17 0 -33.5 6.5
t-29.5 19t-21 30t-8 39.5q0 29 18 55t44 40v50zM299 73q54 0 94.5 23t62.5 58v192q-22 35 -62.5 58t-94.5 23q-37 0 -67.5 -13.5t-53 -37.5t-35 -56.5t-12.5 -69.5t12.5 -69.5t35 -56.5t53 -37.5t67.5 -13.5z" />
    <glyph glyph-name="cacute" unicode="&#x107;" horiz-adv-x="518" 
d="M299 -8q-56 0 -103 20t-81 55t-53.5 82t-19.5 101t19.5 101t53.5 82t81 55t103 20q63 0 110.5 -22.5t80.5 -56.5l-55 -60q-24 24 -57.5 41t-78.5 17q-37 0 -67.5 -13.5t-53 -37.5t-35 -56.5t-12.5 -69.5t12.5 -69.5t35 -56.5t53 -37.5t67.5 -13.5q45 0 78.5 17t57.5 41
l55 -60q-33 -34 -80.5 -56.5t-110.5 -22.5zM331 710h109l-124 -165h-72z" />
    <glyph glyph-name="ccaron" unicode="&#x10d;" horiz-adv-x="518" 
d="M299 -8q-56 0 -103 20t-81 55t-53.5 82t-19.5 101t19.5 101t53.5 82t81 55t103 20q63 0 110.5 -22.5t80.5 -56.5l-55 -60q-24 24 -57.5 41t-78.5 17q-37 0 -67.5 -13.5t-53 -37.5t-35 -56.5t-12.5 -69.5t12.5 -69.5t35 -56.5t53 -37.5t67.5 -13.5q45 0 78.5 17t57.5 41
l55 -60q-33 -34 -80.5 -56.5t-110.5 -22.5zM299 569l-170 107l34 58l136 -86l135 86l35 -58z" />
    <glyph glyph-name="ccircumflex" unicode="&#x109;" horiz-adv-x="518" 
d="M299 -8q-56 0 -103 20t-81 55t-53.5 82t-19.5 101t19.5 101t53.5 82t81 55t103 20q63 0 110.5 -22.5t80.5 -56.5l-55 -60q-24 24 -57.5 41t-78.5 17q-37 0 -67.5 -13.5t-53 -37.5t-35 -56.5t-12.5 -69.5t12.5 -69.5t35 -56.5t53 -37.5t67.5 -13.5q45 0 78.5 17t57.5 41
l55 -60q-33 -34 -80.5 -56.5t-110.5 -22.5zM130 611l170 107l170 -107l-35 -58l-135 86l-136 -86z" />
    <glyph glyph-name="cdotaccent" unicode="&#x10b;" horiz-adv-x="518" 
d="M299 -8q-56 0 -103 20t-81 55t-53.5 82t-19.5 101t19.5 101t53.5 82t81 55t103 20q63 0 110.5 -22.5t80.5 -56.5l-55 -60q-24 24 -57.5 41t-78.5 17q-37 0 -67.5 -13.5t-53 -37.5t-35 -56.5t-12.5 -69.5t12.5 -69.5t35 -56.5t53 -37.5t67.5 -13.5q45 0 78.5 17t57.5 41
l55 -60q-33 -34 -80.5 -56.5t-110.5 -22.5zM301 569q-26 0 -44 18t-18 44t18 43.5t44 17.5t44 -17.5t18 -43.5t-18 -44t-44 -18z" />
    <glyph glyph-name="dcaron" unicode="&#x10f;" horiz-adv-x="641" 
d="M456 50q-32 -29 -72.5 -43.5t-86.5 -14.5q-55 0 -102 20t-81 54.5t-53 82t-19 101.5t19 101.5t53 82t81 54.5t102 20q46 0 86.5 -14.5t72.5 -43.5v260h86v-710h-86v50zM299 73q54 0 94.5 23t62.5 58v192q-22 35 -62.5 58t-94.5 23q-37 0 -67.5 -13.5t-53 -37.5t-35 -56.5
t-12.5 -69.5t12.5 -69.5t35 -56.5t53 -37.5t67.5 -13.5zM628 710h87l-51 -165h-61z" />
    <glyph glyph-name="dcroat" unicode="&#x111;" 
d="M285 642h171v68h86v-68h70v-74h-70v-568h-86v50q-32 -29 -72.5 -43.5t-86.5 -14.5q-55 0 -102 20t-81 54.5t-53 82t-19 101.5t19 101.5t53 82t81 54.5t102 20q46 0 86.5 -14.5t72.5 -43.5v118h-171v74zM299 73q54 0 94.5 23t62.5 58v192q-22 35 -62.5 58t-94.5 23
q-37 0 -67.5 -13.5t-53 -37.5t-35 -56.5t-12.5 -69.5t12.5 -69.5t35 -56.5t53 -37.5t67.5 -13.5z" />
    <glyph glyph-name="ebreve" unicode="&#x115;" horiz-adv-x="568" 
d="M299 -8q-56 0 -103 20t-81 55t-53.5 82t-19.5 101t19.5 101.5t53.5 82t79.5 54.5t98.5 20q52 0 96.5 -18.5t77 -54t51 -87.5t19.5 -119h-406q3 -33 17 -61.5t36 -49.5t51.5 -33t63.5 -12q48 0 85 18t61 42l55 -60q-32 -34 -83.5 -57.5t-117.5 -23.5zM288 429
q-55 0 -97 -34t-56 -91h305q-9 62 -52 94t-100 31zM292 573q-35 0 -63 11t-48.5 29.5t-32 43.5t-12.5 53h64q2 -31 26 -55t67 -24t67.5 24t26.5 55h64q-2 -28 -13.5 -53t-32 -43.5t-49 -29.5t-64.5 -11z" />
    <glyph glyph-name="ecaron" unicode="&#x11b;" horiz-adv-x="568" 
d="M299 -8q-56 0 -103 20t-81 55t-53.5 82t-19.5 101t19.5 101.5t53.5 82t79.5 54.5t98.5 20q52 0 96.5 -18.5t77 -54t51 -87.5t19.5 -119h-406q3 -33 17 -61.5t36 -49.5t51.5 -33t63.5 -12q48 0 85 18t61 42l55 -60q-32 -34 -83.5 -57.5t-117.5 -23.5zM288 429
q-55 0 -97 -34t-56 -91h305q-9 62 -52 94t-100 31zM293 569l-170 107l34 58l136 -86l135 86l35 -58z" />
    <glyph glyph-name="emacron" unicode="&#x113;" horiz-adv-x="568" 
d="M299 -8q-56 0 -103 20t-81 55t-53.5 82t-19.5 101t19.5 101.5t53.5 82t79.5 54.5t98.5 20q52 0 96.5 -18.5t77 -54t51 -87.5t19.5 -119h-406q3 -33 17 -61.5t36 -49.5t51.5 -33t63.5 -12q48 0 85 18t61 42l55 -60q-32 -34 -83.5 -57.5t-117.5 -23.5zM288 429
q-55 0 -97 -34t-56 -91h305q-9 62 -52 94t-100 31zM147 679h292v-65h-292v65z" />
    <glyph glyph-name="eogonek" unicode="&#x119;" horiz-adv-x="568" 
d="M307 -178q-21 0 -40 5.5t-33.5 17t-23 27.5t-8.5 37q0 29 19.5 50.5t46.5 34.5q-50 5 -91.5 27t-71.5 56t-46.5 78.5t-16.5 94.5q0 54 19.5 101.5t53.5 82t79.5 54.5t98.5 20q52 0 96.5 -18.5t77 -54t51 -87.5t19.5 -119h-406q3 -33 17 -61.5t36 -49.5t51.5 -33t63.5 -12
q48 0 85 18t61 42l55 -60q-24 -25 -58 -44.5t-76 -28.5q-80 -36 -80 -75q0 -16 12.5 -27t37.5 -11q11 0 19 2.5l14 4.5v-59q-14 -8 -29.5 -10.5t-32.5 -2.5zM288 429q-55 0 -97 -34t-56 -91h305q-9 62 -52 94t-100 31z" />
    <glyph glyph-name="edotaccent" unicode="&#x117;" horiz-adv-x="568" 
d="M299 -8q-56 0 -103 20t-81 55t-53.5 82t-19.5 101t19.5 101.5t53.5 82t79.5 54.5t98.5 20q52 0 96.5 -18.5t77 -54t51 -87.5t19.5 -119h-406q3 -33 17 -61.5t36 -49.5t51.5 -33t63.5 -12q48 0 85 18t61 42l55 -60q-32 -34 -83.5 -57.5t-117.5 -23.5zM288 429
q-55 0 -97 -34t-56 -91h305q-9 62 -52 94t-100 31zM293 569q-26 0 -44 18t-18 44t18 43.5t44 17.5t44 -17.5t18 -43.5t-18 -44t-44 -18z" />
    <glyph glyph-name="gbreve" unicode="&#x11f;" horiz-adv-x="611" 
d="M291 -194q-54 0 -111 15t-102 44l45 73q32 -23 76.5 -37.5t94.5 -14.5q33 0 63 6.5t53.5 21.5t37.5 39t14 59q0 13 -3 31t-10 32q-62 -60 -159 -60q-56 0 -101.5 19t-77.5 52t-50 78t-18 97t18 97.5t50 78.5t77.5 52t101.5 19q48 0 86.5 -15t69.5 -44v51h86v-398
q10 -26 14.5 -51t4.5 -47q0 -54 -22.5 -91.5t-59.5 -61.5t-83.5 -34.5t-94.5 -10.5zM292 95q54 0 94 23.5t60 58.5v169q-20 35 -60 58t-94 23q-36 0 -65.5 -12.5t-50.5 -35t-32.5 -52.5t-11.5 -66q0 -35 11.5 -65.5t32.5 -53t50.5 -35t65.5 -12.5zM301 573q-35 0 -63 11
t-48.5 29.5t-32 43.5t-12.5 53h64q2 -31 26 -55t67 -24t67.5 24t26.5 55h64q-2 -28 -13.5 -53t-32 -43.5t-49 -29.5t-64.5 -11z" />
    <glyph glyph-name="gcircumflex" unicode="&#x11d;" horiz-adv-x="611" 
d="M291 -194q-54 0 -111 15t-102 44l45 73q32 -23 76.5 -37.5t94.5 -14.5q33 0 63 6.5t53.5 21.5t37.5 39t14 59q0 13 -3 31t-10 32q-62 -60 -159 -60q-56 0 -101.5 19t-77.5 52t-50 78t-18 97t18 97.5t50 78.5t77.5 52t101.5 19q48 0 86.5 -15t69.5 -44v51h86v-398
q10 -26 14.5 -51t4.5 -47q0 -54 -22.5 -91.5t-59.5 -61.5t-83.5 -34.5t-94.5 -10.5zM292 95q54 0 94 23.5t60 58.5v169q-20 35 -60 58t-94 23q-36 0 -65.5 -12.5t-50.5 -35t-32.5 -52.5t-11.5 -66q0 -35 11.5 -65.5t32.5 -53t50.5 -35t65.5 -12.5zM131 611l170 107l170 -107
l-35 -58l-135 86l-136 -86z" />
    <glyph glyph-name="gcommaaccent" unicode="&#x123;" horiz-adv-x="611" 
d="M341.007 542.997h-99.9941l108.993 178.989h64.9961zM291 -194q-54 0 -111 15t-102 44l45 73q32 -23 76.5 -37.5t94.5 -14.5q33 0 63 6.5t53.5 21.5t37.5 39t14 59q0 13 -3 31t-10 32q-62 -60 -159 -60q-56 0 -101.5 19t-77.5 52t-50 78t-18 97t18 97.5t50 78.5t77.5 52
t101.5 19q48 0 86.5 -15t69.5 -44v51h86v-398q10 -26 14.5 -51t4.5 -47q0 -54 -22.5 -91.5t-59.5 -61.5t-83.5 -34.5t-94.5 -10.5zM292 95q54 0 94 23.5t60 58.5v169q-20 35 -60 58t-94 23q-36 0 -65.5 -12.5t-50.5 -35t-32.5 -52.5t-11.5 -66q0 -35 11.5 -65.5t32.5 -53
t50.5 -35t65.5 -12.5z" />
    <glyph glyph-name="gdotaccent" unicode="&#x121;" horiz-adv-x="611" 
d="M291 -194q-54 0 -111 15t-102 44l45 73q32 -23 76.5 -37.5t94.5 -14.5q33 0 63 6.5t53.5 21.5t37.5 39t14 59q0 13 -3 31t-10 32q-62 -60 -159 -60q-56 0 -101.5 19t-77.5 52t-50 78t-18 97t18 97.5t50 78.5t77.5 52t101.5 19q48 0 86.5 -15t69.5 -44v51h86v-398
q10 -26 14.5 -51t4.5 -47q0 -54 -22.5 -91.5t-59.5 -61.5t-83.5 -34.5t-94.5 -10.5zM292 95q54 0 94 23.5t60 58.5v169q-20 35 -60 58t-94 23q-36 0 -65.5 -12.5t-50.5 -35t-32.5 -52.5t-11.5 -66q0 -35 11.5 -65.5t32.5 -53t50.5 -35t65.5 -12.5zM291 569q-26 0 -44 18
t-18 44t18 43.5t44 17.5t44 -17.5t18 -43.5t-18 -44t-44 -18z" />
    <glyph glyph-name="hbar" unicode="&#x127;" horiz-adv-x="579" 
d="M5 642h70v68h86v-68h171v-74h-171v-125q29 36 70 50.5t85 14.5q42 0 77.5 -14.5t61 -40.5t40 -64t14.5 -84v-305h-86v300q0 55 -33.5 91t-92.5 36q-53 0 -87.5 -27.5t-48.5 -76.5v-323h-86v568h-70v74z" />
    <glyph glyph-name="hcircumflex" unicode="&#x125;" horiz-adv-x="579" 
d="M75 710h86v-267q29 36 70 50.5t85 14.5q42 0 77.5 -14.5t61 -40.5t40 -64t14.5 -84v-305h-86v300q0 55 -33.5 91t-92.5 36q-53 0 -87.5 -27.5t-48.5 -76.5v-323h-86v710zM119 826l173 100l173 -100l-35 -60l-138 82l-138 -82z" />
    <glyph glyph-name="dotlessi" unicode="&#x131;" horiz-adv-x="236" 
d="M75 500h86v-500h-86v500z" />
    <glyph glyph-name="ibreve" unicode="&#x12d;" horiz-adv-x="236" 
d="M118 573q-35 0 -63 11t-48.5 29.5t-32 43.5t-12.5 53h64q2 -31 26 -55t67 -24t67.5 24t26.5 55h64q-2 -28 -13.5 -53t-32 -43.5t-49 -29.5t-64.5 -11zM75 500h86v-500h-86v500z" />
    <glyph glyph-name="imacron" unicode="&#x12b;" horiz-adv-x="236" 
d="M75 500h86v-500h-86v500zM-27 679h292v-65h-292v65z" />
    <glyph glyph-name="iogonek" unicode="&#x12f;" horiz-adv-x="236" 
d="M75 500h86v-500q-81 -36 -81 -75q0 -16 12.5 -27t37.5 -11q11 0 19 2.5l14 4.5v-59q-14 -8 -29.5 -10.5t-32.5 -2.5q-21 0 -40 5.5t-33.5 17t-23 27.5t-8.5 37q0 32 24 55.5t55 35.5v500zM75 609q-19 17 -19 46q0 26 18 44.5t44 18.5t44 -18.5t18 -44.5q0 -29 -19 -46
h-86z" />
    <glyph glyph-name="itilde" unicode="&#x129;" horiz-adv-x="236" 
d="M75 500h86v-500h-86v500zM-50 585q9 45 38.5 69.5t64.5 24.5q21 0 38.5 -7t33 -15l29 -15t25.5 -7q21 0 32 11t16 33h66l-3 -18q-8 -42 -36.5 -68t-66.5 -26q-21 0 -39 7t-33.5 15l-29 15t-26.5 7q-20 0 -30.5 -11t-15.5 -34h-66z" />
    <glyph glyph-name="uni1ECB" unicode="&#x1ecb;" horiz-adv-x="236" 
d="M75 609q-19 17 -19 46q0 26 18 44.5t44 18.5t44 -18.5t18 -44.5q0 -29 -19 -46h-86zM75 500h86v-500h-86v500zM116 -192q-26 0 -44 18t-18 44t18 43.5t44 17.5t44 -17.5t18 -43.5t-18 -44t-44 -18z" />
    <glyph glyph-name="uni0237" unicode="&#x237;" horiz-adv-x="244" 
d="M-21 -106h30q42 0 58 21t16 59v526h86v-539q0 -72 -39.5 -108.5t-111.5 -36.5h-39v78z" />
    <glyph glyph-name="jcircumflex" unicode="&#x135;" horiz-adv-x="244" 
d="M-43 611l170 107l170 -107l-35 -58l-135 86l-136 -86zM-21 -106h30q42 0 58 21t16 59v526h86v-539q0 -72 -39.5 -108.5t-111.5 -36.5h-39v78z" />
    <glyph glyph-name="kcommaaccent" unicode="&#x137;" horiz-adv-x="507" 
d="M232 -50h100l-109 -179h-65zM75 710h86v-436l221 226h108l-233 -236l256 -264h-111l-241 249v-249h-86v710z" />
    <glyph glyph-name="lacute" unicode="&#x13a;" horiz-adv-x="236" 
d="M75 710h86v-710h-86v710zM157 913h108l-112 -145h-73z" />
    <glyph glyph-name="lcaron" unicode="&#x13e;" horiz-adv-x="260" 
d="M75 710h86v-710h-86v710zM247 710h87l-51 -165h-61z" />
    <glyph glyph-name="lcommaaccent" unicode="&#x13c;" horiz-adv-x="236" 
d="M75 710h86v-710h-86v710zM75 -50h100l-109 -179h-65z" />
    <glyph glyph-name="ldot" unicode="&#x140;" horiz-adv-x="308" 
d="M272 291q-26 0 -44 18t-18 44t18 43.5t44 17.5t44 -17.5t18 -43.5t-18 -44t-44 -18zM75 710h86v-710h-86v710z" />
    <glyph glyph-name="lslash" unicode="&#x142;" horiz-adv-x="341" 
d="M11 315l119 77v318h86v-262l79 51l39 -65l-118 -77v-357h-86v302l-80 -52z" />
    <glyph glyph-name="nacute" unicode="&#x144;" horiz-adv-x="579" 
d="M75 500h86v-57q29 36 70 50.5t85 14.5q42 0 77.5 -14.5t61 -40.5t40 -64t14.5 -84v-305h-86v300q0 55 -33.5 91t-92.5 36q-53 0 -87.5 -27.5t-48.5 -76.5v-323h-86v500zM313 710h109l-124 -165h-72z" />
    <glyph glyph-name="ncaron" unicode="&#x148;" horiz-adv-x="579" 
d="M75 500h86v-57q29 36 70 50.5t85 14.5q42 0 77.5 -14.5t61 -40.5t40 -64t14.5 -84v-305h-86v300q0 55 -33.5 91t-92.5 36q-53 0 -87.5 -27.5t-48.5 -76.5v-323h-86v500zM292 569l-170 107l34 58l136 -86l135 86l35 -58z" />
    <glyph glyph-name="ncommaaccent" unicode="&#x146;" horiz-adv-x="579" 
d="M231 -50h100l-109 -179h-65zM75 500h86v-57q29 36 70 50.5t85 14.5q42 0 77.5 -14.5t61 -40.5t40 -64t14.5 -84v-305h-86v300q0 55 -33.5 91t-92.5 36q-53 0 -87.5 -27.5t-48.5 -76.5v-323h-86v500z" />
    <glyph glyph-name="oe" unicode="&#x153;" horiz-adv-x="999" 
d="M302 -8q-57 0 -104.5 20t-82 55t-54 82t-19.5 101t19.5 101t54 82t82 55t104.5 20q70 0 125.5 -30t89.5 -81q34 51 87.5 81t119.5 30q52 0 96.5 -18.5t77 -54t51 -87.5t19.5 -119h-407q3 -33 17 -61.5t36.5 -49.5t52 -33t63.5 -12q48 0 85 18t61 42l55 -60
q-32 -34 -83.5 -57.5t-117.5 -23.5q-69 0 -124 30t-89 81q-34 -51 -89.5 -81t-125.5 -30zM302 73q38 0 69.5 13.5t54 37.5t35 56.5t12.5 69.5t-12.5 69.5t-35 56.5t-54 37.5t-69.5 13.5t-69.5 -13.5t-54 -37.5t-35 -56.5t-12.5 -69.5t12.5 -69.5t35 -56.5t54 -37.5
t69.5 -13.5zM871 304q-9 62 -52 94t-100 31q-27 0 -52 -8.5t-45.5 -25t-35 -39.5t-21.5 -52h306z" />
    <glyph glyph-name="obreve" unicode="&#x14f;" horiz-adv-x="603" 
d="M302 73q38 0 69.5 13.5t54 37.5t34.5 56.5t12 69.5t-12 69.5t-34.5 56.5t-54 37.5t-69.5 13.5t-69.5 -13.5t-54 -37.5t-35 -56.5t-12.5 -69.5t12.5 -69.5t35 -56.5t54 -37.5t69.5 -13.5zM302 -8q-57 0 -104.5 20t-82 55t-54 82t-19.5 101t19.5 101t54 82t82 55t104.5 20
q56 0 103.5 -20t82 -55t54 -82t19.5 -101t-19.5 -101t-54 -82t-82 -55t-103.5 -20zM301 573q-35 0 -63 11t-48.5 29.5t-32 43.5t-12.5 53h64q2 -31 26 -55t67 -24t67.5 24t26.5 55h64q-2 -28 -13.5 -53t-32 -43.5t-49 -29.5t-64.5 -11z" />
    <glyph glyph-name="ohungarumlaut" unicode="&#x151;" horiz-adv-x="603" 
d="M302 73q38 0 69.5 13.5t54 37.5t34.5 56.5t12 69.5t-12 69.5t-34.5 56.5t-54 37.5t-69.5 13.5t-69.5 -13.5t-54 -37.5t-35 -56.5t-12.5 -69.5t12.5 -69.5t35 -56.5t54 -37.5t69.5 -13.5zM302 -8q-57 0 -104.5 20t-82 55t-54 82t-19.5 101t19.5 101t54 82t82 55t104.5 20
q56 0 103.5 -20t82 -55t54 -82t19.5 -101t-19.5 -101t-54 -82t-82 -55t-103.5 -20zM270 710h101l-125 -165h-63zM439 710h101l-125 -165h-63z" />
    <glyph glyph-name="omacron" unicode="&#x14d;" horiz-adv-x="603" 
d="M302 73q38 0 69.5 13.5t54 37.5t34.5 56.5t12 69.5t-12 69.5t-34.5 56.5t-54 37.5t-69.5 13.5t-69.5 -13.5t-54 -37.5t-35 -56.5t-12.5 -69.5t12.5 -69.5t35 -56.5t54 -37.5t69.5 -13.5zM302 -8q-57 0 -104.5 20t-82 55t-54 82t-19.5 101t19.5 101t54 82t82 55t104.5 20
q56 0 103.5 -20t82 -55t54 -82t19.5 -101t-19.5 -101t-54 -82t-82 -55t-103.5 -20zM154 679h292v-65h-292v65z" />
    <glyph glyph-name="uni1ECD" unicode="&#x1ecd;" horiz-adv-x="603" 
d="M302 73q38 0 69.5 13.5t54 37.5t34.5 56.5t12 69.5t-12 69.5t-34.5 56.5t-54 37.5t-69.5 13.5t-69.5 -13.5t-54 -37.5t-35 -56.5t-12.5 -69.5t12.5 -69.5t35 -56.5t54 -37.5t69.5 -13.5zM302 -8q-57 0 -104.5 20t-82 55t-54 82t-19.5 101t19.5 101t54 82t82 55t104.5 20
q56 0 103.5 -20t82 -55t54 -82t19.5 -101t-19.5 -101t-54 -82t-82 -55t-103.5 -20zM301 -192q-26 0 -44 18t-18 44t18 43.5t44 17.5t44 -17.5t18 -43.5t-18 -44t-44 -18z" />
    <glyph glyph-name="racute" unicode="&#x155;" horiz-adv-x="350" 
d="M75 500h86v-59q26 32 61 48t77 16q18 0 35 -3v-89q-21 6 -48 6q-41 0 -74.5 -20t-50.5 -59v-340h-86v500zM227 710h109l-124 -165h-72z" />
    <glyph glyph-name="rcaron" unicode="&#x159;" horiz-adv-x="350" 
d="M75 500h86v-59q26 32 61 48t77 16q18 0 35 -3v-89q-21 6 -48 6q-41 0 -74.5 -20t-50.5 -59v-340h-86v500zM204 569l-170 107l34 58l136 -86l135 86l35 -58z" />
    <glyph glyph-name="rcommaaccent" unicode="&#x157;" horiz-adv-x="350" 
d="M75 500h86v-59q26 32 61 48t77 16q18 0 35 -3v-89q-21 6 -48 6q-41 0 -74.5 -20t-50.5 -59v-340h-86v500zM76 -50h100l-109 -179h-65z" />
    <glyph glyph-name="sacute" unicode="&#x15b;" horiz-adv-x="420" 
d="M207 -8q-56 0 -101.5 24.5t-75.5 75.5l68 46q20 -33 45.5 -51t65.5 -18q37 0 63 17t26 46t-20 46.5t-65 33.5l-39 15q-66 25 -92.5 64t-26.5 84q0 28 11.5 52.5t32.5 42.5t49.5 28t62.5 10q48 0 87.5 -22t62.5 -68l-67 -39q-25 52 -83 52q-29 0 -50 -14.5t-21 -40.5
q0 -23 14.5 -41.5t58.5 -34.5l41 -15q64 -23 97 -58.5t33 -91.5q0 -30 -12.5 -56t-35.5 -45.5t-55.5 -30.5t-73.5 -11zM264 710h109l-124 -165h-72z" />
    <glyph glyph-name="scaron" unicode="&#x161;" horiz-adv-x="420" 
d="M207 -8q-56 0 -101.5 24.5t-75.5 75.5l68 46q20 -33 45.5 -51t65.5 -18q37 0 63 17t26 46t-20 46.5t-65 33.5l-39 15q-66 25 -92.5 64t-26.5 84q0 28 11.5 52.5t32.5 42.5t49.5 28t62.5 10q48 0 87.5 -22t62.5 -68l-67 -39q-25 52 -83 52q-29 0 -50 -14.5t-21 -40.5
q0 -23 14.5 -41.5t58.5 -34.5l41 -15q64 -23 97 -58.5t33 -91.5q0 -30 -12.5 -56t-35.5 -45.5t-55.5 -30.5t-73.5 -11zM213 569l-170 107l34 58l136 -86l135 86l35 -58z" />
    <glyph glyph-name="scedilla" unicode="&#x15f;" horiz-adv-x="420" 
d="M175 -6q-45 6 -82 30t-63 68l68 46q20 -33 45.5 -51t65.5 -18q37 0 63 17t26 46t-20 46.5t-65 33.5l-39 15q-66 25 -92.5 64t-26.5 84q0 28 11.5 52.5t32.5 42.5t49.5 28t62.5 10q48 0 87.5 -22t62.5 -68l-67 -39q-25 52 -83 52q-29 0 -50 -14.5t-21 -40.5
q0 -23 14.5 -41.5t58.5 -34.5l41 -15q64 -23 97 -58.5t33 -91.5q0 -55 -39.5 -94.5t-108.5 -46.5l-36 -129h-98z" />
    <glyph glyph-name="scircumflex" unicode="&#x15d;" horiz-adv-x="420" 
d="M207 -8q-56 0 -101.5 24.5t-75.5 75.5l68 46q20 -33 45.5 -51t65.5 -18q37 0 63 17t26 46t-20 46.5t-65 33.5l-39 15q-66 25 -92.5 64t-26.5 84q0 28 11.5 52.5t32.5 42.5t49.5 28t62.5 10q48 0 87.5 -22t62.5 -68l-67 -39q-25 52 -83 52q-29 0 -50 -14.5t-21 -40.5
q0 -23 14.5 -41.5t58.5 -34.5l41 -15q64 -23 97 -58.5t33 -91.5q0 -30 -12.5 -56t-35.5 -45.5t-55.5 -30.5t-73.5 -11zM43 611l170 107l170 -107l-35 -58l-135 86l-136 -86z" />
    <glyph glyph-name="scommaaccent" unicode="&#x219;" horiz-adv-x="420" 
d="M149 -50h100l-109 -179h-65zM207 -8q-56 0 -101.5 24.5t-75.5 75.5l68 46q20 -33 45.5 -51t65.5 -18q37 0 63 17t26 46t-20 46.5t-65 33.5l-39 15q-66 25 -92.5 64t-26.5 84q0 28 11.5 52.5t32.5 42.5t49.5 28t62.5 10q48 0 87.5 -22t62.5 -68l-67 -39q-25 52 -83 52
q-29 0 -50 -14.5t-21 -40.5q0 -23 14.5 -41.5t58.5 -34.5l41 -15q64 -23 97 -58.5t33 -91.5q0 -30 -12.5 -56t-35.5 -45.5t-55.5 -30.5t-73.5 -11z" />
    <glyph glyph-name="tcaron" unicode="&#x165;" horiz-adv-x="366" 
d="M9 500h99v107l86 43v-150h151l-19 -78h-132v-264q0 -38 16 -59t58 -21h67v-78h-76q-72 0 -111.5 36.5t-39.5 108.5v277h-80zM284 710h87l-51 -165h-61z" />
    <glyph glyph-name="tcommaaccent" unicode="&#x163;" horiz-adv-x="365" 
d="M9 500h99v107l86 43v-150h151l-19 -78h-132v-264q0 -38 16 -59t58 -21h67v-78h-76q-72 0 -111.5 36.5t-39.5 108.5v277h-80zM179 -50h100l-109 -179h-65z" />
    <glyph glyph-name="uni021B" unicode="&#x21b;" horiz-adv-x="365" 
d="M9 500h99v107l86 43v-150h151l-19 -78h-132v-264q0 -38 16 -59t58 -21h67v-78h-76q-72 0 -111.5 36.5t-39.5 108.5v277h-80zM179 -50h100l-109 -179h-65z" />
    <glyph glyph-name="ubreve" unicode="&#x16d;" horiz-adv-x="578" 
d="M417 56q-29 -36 -69.5 -50t-84.5 -14q-43 0 -78.5 14.5t-61 40.5t-39.5 63.5t-14 84.5v305h86v-300q0 -55 33.5 -91t91.5 -36q52 0 86.5 26t49.5 74v327h86v-500h-86v56zM284 573q-35 0 -63 11t-48.5 29.5t-32 43.5t-12.5 53h64q2 -31 26 -55t67 -24t67.5 24t26.5 55h64
q-2 -28 -13.5 -53t-32 -43.5t-49 -29.5t-64.5 -11z" />
    <glyph glyph-name="uhungarumlaut" unicode="&#x171;" horiz-adv-x="578" 
d="M417 56q-29 -36 -69.5 -50t-84.5 -14q-43 0 -78.5 14.5t-61 40.5t-39.5 63.5t-14 84.5v305h86v-300q0 -55 33.5 -91t91.5 -36q52 0 86.5 26t49.5 74v327h86v-500h-86v56zM235 710h101l-125 -165h-63zM404 710h101l-125 -165h-63z" />
    <glyph glyph-name="umacron" unicode="&#x16b;" horiz-adv-x="578" 
d="M417 56q-29 -36 -69.5 -50t-84.5 -14q-43 0 -78.5 14.5t-61 40.5t-39.5 63.5t-14 84.5v305h86v-300q0 -55 33.5 -91t91.5 -36q52 0 86.5 26t49.5 74v327h86v-500h-86v56zM139 679h292v-65h-292v65z" />
    <glyph glyph-name="uogonek" unicode="&#x173;" horiz-adv-x="578" 
d="M443 -178q-21 0 -40 5.5t-33.5 17t-23 27.5t-8.5 37q0 32 24 55.5t55 35.5v56q-29 -36 -69.5 -50t-84.5 -14q-43 0 -78.5 14.5t-61 40.5t-39.5 63.5t-14 84.5v305h86v-300q0 -55 33.5 -91t91.5 -36q52 0 86.5 26t49.5 74v327h86v-500h1q-82 -36 -82 -75q0 -16 12.5 -27
t37.5 -11q11 0 19 2.5l14 4.5v-59q-14 -8 -29.5 -10.5t-32.5 -2.5z" />
    <glyph glyph-name="uring" unicode="&#x16f;" horiz-adv-x="578" 
d="M417 56q-29 -36 -69.5 -50t-84.5 -14q-43 0 -78.5 14.5t-61 40.5t-39.5 63.5t-14 84.5v305h86v-300q0 -55 33.5 -91t91.5 -36q52 0 86.5 26t49.5 74v327h86v-500h-86v56zM285 613q20 0 34 13t14 34q0 22 -14 35t-34 13t-34 -13t-14 -35q0 -21 14 -34t34 -13zM285 566
q-21 0 -39 7t-31.5 20t-21 30t-7.5 37q0 42 29 68.5t70 26.5t70 -26.5t29 -68.5q0 -20 -7.5 -37t-21 -30t-31.5 -20t-39 -7z" />
    <glyph glyph-name="utilde" unicode="&#x169;" horiz-adv-x="578" 
d="M417 56q-29 -36 -69.5 -50t-84.5 -14q-43 0 -78.5 14.5t-61 40.5t-39.5 63.5t-14 84.5v305h86v-300q0 -55 33.5 -91t91.5 -36q52 0 86.5 26t49.5 74v327h86v-500h-86v56zM116 585q9 45 38.5 69.5t64.5 24.5q21 0 38.5 -7t33 -15l29 -15t25.5 -7q21 0 32 11t16 33h66
l-3 -18q-8 -42 -36.5 -68t-66.5 -26q-21 0 -39 7t-33.5 15l-29 15t-26.5 7q-20 0 -30.5 -11t-15.5 -34h-66z" />
    <glyph glyph-name="uni1EE5" unicode="&#x1ee5;" horiz-adv-x="578" 
d="M417 56q-29 -36 -69.5 -50t-84.5 -14q-43 0 -78.5 14.5t-61 40.5t-39.5 63.5t-14 84.5v305h86v-300q0 -55 33.5 -91t91.5 -36q52 0 86.5 26t49.5 74v327h86v-500h-86v56zM286 -192q-26 0 -44 18t-18 44t18 43.5t44 17.5t44 -17.5t18 -43.5t-18 -44t-44 -18z" />
    <glyph glyph-name="wacute" unicode="&#x1e83;" horiz-adv-x="700" 
d="M394 710h109l-124 -165h-72zM11 500h89l112 -364l138 372l138 -372l112 364h89l-158 -500h-69l-112 303l-111 -303h-70z" />
    <glyph glyph-name="wcircumflex" unicode="&#x175;" horiz-adv-x="700" 
d="M171 611l170 107l170 -107l-35 -58l-135 86l-136 -86zM11 500h89l112 -364l138 372l138 -372l112 364h89l-158 -500h-69l-112 303l-111 -303h-70z" />
    <glyph glyph-name="wdieresis" unicode="&#x1e85;" horiz-adv-x="700" 
d="M239 571q-24 0 -42 17t-18 43q0 25 18 42t42 17q26 0 43.5 -17t17.5 -42q0 -26 -17.5 -43t-43.5 -17zM464 571q-25 0 -42.5 17t-17.5 43q0 25 17.5 42t42.5 17q26 0 43 -17t17 -42q0 -26 -17 -43t-43 -17zM11 500h89l112 -364l138 372l138 -372l112 364h89l-158 -500h-69
l-112 303l-111 -303h-70z" />
    <glyph glyph-name="wgrave" unicode="&#x1e81;" horiz-adv-x="700" 
d="M11 500h89l112 -364l138 372l138 -372l112 364h89l-158 -500h-69l-112 303l-111 -303h-70zM192 710h109l87 -165h-71z" />
    <glyph glyph-name="ycircumflex" unicode="&#x177;" horiz-adv-x="507" 
d="M210 42l-204 458h93l156 -364l157 364h93l-307 -684h-91zM85 611l170 107l170 -107l-35 -58l-135 86l-136 -86z" />
    <glyph glyph-name="ygrave" unicode="&#x1ef3;" horiz-adv-x="507" 
d="M210 42l-204 458h93l156 -364l157 364h93l-307 -684h-91zM125 710h109l87 -165h-71z" />
    <glyph glyph-name="uni0233" unicode="&#x233;" horiz-adv-x="507" 
d="M210 42l-204 458h93l156 -364l157 364h93l-307 -684h-91zM108 679h292v-65h-292v65z" />
    <glyph glyph-name="zacute" unicode="&#x17a;" horiz-adv-x="486" 
d="M310 422h-262v78h411l-293 -422h283v-78h-433zM274 710h109l-124 -165h-72z" />
    <glyph glyph-name="zcaron" unicode="&#x17e;" horiz-adv-x="486" 
d="M310 422h-262v78h411l-293 -422h283v-78h-433zM253 569l-170 107l34 58l136 -86l135 86l35 -58z" />
    <glyph glyph-name="zdotaccent" unicode="&#x17c;" horiz-adv-x="486" 
d="M310 422h-262v78h411l-293 -422h283v-78h-433zM254 569q-26 0 -44 18t-18 44t18 43.5t44 17.5t44 -17.5t18 -43.5t-18 -44t-44 -18z" />
    <glyph glyph-name="ellipsis" unicode="&#x2026;" horiz-adv-x="685" 
d="M125 -8q-30 0 -52 21.5t-22 52.5t22 52.5t52 21.5q31 0 52.5 -21.5t21.5 -52.5t-21.5 -52.5t-52.5 -21.5zM342 -8q-30 0 -52 21.5t-22 52.5t22 52.5t52 21.5q31 0 52.5 -21.5t21.5 -52.5t-21.5 -52.5t-52.5 -21.5zM560 -8q-30 0 -52 21.5t-22 52.5t22 52.5t52 21.5
q31 0 52.5 -21.5t21.5 -52.5t-21.5 -52.5t-52.5 -21.5z" />
    <glyph glyph-name="endash" unicode="&#x2013;" horiz-adv-x="570" 
d="M68 314h434v-81h-434v81z" />
    <glyph glyph-name="emdash" unicode="&#x2014;" horiz-adv-x="867" 
d="M68 314h731v-81h-731v81z" />
    <glyph glyph-name="guilsinglleft" unicode="&#x2039;" horiz-adv-x="307" 
d="M42 250l152 221l62 -42l-123 -179l123 -179l-62 -42z" />
    <glyph glyph-name="guilsinglright" unicode="&#x203a;" horiz-adv-x="307" 
d="M113 29l-62 42l123 179l-123 179l62 42l152 -221z" />
    <glyph glyph-name="quoteleft" unicode="&#x2018;" horiz-adv-x="244" 
d="M131 568h51v-123h-122v124l57 141h57z" />
    <glyph glyph-name="quoteright" unicode="&#x2019;" horiz-adv-x="233" 
d="M112 587h-51v123h122v-124l-57 -141h-57z" />
    <glyph glyph-name="quotedblleft" unicode="&#x201c;" horiz-adv-x="439" 
d="M131 568h51v-123h-122v124l57 141h57zM326 568h51v-123h-122v124l57 141h57z" />
    <glyph glyph-name="quotedblright" unicode="&#x201d;" horiz-adv-x="428" 
d="M112 587h-51v123h122v-124l-57 -141h-57zM307 587h-51v123h122v-124l-57 -141h-57z" />
    <glyph glyph-name="quotesinglbase" unicode="&#x201a;" horiz-adv-x="258" 
d="M119 0h-51v123h122v-124l-57 -141h-57z" />
    <glyph glyph-name="quotedblbase" unicode="&#x201e;" horiz-adv-x="453" 
d="M119 0h-51v123h122v-124l-57 -141h-57zM314 0h-51v123h122v-124l-57 -141h-57z" />
    <glyph glyph-name="bullet" unicode="&#x2022;" horiz-adv-x="420" 
d="M210 166q-28 0 -53 10.5t-43.5 29t-29 43.5t-10.5 53t10.5 53t29 43.5t43.5 29t53 10.5t53 -10.5t43.5 -29t29 -43.5t10.5 -53t-10.5 -53t-29 -43.5t-43.5 -29t-53 -10.5z" />
    <glyph glyph-name="minus" unicode="&#x2212;" horiz-adv-x="590" 
d="M76 310h438v-70h-438v70z" />
    <glyph glyph-name="Euro" unicode="&#x20ac;" horiz-adv-x="748" 
d="M65 458h99q16 57 48 104.5t77 82t101 54t119 19.5q66 0 115 -16t93 -45l-33 -76q-33 25 -75.5 41.5t-99.5 16.5q-45 0 -85.5 -13t-73.5 -36.5t-58 -57t-39 -74.5h373l-28 -61h-360q-1 -11 -1.5 -21t-0.5 -21t0.5 -21t1.5 -20h316l-28 -60h-274q14 -42 39 -75.5t58 -57.5
t74 -37t86 -13q39 0 73 9.5t63 26.5v-89q-63 -26 -136 -26q-63 0 -119 19.5t-101 54t-77.5 83t-47.5 105.5h-127l28 60h88q-2 10 -2 20v21v21t2 21h-116z" />
    <glyph glyph-name="uniFB01" unicode="&#xfb01;" horiz-adv-x="599" 
d="M27 500h84q-17 17 -27 39.5t-10 48.5t10.5 48.5t29.5 39t46 25.5t60 9h118v-78h-104q-32 0 -54 -15.5t-22 -47.5q0 -33 22 -50t47 -19h111v-78h-139v-422h-86v422h-86v78zM438 609q-19 17 -19 46q0 26 18 44.5t44 18.5t44 -18.5t18 -44.5q0 -29 -19 -46h-86zM438 500h86
v-500h-86v500z" />
    <glyph glyph-name="uniFB02" unicode="&#xfb02;" horiz-adv-x="599" 
d="M27 500h84q-17 17 -27 39.5t-10 48.5t10.5 48.5t29.5 39t46 25.5t60 9h118v-78h-104q-32 0 -54 -15.5t-22 -47.5q0 -33 22 -50t47 -19h111v-78h-139v-422h-86v422h-86v78zM438 710h86v-710h-86v710z" />
    <glyph glyph-name="breve" unicode="&#x2d8;" horiz-adv-x="379" 
d="M188 573q-35 0 -63 11t-48.5 29.5t-32 43.5t-12.5 53h64q2 -31 26 -55t67 -24t67.5 24t26.5 55h64q-2 -28 -13.5 -53t-32 -43.5t-49 -29.5t-64.5 -11z" />
    <glyph glyph-name="caron" unicode="&#x2c7;" horiz-adv-x="404" 
d="M196 569l-170 107l34 58l136 -86l135 86l35 -58z" />
    <glyph glyph-name="circumflex" unicode="&#x2c6;" horiz-adv-x="396" 
d="M26 611l170 107l170 -107l-35 -58l-135 86l-136 -86z" />
    <glyph glyph-name="dotaccent" unicode="&#x2d9;" horiz-adv-x="177" 
d="M89 569q-26 0 -44 18t-18 44t18 43.5t44 17.5t44 -17.5t18 -43.5t-18 -44t-44 -18z" />
    <glyph glyph-name="glyph332" horiz-adv-x="177" 
d="M89 -192q-26 0 -44 18t-18 44t18 43.5t44 17.5t44 -17.5t18 -43.5t-18 -44t-44 -18z" />
    <glyph glyph-name="hungarumlaut" unicode="&#x2dd;" horiz-adv-x="425" 
d="M120 710h101l-125 -165h-63zM289 710h101l-125 -165h-63z" />
    <glyph glyph-name="glyph334" horiz-adv-x="249" 
d="M106 -50h100l-109 -179h-65z" />
    <glyph glyph-name="ogonek" unicode="&#x2db;" horiz-adv-x="240" 
d="M141 -178q-21 0 -40 5.5t-33.5 17t-23 27.5t-8.5 37q0 32 24 55.5t55 35.5h87q-82 -36 -82 -75q0 -16 12.5 -27t37.5 -11q11 0 19 2.5l14 4.5v-59q-14 -8 -29.5 -10.5t-32.5 -2.5z" />
    <glyph glyph-name="ring" unicode="&#x2da;" horiz-adv-x="264" 
d="M132 613q20 0 34 13t14 34q0 22 -14 35t-34 13t-34 -13t-14 -35q0 -21 14 -34t34 -13zM132 566q-21 0 -39 7t-31.5 20t-21 30t-7.5 37q0 42 29 68.5t70 26.5t70 -26.5t29 -68.5q0 -20 -7.5 -37t-21 -30t-31.5 -20t-39 -7z" />
    <glyph glyph-name="tilde" unicode="&#x2dc;" horiz-adv-x="434" 
d="M47 585q9 45 38.5 69.5t64.5 24.5q21 0 38.5 -7t33 -15l29 -15t25.5 -7q21 0 32 11t16 33h66l-3 -18q-8 -42 -36.5 -68t-66.5 -26q-21 0 -39 7t-33.5 15l-29 15t-26.5 7q-20 0 -30.5 -11t-15.5 -34h-66z" />
    <glyph glyph-name="glyph338" horiz-adv-x="500" 
d="M233 710h87l-51 -165h-61z" />
    <glyph glyph-name="glyph339" horiz-adv-x="267" 
d="M123 913h108l-112 -145h-73z" />
    <glyph glyph-name="glyph340" horiz-adv-x="379" 
d="M188 772q-35 0 -63 11t-48.5 29.5t-32 43.5t-12.5 53h64q2 -31 26 -55t67 -24t67.5 24t26.5 55h64q-2 -28 -13.5 -53t-32 -43.5t-49 -29.5t-64.5 -11z" />
    <glyph glyph-name="glyph341" horiz-adv-x="396" 
d="M25 866l35 60l138 -82l138 82l35 -60l-173 -100z" />
    <glyph glyph-name="glyph342" horiz-adv-x="395" 
d="M25 826l173 100l173 -100l-35 -60l-138 82l-138 -82z" />
    <glyph glyph-name="glyph343" horiz-adv-x="409" 
d="M126 782q-24 0 -42.5 18t-18.5 44q0 25 18.5 42.5t42.5 17.5q26 0 44 -17.5t18 -42.5q0 -26 -18 -44t-44 -18zM351 782q-25 0 -43 18t-18 44q0 25 18 42.5t43 17.5q26 0 44 -17.5t18 -42.5q0 -26 -18 -44t-44 -18z" />
    <glyph glyph-name="glyph344" horiz-adv-x="179" 
d="M89 780q-25 0 -43.5 18.5t-18.5 45.5q0 26 18.5 44t43.5 18q27 0 45.5 -18t18.5 -44q0 -27 -18.5 -45.5t-45.5 -18.5z" />
    <glyph glyph-name="glyph345" horiz-adv-x="267" 
d="M37 913h109l77 -145h-73z" />
    <glyph glyph-name="glyph346" horiz-adv-x="461" 
d="M123 913h104l-113 -145h-68zM323 913h104l-113 -145h-68z" />
    <glyph glyph-name="glyph347" horiz-adv-x="365" 
d="M37 868h292v-65h-292v65z" />
    <glyph glyph-name="glyph348" horiz-adv-x="264" 
d="M132 798q20 0 34 13t14 34t-14 34.5t-34 13.5t-34 -13.5t-14 -34.5t14 -34t34 -13zM132 751q-42 0 -70.5 26.5t-28.5 67.5q0 42 29 68.5t70 26.5t70 -26.5t29 -68.5q0 -41 -28.5 -67.5t-70.5 -26.5z" />
    <glyph glyph-name="glyph349" horiz-adv-x="435" 
d="M284 783q-21 0 -39 7t-33.5 15l-29 15t-26.5 7q-20 0 -30.5 -10.5t-15.5 -32.5h-69l4 18q4 23 14.5 41t25 30t31.5 18.5t34 6.5q21 0 38.5 -7t33 -15l29 -15t25.5 -7q21 0 32 10t16 33h68l-3 -18q-8 -45 -38 -70.5t-67 -25.5z" />
    </font>
</defs>
</svg>
