<?xml version="1.0" standalone="no"?>
<!DOCTYPE svg PUBLIC "-//W3C//DTD SVG 1.1//EN" "http://www.w3.org/Graphics/SVG/1.1/DTD/svg11.dtd" >
<svg>
<metadata>
Created by FontForge 20090622 at Tue May 29 11:00:26 2018
 By deploy user
Copyright (c) 2017 Swiss Typefaces S&#195;&#160;rl. All rights reserved.
</metadata>
<defs>
<font id="Font" horiz-adv-x="571" >
  <font-face 
    font-family="Font"
    font-weight="300"
    font-stretch="normal"
    units-per-em="1000"
    panose-1="2 11 3 0 3 0 0 0 0 0"
    ascent="800"
    descent="-200"
    x-height="500"
    cap-height="710"
    bbox="-56 -215 1050 928"
    underline-thickness="55"
    underline-position="-107"
    unicode-range="U+000D-U+FB02"
  />
<missing-glyph horiz-adv-x="500" 
 />
    <glyph glyph-name=".notdef" horiz-adv-x="500" 
 />
    <glyph glyph-name="glyph1" horiz-adv-x="0" 
 />
    <glyph glyph-name="uni000D" unicode="&#xd;" horiz-adv-x="248" 
 />
    <glyph glyph-name="space" unicode=" " horiz-adv-x="248" 
 />
    <glyph glyph-name="exclam" unicode="!" horiz-adv-x="250" 
d="M97 415v295h57v-295l-11 -211h-36zM124 -7q-23 0 -40 19.5t-17 43.5q0 17 8 30t22 20h56q13 -8 21 -24t8 -32q0 -24 -17.5 -40.5t-40.5 -16.5z" />
    <glyph glyph-name="quotedbl" unicode="&#x22;" horiz-adv-x="401" 
d="M71 710h57v-225h-57v225zM273 710h57v-225h-57v225z" />
    <glyph glyph-name="numbersign" unicode="#" horiz-adv-x="743" 
d="M425 209h-202l-65 -209h-58l65 209h-130v55h147l61 193h-135v55h152l62 198h58l-62 -198h202l62 198h57l-62 -198h131v-55h-148l-61 -193h137v-55h-154l-65 -209h-57zM240 264h202l61 193h-202z" />
    <glyph glyph-name="dollar" unicode="$" horiz-adv-x="520" 
d="M236 -7q-68 5 -120.5 34.5t-80.5 63.5l44 37q26 -32 72 -57.5t104 -25.5q77 0 122 36t45 92q0 29 -10 51t-28 39.5t-42.5 32t-54.5 29.5l-75 37q-40 20 -68.5 40t-47 42.5t-27 48.5t-8.5 58q0 34 14.5 63t38.5 50.5t55.5 34.5t66.5 17v82h52v-81q55 -5 99 -29.5t74 -59.5
l-42 -37q-28 34 -66 54t-93 20q-30 0 -56 -8.5t-45.5 -24t-30.5 -36.5t-11 -46q0 -47 28.5 -77t87.5 -59l75 -38q35 -18 66 -36t54.5 -40.5t37.5 -51t14 -66.5t-13 -70.5t-37.5 -57.5t-60 -40.5t-81.5 -19.5v-82h-52v81z" />
    <glyph glyph-name="percent" unicode="%" horiz-adv-x="1023" 
d="M232 367q31 0 58.5 12t47.5 32.5t32 47.5t12 58t-12 58t-32 47.5t-47.5 32.5t-58.5 12t-58 -12t-47.5 -32.5t-32 -47.5t-11.5 -58t11.5 -58t32 -47.5t47.5 -32.5t58 -12zM232 320q-41 0 -77 15.5t-62.5 42.5t-42 62.5t-15.5 76.5q0 40 15.5 76t42 63t62.5 42.5t77 15.5
q40 0 76 -15.5t63 -42.5t42.5 -63t15.5 -76q0 -41 -15.5 -76.5t-42.5 -62.5t-63 -42.5t-76 -15.5zM738 710h58l-510 -710h-58zM791 43q31 0 58.5 12t47.5 32.5t32 47.5t12 58t-12 58t-32 47.5t-47.5 32.5t-58.5 12t-58 -12t-47.5 -32.5t-32 -47.5t-11.5 -58t11.5 -58
t32 -47.5t47.5 -32.5t58 -12zM791 -4q-41 0 -77 15.5t-62.5 42.5t-42 62.5t-15.5 76.5q0 40 15.5 76t42 63t62.5 42.5t77 15.5q40 0 76 -15.5t63 -42.5t42.5 -63t15.5 -76q0 -41 -15.5 -76.5t-42.5 -62.5t-63 -42.5t-76 -15.5z" />
    <glyph glyph-name="ampersand" unicode="&#x26;" horiz-adv-x="725" 
d="M273 -8q-45 0 -82 14.5t-63 40t-40.5 60t-14.5 74.5q0 43 14 74.5t36.5 55t49 41l52.5 33.5l19 11q-35 37 -60 76.5t-25 90.5q0 33 13 61.5t36 49t53 32.5t65 12q36 0 66 -12t51 -32.5t33 -47.5t12 -58q0 -32 -14 -57.5t-35.5 -46.5t-48 -38l-50.5 -31l-13 -7l170 -177
l108 141l41 -36l-111 -145l165 -171h-75l-124 128q-54 -66 -107 -101t-121 -35zM274 44q53 0 97.5 32t91.5 92l-183 191l-21 -13l-46 -29t-41 -34t-29.5 -43t-11.5 -57q0 -29 10.5 -54t29.5 -44t45.5 -30t57.5 -11zM215 562q0 -38 20.5 -69t57.5 -70l16 10q24 13 46 27.5
t39 30.5t27.5 34.5t10.5 39.5t-7.5 39.5t-21 32.5t-33.5 22.5t-44 8.5q-23 0 -43 -8t-35 -22t-24 -33.5t-9 -42.5z" />
    <glyph glyph-name="quotesingle" unicode="'" horiz-adv-x="199" 
d="M71 710h57v-225h-57v225z" />
    <glyph glyph-name="parenleft" unicode="(" horiz-adv-x="250" 
d="M162 -136q-27 56 -47 106t-33.5 101t-20.5 106.5t-7 122.5t7 122.5t20.5 106.5t33.5 101t47 106l50 -21q-27 -54 -46 -104t-31.5 -100t-18.5 -102t-6 -109t6 -109t18.5 -102t31.5 -100t46 -104l-50 -21v0z" />
    <glyph glyph-name="parenright" unicode=")" horiz-adv-x="250" 
d="M88 -136l-50 21q27 54 46 104t31.5 100t18.5 102t6 109t-6 109t-18.5 102t-31.5 100t-46 104l50 21q27 -56 47 -106t33.5 -101t20.5 -106.5t7 -122.5t-7 -122.5t-20.5 -106.5t-33.5 -101t-47 -106z" />
    <glyph glyph-name="asterisk" unicode="*" horiz-adv-x="416" 
d="M93 441l73 101l-119 40l14 49l121 -40v119h50v-119l122 39l16 -48l-121 -39l74 -102l-40 -29l-76 101l-73 -101z" />
    <glyph glyph-name="plus" unicode="+" horiz-adv-x="590" 
d="M75 298h191v183h58v-183h191v-55h-191v-189h-58v189h-191v55z" />
    <glyph glyph-name="comma" unicode="," horiz-adv-x="244" 
d="M116 0h-42v103h96v-104l-54 -137h-44z" />
    <glyph glyph-name="hyphen" unicode="-" horiz-adv-x="367" 
d="M70 303h227v-65h-227v65z" />
    <glyph glyph-name="period" unicode="." horiz-adv-x="234" 
d="M117 -8q-25 0 -42 18t-17 41q0 25 17 43t42 18t42 -18t17 -43q0 -23 -17 -41t-42 -18z" />
    <glyph glyph-name="slash" unicode="/" horiz-adv-x="463" 
d="M378 710h57l-349 -710h-57z" />
    <glyph glyph-name="zero" unicode="0" horiz-adv-x="590" 
d="M466 355q0 151 -46.5 229t-124.5 78t-124.5 -78t-46.5 -229t46.5 -229t124.5 -78t124.5 78t46.5 229zM295 -8q-107 0 -169 93.5t-62 269.5t62 269.5t169 93.5t169 -93.5t62 -269.5t-62 -269.5t-169 -93.5z" />
    <glyph glyph-name="one" unicode="1" horiz-adv-x="590" 
d="M356 622l-260 -121v61l317 148v-710h-57v622z" />
    <glyph glyph-name="two" unicode="2" horiz-adv-x="590" 
d="M367 354q41 45 61.5 84.5t20.5 77.5q0 33 -12 60t-32 46.5t-47.5 30.5t-58.5 11t-58.5 -11t-47.5 -30.5t-32 -46.5t-12 -60v-3h-58q0 45 16.5 83t44.5 65t66 42t81 15t81 -15t66.5 -42t44.5 -64t16 -82q0 -58 -31.5 -109t-86.5 -112l-221 -240h349v-54h-468z" />
    <glyph glyph-name="three" unicode="3" horiz-adv-x="590" 
d="M270 -8q-63 0 -117 32t-83 83l49 31q9 -19 24.5 -36t35 -29.5t43 -20t49.5 -7.5q37 0 68.5 13t55 36t37 55t13.5 70q0 40 -13 73t-36.5 57t-56.5 37.5t-73 13.5h-59l159 255h-268v55h362l-70 -113l-28 -44.5l-26 -42.5l-22 -35.5l-15 -23.5q49 -6 87 -27t64 -52.5t40 -71
t14 -81.5q0 -45 -17 -86t-48 -72.5t-74 -50t-95 -18.5z" />
    <glyph glyph-name="four" unicode="4" horiz-adv-x="590" 
d="M385 191h-383l440 527v-475h134v-52h-134v-191h-57v191zM385 570l-269 -327h269v327z" />
    <glyph glyph-name="five" unicode="5" horiz-adv-x="590" 
d="M281 -8q-63 0 -117 32t-83 83l49 31q19 -38 60 -65.5t92 -27.5q37 0 68.5 13t55 36t37 55t13.5 71t-13 72t-36.5 57t-56.5 37.5t-73 13.5q-42 0 -71.5 -18t-47.5 -35l-43 19v344h345v-55h-288v-231q21 12 48 20.5t57 8.5q56 0 100.5 -19t75 -51.5t47 -74.5t16.5 -88
q0 -45 -17 -86.5t-48 -73t-74.5 -50t-95.5 -18.5z" />
    <glyph glyph-name="six" unicode="6" horiz-adv-x="590" 
d="M300 -8q-48 0 -90 18t-73 49.5t-49 73t-18 89.5q0 35 11 67.5t28 61.5l220 359h64l-167 -270q17 6 35.5 9.5t38.5 3.5q48 0 90 -18t73.5 -49.5t49.5 -73.5t18 -90t-18 -89.5t-49.5 -73t-73.5 -49.5t-90 -18zM300 45q37 0 68.5 14t54.5 38t36 56t13 69t-13 69.5t-36 56.5
t-54.5 38t-68.5 14t-68.5 -14t-54 -38t-35.5 -56.5t-13 -69.5t13 -69t35.5 -56t54 -38t68.5 -14z" />
    <glyph glyph-name="seven" unicode="7" horiz-adv-x="590" 
d="M449 655h-367v55h454l-349 -710h-60z" />
    <glyph glyph-name="eight" unicode="8" horiz-adv-x="590" 
d="M295 -8q-48 0 -90 18t-73 49.5t-49 73t-18 89.5q0 70 37 126t97 83q-29 22 -46 54.5t-17 73.5q0 34 12.5 63t34 50.5t50.5 33.5t62 12t62 -12t51 -33.5t34.5 -50.5t12.5 -63q0 -41 -17.5 -73.5t-46.5 -54.5q60 -27 97.5 -83t37.5 -126q0 -48 -18 -89.5t-49.5 -73
t-73.5 -49.5t-90 -18zM295 45q37 0 68.5 14t54.5 38t36 56t13 69t-13 69.5t-36 57t-54.5 38.5t-68.5 14t-68.5 -14t-54 -38.5t-35.5 -57t-13 -69.5t13 -69t35.5 -56t54 -38t68.5 -14zM290 452h9q45 2 71 32.5t26 74.5q0 45 -27 75.5t-74 30.5t-73.5 -30.5t-26.5 -75.5
q0 -44 25 -74.5t70 -32.5z" />
    <glyph glyph-name="nine" unicode="9" horiz-adv-x="590" 
d="M364 270q-17 -6 -35.5 -9.5t-38.5 -3.5q-48 0 -90 18t-73.5 49.5t-49.5 73.5t-18 90t18 89.5t49.5 73t73.5 49.5t90 18t89.5 -18t73 -49.5t49.5 -73t18 -89.5q0 -35 -11 -67.5t-28 -61.5l-221 -359h-63zM290 310q37 0 68.5 14t54 38t35.5 56.5t13 69.5t-13 69t-35.5 56
t-54 38t-68.5 14t-68.5 -14t-54.5 -38t-36 -56t-13 -69t13 -69.5t36 -56.5t54.5 -38t68.5 -14z" />
    <glyph glyph-name="colon" unicode=":" horiz-adv-x="256" 
d="M128 388q-25 0 -42 18t-17 41q0 25 17 43t42 18t42 -18t17 -43q0 -23 -17 -41t-42 -18zM128 -8q-25 0 -42 18t-17 41q0 25 17 43t42 18t42 -18t17 -43q0 -23 -17 -41t-42 -18z" />
    <glyph glyph-name="semicolon" unicode=";" horiz-adv-x="260" 
d="M124 0h-42v103h96v-104l-54 -137h-44zM130 388q-25 0 -42 18t-17 41q0 25 17 43t42 18t42 -18t17 -43q0 -23 -17 -41t-42 -18z" />
    <glyph glyph-name="equal" unicode="=" horiz-adv-x="590" 
d="M71 187h449v-54h-449v54zM71 408h449v-54h-449v54z" />
    <glyph glyph-name="question" unicode="?" horiz-adv-x="539" 
d="M227 328h30q38 0 69.5 13t54 36t35 54t12.5 66q0 34 -12.5 64.5t-34.5 53t-52.5 36t-67.5 13.5t-68 -13.5t-53.5 -36.5t-35 -53.5t-12.5 -65.5v-3h-58q0 47 17 88t47 72t71 48.5t90 17.5t90.5 -17.5t72 -48t47.5 -71.5t17 -87t-16.5 -85t-45 -67.5t-66 -46t-79.5 -20.5
v-61h-52v114zM253 -8q-25 0 -42 18t-17 41q0 17 9 31.5t23 22.5h54q14 -8 23 -22.5t9 -31.5q0 -23 -17 -41t-42 -18z" />
    <glyph glyph-name="at" unicode="@" horiz-adv-x="818" 
d="M380 164q-35 0 -64.5 13t-51.5 36.5t-34.5 55t-12.5 68.5q0 45 17 85t46.5 69.5t69.5 46.5t87 17q33 0 61 -11t48 -28l7 30h54l-52 -252q-3 -17 -3 -31t5.5 -25t17 -17t31.5 -6q24 0 46 12.5t38.5 36.5t26 60t9.5 84q0 58 -21 106.5t-59 82.5t-90.5 53t-114.5 19
q-67 0 -128 -23.5t-107 -66.5t-73 -104.5t-27 -137.5q0 -63 19.5 -116.5t57 -93t92 -61.5t125.5 -22q45 0 96 10t92 32l21 -50q-47 -21 -103.5 -32.5t-105.5 -11.5q-81 0 -145.5 27t-110 73.5t-69.5 109.5t-24 135q0 85 32.5 155.5t87 120.5t125 77.5t146.5 27.5
q71 0 132.5 -22t107.5 -62.5t72 -98t26 -129.5q0 -65 -17 -111.5t-43.5 -75.5t-58.5 -42.5t-62 -13.5q-32 0 -57 13.5t-36 35.5q-23 -22 -56 -35t-70 -13zM391 215q26 0 53.5 10.5t47.5 36.5l42 194q-16 26 -44 37t-57 11q-32 0 -61.5 -11.5t-51.5 -32.5t-35 -51.5
t-13 -68.5q0 -59 31.5 -92t87.5 -33z" />
    <glyph glyph-name="A" unicode="A" horiz-adv-x="678" 
d="M339 718l343 -718h-65l-104 217h-348l-103 -217h-65zM193 276h292l-146 307z" />
    <glyph glyph-name="B" unicode="B" horiz-adv-x="626" 
d="M102 710h217q52 0 91.5 -14.5t66.5 -39.5t40.5 -57t13.5 -66q0 -60 -24 -98t-62 -58q27 -8 51.5 -23t42.5 -37.5t28.5 -53t10.5 -68.5q0 -49 -19 -85.5t-53.5 -61t-83 -36.5t-107.5 -12h-213v710zM342 57q88 0 131 39t43 102q0 31 -10.5 57t-32 45t-54 30t-76.5 11h-179
v-284h178zM328 396q68 0 104.5 36.5t36.5 91.5q0 26 -9.5 49.5t-27.5 41t-44 28t-60 10.5h-164v-257h164z" />
    <glyph glyph-name="C" unicode="C" horiz-adv-x="668" 
d="M413 -8q-77 0 -143 27.5t-115 76.5t-77 115.5t-28 143.5t28 143.5t77 115t115 76.5t143 28q65 0 122 -19.5t103 -57.5l-34 -50q-38 32 -86 50t-105 18q-64 0 -119 -23.5t-95 -64t-62.5 -96.5t-22.5 -120q0 -65 22.5 -120.5t62.5 -96t95 -64t119 -23.5q57 0 105.5 18
t86.5 50l33 -50q-45 -37 -102.5 -57t-122.5 -20z" />
    <glyph glyph-name="D" unicode="D" horiz-adv-x="734" 
d="M299 59q73 0 132 22t101 61.5t65 93.5t23 119q0 64 -23 118.5t-65 94t-101 61.5t-132 22h-135v-592h135zM102 710h197q85 0 155.5 -26.5t121.5 -74t79.5 -112.5t28.5 -142t-28.5 -142.5t-79.5 -112.5t-121.5 -73.5t-155.5 -26.5h-197v710z" />
    <glyph glyph-name="E" unicode="E" horiz-adv-x="549" 
d="M102 710h398v-59h-336v-255h276v-60h-276v-277h336v-59h-398v710z" />
    <glyph glyph-name="F" unicode="F" horiz-adv-x="506" 
d="M102 710h384v-59h-322v-255h252v-60h-252v-336h-62v710z" />
    <glyph glyph-name="G" unicode="G" horiz-adv-x="723" 
d="M413 -8q-77 0 -143 27.5t-115 76.5t-77 115.5t-28 143.5t28 143.5t77 115t115 76.5t143 28q69 0 128 -20t107 -56l-35 -50q-38 31 -88 49t-112 18q-64 0 -119 -23.5t-95 -64t-62.5 -96.5t-22.5 -120q0 -65 22.5 -120.5t62.5 -96t95 -64t119 -23.5q48 0 96 11t86 32v242
h-206l27 60h241v-335q-50 -32 -114.5 -50.5t-129.5 -18.5z" />
    <glyph glyph-name="H" unicode="H" horiz-adv-x="765" 
d="M102 710h62v-314h437v314h62v-710h-62v336h-437v-336h-62v710z" />
    <glyph glyph-name="I" unicode="I" horiz-adv-x="266" 
d="M102 710h62v-710h-62v710z" />
    <glyph glyph-name="J" unicode="J" horiz-adv-x="509" 
d="M218 -8q-42 0 -77.5 13.5t-62 38.5t-41.5 61t-15 82h62q0 -35 10.5 -60t28.5 -41.5t42.5 -25t51.5 -9.5q60 0 97.5 33.5t37.5 102.5v523h62v-533q0 -46 -15.5 -80.5t-42 -58t-62 -35t-76.5 -11.5z" />
    <glyph glyph-name="K" unicode="K" horiz-adv-x="618" 
d="M102 710h62v-355l352 355h80l-358 -362l385 -348h-87l-372 338v-338h-62v710z" />
    <glyph glyph-name="L" unicode="L" horiz-adv-x="506" 
d="M102 710h62v-651h327v-59h-389v710z" />
    <glyph glyph-name="M" unicode="M" horiz-adv-x="888" 
d="M102 718l342 -391l342 391v-718h-62v560l-280 -322l-280 322v-560h-62v718z" />
    <glyph glyph-name="N" unicode="N" horiz-adv-x="795" 
d="M164 565v-565h-62v718l529 -573v565h62v-718z" />
    <glyph glyph-name="O" unicode="O" horiz-adv-x="826" 
d="M413 51q64 0 119 23.5t95 64t62.5 96t22.5 120.5q0 64 -22.5 120t-62.5 96.5t-95 64t-119 23.5t-119 -23.5t-95 -64t-62.5 -96.5t-22.5 -120q0 -65 22.5 -120.5t62.5 -96t95 -64t119 -23.5zM413 -8q-77 0 -143 27.5t-115 76.5t-77 115.5t-28 143.5t28 143.5t77 115
t115 76.5t143 28q76 0 142.5 -28t115.5 -76.5t77 -115t28 -143.5t-28 -143.5t-77 -115.5t-115.5 -76.5t-142.5 -27.5z" />
    <glyph glyph-name="P" unicode="P" horiz-adv-x="568" 
d="M102 710h186q116 0 181 -53.5t65 -153.5q0 -97 -65 -152t-181 -55h-124v-296h-62v710zM288 353q91 0 136 38.5t45 111.5t-45 112t-136 39h-124v-301h124z" />
    <glyph glyph-name="Q" unicode="Q" horiz-adv-x="838" 
d="M650 77q-48 -40 -108 -62.5t-129 -22.5q-77 0 -143 27.5t-115 76.5t-77 115.5t-28 143.5t28 143.5t77 115t115 76.5t143 28q76 0 142.5 -28t115.5 -76.5t77 -115t28 -143.5q0 -69 -22 -128.5t-62 -107.5l86 -85l-42 -42zM413 51q57 0 106.5 18.5t87.5 50.5l-88 89l42 42
l87 -88q30 39 47 87.5t17 104.5q0 64 -22.5 120t-62.5 96.5t-95 64t-119 23.5t-119 -23.5t-95 -64t-62.5 -96.5t-22.5 -120q0 -65 22.5 -120.5t62.5 -96t95 -64t119 -23.5z" />
    <glyph glyph-name="R" unicode="R" horiz-adv-x="602" 
d="M256 321h-92v-321h-62v710h188q110 0 170.5 -51.5t60.5 -143.5q0 -82 -50.5 -133t-142.5 -60l269 -322h-77zM288 378q85 0 126.5 35.5t41.5 101.5t-41.5 101.5t-126.5 35.5h-124v-274h124z" />
    <glyph glyph-name="S" unicode="S" horiz-adv-x="527" 
d="M257 -8q-37 0 -70 8.5t-61.5 23t-51 32t-37.5 35.5l47 43q13 -16 31 -31t40 -26.5t47.5 -18.5t54.5 -7q73 0 117.5 33t44.5 89q0 59 -34.5 92t-95.5 60l-75 32q-81 35 -116 82t-35 112q0 38 17 69t45.5 52.5t65 33.5t74.5 12q63 0 114 -25.5t84 -64.5l-46 -43
q-28 33 -64 53.5t-91 20.5q-28 0 -53 -7.5t-43.5 -22t-29.5 -35.5t-11 -47q0 -45 24.5 -76t85.5 -57l75 -32q36 -15 67.5 -34t54.5 -43t36.5 -54.5t13.5 -68.5q0 -41 -15 -75.5t-44 -60t-71 -40t-95 -14.5z" />
    <glyph glyph-name="T" unicode="T" horiz-adv-x="495" 
d="M216 651h-201v59h465v-59h-202v-651h-62v651z" />
    <glyph glyph-name="U" unicode="U" horiz-adv-x="743" 
d="M371 -8q-62 0 -113 18t-87.5 52.5t-57 85t-20.5 115.5v447h62v-450q0 -53 15.5 -92t44 -65t68.5 -39t88 -13q49 0 89 13t68.5 39t44 65t15.5 92v450h62v-447q0 -65 -20.5 -115.5t-57.5 -85t-88.5 -52.5t-112.5 -18z" />
    <glyph glyph-name="V" unicode="V" horiz-adv-x="654" 
d="M5 710h65l257 -579l257 579h65l-322 -718z" />
    <glyph glyph-name="W" unicode="W" horiz-adv-x="898" 
d="M13 710h64l178 -549l194 557l194 -557l178 549h64l-241 -718l-195 565l-195 -565z" />
    <glyph glyph-name="X" unicode="X" horiz-adv-x="627" 
d="M278 365l-255 345h70l220 -298l221 298h70l-255 -345l269 -365h-72l-233 317l-232 -317h-72z" />
    <glyph glyph-name="Y" unicode="Y" horiz-adv-x="606" 
d="M272 302l-259 408h71l220 -350l219 350h70l-259 -408v-302h-62v302z" />
    <glyph glyph-name="Z" unicode="Z" horiz-adv-x="578" 
d="M435 651h-381v59h488l-425 -651h435v-59h-542z" />
    <glyph glyph-name="bracketleft" unicode="[" horiz-adv-x="292" 
d="M96 733h167v-55h-110v-756h110v-55h-167v866z" />
    <glyph glyph-name="bracketright" unicode="]" horiz-adv-x="292" 
d="M196 -133h-167v55h110v756h-110v55h167v-866z" />
    <glyph glyph-name="underscore" unicode="_" horiz-adv-x="567" 
d="M74 0h419v-55h-419v55z" />
    <glyph glyph-name="grave" unicode="`" horiz-adv-x="213" 
d="M30 710h81l91 -165h-54z" />
    <glyph glyph-name="a" unicode="a" horiz-adv-x="624" 
d="M484 68q-72 -76 -184 -76q-56 0 -102.5 20.5t-80.5 55.5t-52.5 82t-18.5 100t18.5 100t52.5 82t80.5 55.5t102.5 20.5q55 0 101.5 -19t82.5 -58v69h57v-500h-57v68zM300 45q67 0 114 29t70 71v211q-24 42 -71 70.5t-113 28.5q-43 0 -79 -16.5t-61.5 -44t-40 -65
t-14.5 -79.5t14.5 -79.5t40 -65t61.5 -44t79 -16.5z" />
    <glyph glyph-name="b" unicode="b" horiz-adv-x="626" 
d="M83 710h57v-280q72 78 185 78q56 0 102.5 -20.5t80.5 -55.5t52.5 -82t18.5 -100t-18.5 -100t-52.5 -82t-80.5 -55.5t-102.5 -20.5q-114 0 -185 77v-69h-57v710zM325 455q-67 0 -114.5 -29.5t-70.5 -71.5v-209q23 -42 70.5 -71t114.5 -29q43 0 79 16.5t61.5 44t40 65
t14.5 79.5t-14.5 79.5t-40 65t-61.5 44t-79 16.5z" />
    <glyph glyph-name="c" unicode="c" horiz-adv-x="524" 
d="M300 -8q-55 0 -101.5 20.5t-80.5 55.5t-53 82t-19 100t19 100t53 82t80.5 55.5t101.5 20.5q65 0 112 -22t79 -52l-36 -41q-28 26 -66 44t-89 18q-42 0 -78 -16.5t-62 -44t-40.5 -65t-14.5 -79.5t14.5 -79.5t40.5 -65t62 -44t78 -16.5q51 0 89 18t66 44l36 -41
q-32 -30 -79 -52t-112 -22z" />
    <glyph glyph-name="d" unicode="d" horiz-adv-x="624" 
d="M484 68q-72 -76 -184 -76q-56 0 -102.5 20.5t-80.5 55.5t-52.5 82t-18.5 100t18.5 100t52.5 82t80.5 55.5t102.5 20.5q55 0 101.5 -19t82.5 -58v279h57v-710h-57v68zM300 45q67 0 114 29t70 71v211q-24 42 -71 70.5t-113 28.5q-43 0 -79 -16.5t-61.5 -44t-40 -65
t-14.5 -79.5t14.5 -79.5t40 -65t61.5 -44t79 -16.5z" />
    <glyph glyph-name="e" unicode="e" horiz-adv-x="563" 
d="M300 -8q-56 0 -102.5 20.5t-80 55.5t-52.5 82t-19 100q0 54 19 101t52 82t77.5 55t95.5 20q49 0 91.5 -15.5t74.5 -48t50.5 -81t20.5 -114.5h-422q0 -42 14.5 -79t40.5 -65t62 -44t78 -16q51 0 89.5 17.5t66.5 43.5l36 -40q-32 -30 -79.5 -52t-112.5 -22zM288 455
q-32 0 -61.5 -11t-53.5 -31.5t-40.5 -49t-23.5 -63.5h355q-4 39 -19.5 68t-39 48.5t-54 29t-63.5 9.5z" />
    <glyph glyph-name="f" unicode="f" horiz-adv-x="332" 
d="M19 500h91q-19 16 -29.5 39.5t-10.5 50.5q0 53 40.5 86.5t108.5 33.5h101v-54h-104q-36 0 -62 -18t-26 -56q0 -41 25.5 -61.5t56.5 -20.5h110v-55h-146v-445h-57v445h-98v55z" />
    <glyph glyph-name="g" unicode="g" horiz-adv-x="617" 
d="M292 -194q-57 0 -113 16t-97 44l30 48q16 -12 37.5 -22t46 -17.5t51 -11.5t52.5 -4q36 0 70.5 8t61 26t43 46t16.5 68q0 17 -3.5 39.5t-11.5 38.5q-70 -76 -181 -76q-56 0 -101 19.5t-77.5 53.5t-50 79.5t-17.5 96.5q0 52 17.5 97.5t50 79.5t77.5 53.5t101 19.5
t100 -18.5t80 -56.5v67h57v-397q9 -25 13.5 -50t4.5 -47q0 -54 -22.5 -92t-58.5 -62t-82 -35t-94 -11zM294 62q66 0 111.5 28t68.5 69v199q-23 42 -68.5 69.5t-111.5 27.5q-43 0 -77.5 -15.5t-59 -42t-37.5 -62.5t-13 -77t13 -76.5t37.5 -62t59 -42t77.5 -15.5z" />
    <glyph glyph-name="h" unicode="h" 
d="M83 710h57v-282q30 45 76 62.5t96 17.5q39 0 72.5 -13t58 -38t38.5 -60.5t14 -80.5v-316h-57v308q0 72 -39 109.5t-102 37.5q-65 0 -104 -34.5t-53 -88.5v-332h-57v710z" />
    <glyph glyph-name="i" unicode="i" horiz-adv-x="223" 
d="M84 627q-10 7 -16 17.5t-6 23.5q0 20 15 35t35 15t35 -15t15 -35q0 -13 -6 -23.5t-16 -17.5h-56zM83 500h57v-500h-57v500z" />
    <glyph glyph-name="j" unicode="j" horiz-adv-x="231" 
d="M-15 -129h34q42 0 57 19.5t15 61.5v548h57v-541q0 -72 -28.5 -107.5t-101.5 -35.5h-33v55zM92 627q-10 7 -16 17.5t-6 23.5q0 20 15 35t35 15t35 -15t15 -35q0 -13 -6 -23.5t-16 -17.5h-56z" />
    <glyph glyph-name="k" unicode="k" horiz-adv-x="486" 
d="M83 710h57v-438l249 228h75l-258 -237l281 -263h-79l-268 250v-250h-57v710z" />
    <glyph glyph-name="l" unicode="l" horiz-adv-x="223" 
d="M83 710h57v-710h-57v710z" />
    <glyph glyph-name="m" unicode="m" horiz-adv-x="867" 
d="M734 308q0 71 -36 109t-93 38t-91.5 -33.5t-48.5 -87.5q1 -5 1 -9v-9v-316h-57v308q0 71 -36.5 109t-93.5 38q-53 0 -88.5 -30t-50.5 -78v-347h-57v500h57v-65q30 41 71.5 57t82.5 16q48 0 87.5 -23.5t61.5 -68.5q16 27 37 44.5t43.5 28t45.5 15t44 4.5q39 0 72 -13
t56.5 -38t36.5 -60.5t13 -80.5v-316h-57v308z" />
    <glyph glyph-name="n" unicode="n" 
d="M83 500h57v-72q30 45 76 62.5t96 17.5q39 0 72.5 -13t58 -38t38.5 -60.5t14 -80.5v-316h-57v308q0 72 -39 109.5t-102 37.5q-65 0 -104 -34.5t-53 -88.5v-332h-57v500z" />
    <glyph glyph-name="o" unicode="o" horiz-adv-x="610" 
d="M305 45q45 0 82 16.5t63.5 44t40.5 65t14 79.5t-14 79.5t-40.5 65t-63.5 44t-82 16.5t-81.5 -16.5t-63 -44t-41 -65t-14.5 -79.5t14.5 -79.5t41 -65t63 -44t81.5 -16.5zM305 -8q-57 0 -104.5 20.5t-82 55.5t-53.5 82t-19 100t19 100t53.5 82t82 55.5t104.5 20.5
t104.5 -20.5t82 -55.5t53.5 -82t19 -100t-19 -100t-53.5 -82t-82 -55.5t-104.5 -20.5z" />
    <glyph glyph-name="p" unicode="p" horiz-adv-x="626" 
d="M83 500h57v-70q72 78 185 78q56 0 102.5 -20.5t80.5 -55.5t52.5 -82t18.5 -100t-18.5 -100t-52.5 -82t-80.5 -55.5t-102.5 -20.5q-114 0 -185 77v-253h-57v684zM325 455q-67 0 -114.5 -29.5t-70.5 -71.5v-209q23 -42 70.5 -71t114.5 -29q43 0 79 16.5t61.5 44t40 65
t14.5 79.5t-14.5 79.5t-40 65t-61.5 44t-79 16.5z" />
    <glyph glyph-name="q" unicode="q" horiz-adv-x="624" 
d="M484 68q-72 -76 -184 -76q-56 0 -102.5 20.5t-80.5 55.5t-52.5 82t-18.5 100t18.5 100t52.5 82t80.5 55.5t102.5 20.5q55 0 101.5 -19t82.5 -58v69h57v-684h-57v252zM300 45q67 0 114 29t70 71v211q-24 42 -71 70.5t-113 28.5q-43 0 -79 -16.5t-61.5 -44t-40 -65
t-14.5 -79.5t14.5 -79.5t40 -65t61.5 -44t79 -16.5z" />
    <glyph glyph-name="r" unicode="r" horiz-adv-x="337" 
d="M83 500h57v-76q26 38 65 58.5t85 20.5q16 0 33 -3v-59q-22 5 -39 5q-49 0 -88 -28t-56 -76v-342h-57v500z" />
    <glyph glyph-name="s" unicode="s" horiz-adv-x="417" 
d="M204 -8q-54 0 -99.5 25t-68.5 73l49 30q20 -36 49 -55.5t73 -19.5q23 0 43.5 5.5t35.5 16t24 26t9 34.5q0 37 -22.5 59t-76.5 41l-46 16q-34 12 -56 28t-35 35t-18.5 39t-5.5 40q0 25 11 47.5t31 39.5t48 26.5t61 9.5q48 0 85.5 -23.5t56.5 -68.5l-49 -21
q-11 27 -35 43.5t-60 16.5q-37 0 -63.5 -18.5t-26.5 -52.5q0 -29 16 -52.5t67 -41.5l49 -17q63 -23 95 -58t32 -87q0 -27 -11.5 -51.5t-33.5 -43t-54.5 -30t-73.5 -11.5z" />
    <glyph glyph-name="t" unicode="t" horiz-adv-x="337" 
d="M11 500h100v122l57 28v-150h149l-13 -55h-136v-311q0 -42 17.5 -60.5t63.5 -18.5h61v-55h-62q-67 0 -102 30t-35 102v313h-87z" />
    <glyph glyph-name="u" unicode="u" 
d="M431 70q-31 -44 -77 -61t-94 -17q-39 0 -73 13t-58.5 38t-38.5 60.5t-14 80.5v316h57v-308q0 -72 39.5 -109.5t102.5 -37.5t102.5 34t53.5 88v333h57v-500h-57v70z" />
    <glyph glyph-name="v" unicode="v" horiz-adv-x="511" 
d="M2 500h64l190 -388l189 388h64l-253 -508z" />
    <glyph glyph-name="w" unicode="w" horiz-adv-x="691" 
d="M15 500h59l126 -400l146 408l145 -408l126 400h59l-159 -500h-41l-130 359l-128 -359h-43z" />
    <glyph glyph-name="x" unicode="x" horiz-adv-x="500" 
d="M216 255l-191 245h67l158 -201l158 201h67l-191 -245l201 -255h-67l-168 213l-168 -213h-67z" />
    <glyph glyph-name="y" unicode="y" horiz-adv-x="502" 
d="M222 55l-214 445h64l180 -389l181 389h64l-329 -684h-61z" />
    <glyph glyph-name="z" unicode="z" horiz-adv-x="473" 
d="M339 445h-290v55h393l-321 -445h315v-55h-417z" />
    <glyph glyph-name="braceleft" unicode="{" horiz-adv-x="301" 
d="M232 -133q-37 0 -60.5 9t-37 26.5t-18.5 44.5t-5 63v183q0 40 -10 59.5t-50 19.5h-18v55h18q40 0 50 19.5t10 59.5v184q0 36 5 63t18.5 44.5t37 26.5t60.5 9h33v-55h-33q-41 0 -52 -20t-11 -61v-182q0 -47 -9 -73t-41 -42q32 -18 41 -43.5t9 -72.5v-181q0 -42 11 -61.5
t52 -19.5h33v-55h-33v0z" />
    <glyph glyph-name="bar" unicode="|" horiz-adv-x="249" 
d="M96 710h57v-894h-57v894z" />
    <glyph glyph-name="braceright" unicode="}" horiz-adv-x="301" 
d="M69 -133h-33v55h33q41 0 52 19.5t11 61.5v181q0 47 9 72.5t41 43.5q-32 16 -41 42t-9 73v182q0 41 -11 61t-52 20h-33v55h33q37 0 60.5 -9t37 -26.5t18.5 -44.5t5 -63v-184q0 -40 10 -59.5t50 -19.5h18v-55h-18q-40 0 -50 -19.5t-10 -59.5v-183q0 -36 -5 -63t-18.5 -44.5
t-37 -26.5t-60.5 -9z" />
    <glyph glyph-name="uni00A0" unicode="&#xa0;" horiz-adv-x="248" 
 />
    <glyph glyph-name="exclamdown" unicode="&#xa1;" horiz-adv-x="236" 
d="M89 86l11 211h36l10 -211v-270h-57v270zM90 395q-13 8 -21 24t-8 32q0 24 17.5 40.5t40.5 16.5t40 -19.5t17 -43.5q0 -17 -8 -30t-22 -20h-56z" />
    <glyph glyph-name="sterling" unicode="&#xa3;" horiz-adv-x="574" 
d="M56 365h105q-32 28 -50.5 67.5t-18.5 85.5q0 42 15 78.5t42 63.5t64.5 42.5t82.5 15.5q46 0 84 -16t65 -44t42 -65.5t15 -79.5h-59q0 31 -10.5 58.5t-29.5 48.5t-46 33t-61 12q-33 0 -60 -11.5t-46.5 -31t-30 -46.5t-10.5 -58t10.5 -59t30 -49t46.5 -33t60 -12h84v-54
h-166v-256h324v-55h-482v55h100v256h-100v54z" />
    <glyph glyph-name="yen" unicode="&#xa5;" horiz-adv-x="629" 
d="M135 318h141l-249 392h66l222 -350l221 350h66l-249 -392h142v-55h-152v-75h152v-55h-152v-133h-57v133h-151v55h151v75h-151v55z" />
    <glyph glyph-name="dieresis" unicode="&#xa8;" horiz-adv-x="341" 
d="M61 580q-22 0 -37 15t-15 37t15 37t37 15t37 -15t15 -37t-15 -37t-37 -15zM281 580q-22 0 -37 15t-15 37t15 37t37 15t37 -15t15 -37t-15 -37t-37 -15z" />
    <glyph glyph-name="copyright" unicode="&#xa9;" horiz-adv-x="824" 
d="M429 144q-47 0 -86.5 17t-68 45.5t-44 67t-15.5 81.5q0 44 15.5 83t44 68t68 45.5t86.5 16.5q52 0 91 -19.5t68 -53.5l-38 -33q-20 26 -50.5 41.5t-70.5 15.5q-35 0 -64.5 -13t-50.5 -35t-33 -52t-12 -64t12 -63.5t33 -51t50.5 -34t64.5 -12.5q38 0 68 14.5t50 38.5
l37 -36q-29 -30 -67 -48.5t-88 -18.5zM411 49q63 0 119 24t98 66t66 97.5t24 118.5t-24 119t-66 98t-98 66t-119 24t-118.5 -24t-97.5 -66t-66 -98t-24 -119t24 -118.5t66 -97.5t97.5 -66t118.5 -24zM412 -8q-75 0 -141 28.5t-115.5 78t-78 115.5t-28.5 141t28.5 141
t78 115.5t115.5 78t141 28.5t141 -28.5t115.5 -78t78 -115.5t28.5 -141t-28.5 -141t-78 -115.5t-115.5 -78t-141 -28.5z" />
    <glyph glyph-name="guillemotleft" unicode="&#xab;" horiz-adv-x="488" 
d="M238 250l147 213l46 -30l-126 -183l126 -183l-46 -30zM48 250l147 213l46 -30l-126 -183l126 -183l-46 -30z" />
    <glyph glyph-name="uni00AD" unicode="&#xad;" horiz-adv-x="367" 
d="M70 303h227v-65h-227v65z" />
    <glyph glyph-name="macron" unicode="&#xaf;" horiz-adv-x="322" 
d="M22 680h278v-51h-278v51z" />
    <glyph glyph-name="degree" unicode="&#xb0;" horiz-adv-x="342" 
d="M171 519q30 0 51.5 21.5t21.5 51.5t-21.5 51.5t-51.5 21.5t-51.5 -21.5t-21.5 -51.5t21.5 -51.5t51.5 -21.5zM171 470q-25 0 -47.5 9.5t-39 26t-26 39t-9.5 47.5t9.5 47.5t26 39t39 26t47.5 9.5t47.5 -9.5t39 -26t26 -39t9.5 -47.5t-9.5 -47.5t-26 -39t-39 -26
t-47.5 -9.5z" />
    <glyph glyph-name="acute" unicode="&#xb4;" horiz-adv-x="213" 
d="M102 710h81l-118 -165h-54z" />
    <glyph glyph-name="periodcentered" unicode="&#xb7;" horiz-adv-x="258" 
d="M129 207q-25 0 -42 18t-17 41q0 25 17 43t42 18t42 -18t17 -43q0 -23 -17 -41t-42 -18z" />
    <glyph glyph-name="cedilla" unicode="&#xb8;" horiz-adv-x="126" 
d="M61 0h40l-52 -137h-74z" />
    <glyph glyph-name="guillemotright" unicode="&#xbb;" horiz-adv-x="488" 
d="M293 37l-46 30l126 183l-126 183l46 30l147 -213zM103 37l-46 30l126 183l-126 183l46 30l147 -213z" />
    <glyph glyph-name="questiondown" unicode="&#xbf;" horiz-adv-x="530" 
d="M274 -194q-49 0 -90.5 17.5t-72 48t-47.5 71.5t-17 87t16.5 85t45 67.5t65.5 46t79 20.5v42h53v-95h-30q-38 0 -69.5 -13t-54 -36t-35 -54t-12.5 -66q0 -34 12.5 -64.5t34.5 -53t52.5 -36t67.5 -13.5t68 13.5t53.5 36.5t35 53.5t12.5 65.5v3h58q0 -47 -17 -88t-47 -72
t-71 -48.5t-90 -17.5zM279 508q25 0 42 -18t17 -41q0 -17 -9 -31.5t-23 -22.5h-54q-14 8 -23 22.5t-9 31.5q0 23 17 41t42 18z" />
    <glyph glyph-name="Agrave" unicode="&#xc0;" horiz-adv-x="678" 
d="M339 718l343 -718h-65l-104 217h-348l-103 -217h-65zM193 276h292l-146 307zM203 913h82l82 -145h-56z" />
    <glyph glyph-name="Aacute" unicode="&#xc1;" horiz-adv-x="678" 
d="M339 718l343 -718h-65l-104 217h-348l-103 -217h-65zM193 276h292l-146 307zM395 913h82l-109 -145h-55z" />
    <glyph glyph-name="Acircumflex" unicode="&#xc2;" horiz-adv-x="678" 
d="M339 718l343 -718h-65l-104 217h-348l-103 -217h-65zM193 276h292l-146 307zM167 816l172 112l173 -111l-32 -44l-141 93l-141 -93z" />
    <glyph glyph-name="Atilde" unicode="&#xc3;" horiz-adv-x="678" 
d="M339 718l343 -718h-65l-104 217h-348l-103 -217h-65zM193 276h292l-146 307zM405 789q-21 0 -39 7.5t-33.5 16.5t-30 16.5t-28.5 7.5q-21 0 -32 -11.5t-16 -34.5h-55l3 14q9 42 38 64.5t62 22.5q21 0 38 -7.5t32.5 -16l29.5 -16t28 -7.5q22 0 33.5 11t16.5 34h55l-3 -14
q-8 -40 -35.5 -63.5t-63.5 -23.5z" />
    <glyph glyph-name="Adieresis" unicode="&#xc4;" horiz-adv-x="678" 
d="M339 718l343 -718h-65l-104 217h-348l-103 -217h-65zM193 276h292l-146 307zM229 791q-22 0 -37 15t-15 37t15 37t37 15t37 -15t15 -37t-15 -37t-37 -15zM449 791q-22 0 -37 15t-15 37t15 37t37 15t37 -15t15 -37t-15 -37t-37 -15z" />
    <glyph glyph-name="Aring" unicode="&#xc5;" horiz-adv-x="678" 
d="M339 718l343 -718h-65l-104 217h-348l-103 -217h-65zM193 276h292l-146 307zM338 788q21 0 35.5 13t14.5 35t-14.5 35.5t-35.5 13.5q-20 0 -34.5 -13.5t-14.5 -35.5t14.5 -35t34.5 -13zM338 751q-37 0 -63 24t-26 61q0 38 26.5 61.5t62.5 23.5q38 0 64.5 -23.5
t26.5 -61.5q0 -37 -26.5 -61t-64.5 -24z" />
    <glyph glyph-name="AE" unicode="&#xc6;" horiz-adv-x="1028" 
d="M315 650l-29 60h401l28 -59h-336l122 -255h297l29 -60h-298l133 -277h336l28 -59h-401l-104 217h-348l-103 -217h-65zM201 276h292l-146 307z" />
    <glyph glyph-name="Ccedilla" unicode="&#xc7;" horiz-adv-x="668" 
d="M374 -6q-69 7 -128.5 37t-103 78t-68 111t-24.5 135q0 77 28 143.5t77 115t115 76.5t143 28q65 0 122 -19.5t103 -57.5l-34 -50q-38 32 -86 50t-105 18q-64 0 -119 -23.5t-95 -64t-62.5 -96.5t-22.5 -120q0 -65 22.5 -120.5t62.5 -96t95 -64t119 -23.5q57 0 105.5 18
t86.5 50l33 -50q-43 -35 -97 -55t-115 -22l-37 -129h-83z" />
    <glyph glyph-name="Egrave" unicode="&#xc8;" horiz-adv-x="549" 
d="M102 710h398v-59h-336v-255h276v-60h-276v-277h336v-59h-398v710zM192 913h82l82 -145h-56z" />
    <glyph glyph-name="Eacute" unicode="&#xc9;" horiz-adv-x="549" 
d="M102 710h398v-59h-336v-255h276v-60h-276v-277h336v-59h-398v710zM329 913h82l-109 -145h-55z" />
    <glyph glyph-name="Ecircumflex" unicode="&#xca;" horiz-adv-x="549" 
d="M102 710h398v-59h-336v-255h276v-60h-276v-277h336v-59h-398v710zM129 816l172 112l173 -111l-32 -44l-141 93l-141 -93z" />
    <glyph glyph-name="Edieresis" unicode="&#xcb;" horiz-adv-x="549" 
d="M102 710h398v-59h-336v-255h276v-60h-276v-277h336v-59h-398v710zM191 791q-22 0 -37 15t-15 37t15 37t37 15t37 -15t15 -37t-15 -37t-37 -15zM411 791q-22 0 -37 15t-15 37t15 37t37 15t37 -15t15 -37t-15 -37t-37 -15z" />
    <glyph glyph-name="Igrave" unicode="&#xcc;" horiz-adv-x="266" 
d="M102 710h62v-710h-62v710zM26 913h82l82 -145h-56z" />
    <glyph glyph-name="Iacute" unicode="&#xcd;" horiz-adv-x="266" 
d="M102 710h62v-710h-62v710zM158 913h82l-109 -145h-55z" />
    <glyph glyph-name="Icircumflex" unicode="&#xce;" horiz-adv-x="266" 
d="M102 710h62v-710h-62v710zM-38 816l172 112l173 -111l-32 -44l-141 93l-141 -93z" />
    <glyph glyph-name="Idieresis" unicode="&#xcf;" horiz-adv-x="266" 
d="M102 710h62v-710h-62v710zM24 791q-22 0 -37 15t-15 37t15 37t37 15t37 -15t15 -37t-15 -37t-37 -15zM244 791q-22 0 -37 15t-15 37t15 37t37 15t37 -15t15 -37t-15 -37t-37 -15z" />
    <glyph glyph-name="Eth" unicode="&#xd0;" horiz-adv-x="750" 
d="M14 400h104v310h197q85 0 155.5 -26.5t121.5 -74t79.5 -112.5t28.5 -142t-28.5 -142.5t-79.5 -112.5t-121.5 -73.5t-155.5 -26.5h-197v342h-104v58zM315 59q73 0 132 22t101 61.5t65 93.5t23 119q0 64 -23 118.5t-65 94t-101 61.5t-132 22h-135v-251h140v-58h-140v-283
h135z" />
    <glyph glyph-name="Ntilde" unicode="&#xd1;" horiz-adv-x="795" 
d="M164 565v-565h-62v718l529 -573v565h62v-718zM463 789q-21 0 -39 7.5t-33.5 16.5t-30 16.5t-28.5 7.5q-21 0 -32 -11.5t-16 -34.5h-55l3 14q9 42 38 64.5t62 22.5q21 0 38 -7.5t32.5 -16l29.5 -16t28 -7.5q22 0 33.5 11t16.5 34h55l-3 -14q-8 -40 -35.5 -63.5
t-63.5 -23.5z" />
    <glyph glyph-name="Ograve" unicode="&#xd2;" horiz-adv-x="826" 
d="M413 51q64 0 119 23.5t95 64t62.5 96t22.5 120.5q0 64 -22.5 120t-62.5 96.5t-95 64t-119 23.5t-119 -23.5t-95 -64t-62.5 -96.5t-22.5 -120q0 -65 22.5 -120.5t62.5 -96t95 -64t119 -23.5zM413 -8q-77 0 -143 27.5t-115 76.5t-77 115.5t-28 143.5t28 143.5t77 115
t115 76.5t143 28q76 0 142.5 -28t115.5 -76.5t77 -115t28 -143.5t-28 -143.5t-77 -115.5t-115.5 -76.5t-142.5 -27.5zM304 913h82l82 -145h-56z" />
    <glyph glyph-name="Oacute" unicode="&#xd3;" horiz-adv-x="826" 
d="M413 51q64 0 119 23.5t95 64t62.5 96t22.5 120.5q0 64 -22.5 120t-62.5 96.5t-95 64t-119 23.5t-119 -23.5t-95 -64t-62.5 -96.5t-22.5 -120q0 -65 22.5 -120.5t62.5 -96t95 -64t119 -23.5zM413 -8q-77 0 -143 27.5t-115 76.5t-77 115.5t-28 143.5t28 143.5t77 115
t115 76.5t143 28q76 0 142.5 -28t115.5 -76.5t77 -115t28 -143.5t-28 -143.5t-77 -115.5t-115.5 -76.5t-142.5 -27.5zM438 913h82l-109 -145h-55z" />
    <glyph glyph-name="Ocircumflex" unicode="&#xd4;" horiz-adv-x="826" 
d="M413 51q64 0 119 23.5t95 64t62.5 96t22.5 120.5q0 64 -22.5 120t-62.5 96.5t-95 64t-119 23.5t-119 -23.5t-95 -64t-62.5 -96.5t-22.5 -120q0 -65 22.5 -120.5t62.5 -96t95 -64t119 -23.5zM413 -8q-77 0 -143 27.5t-115 76.5t-77 115.5t-28 143.5t28 143.5t77 115
t115 76.5t143 28q76 0 142.5 -28t115.5 -76.5t77 -115t28 -143.5t-28 -143.5t-77 -115.5t-115.5 -76.5t-142.5 -27.5zM241 816l172 112l173 -111l-32 -44l-141 93l-141 -93z" />
    <glyph glyph-name="Otilde" unicode="&#xd5;" horiz-adv-x="826" 
d="M413 51q64 0 119 23.5t95 64t62.5 96t22.5 120.5q0 64 -22.5 120t-62.5 96.5t-95 64t-119 23.5t-119 -23.5t-95 -64t-62.5 -96.5t-22.5 -120q0 -65 22.5 -120.5t62.5 -96t95 -64t119 -23.5zM413 -8q-77 0 -143 27.5t-115 76.5t-77 115.5t-28 143.5t28 143.5t77 115
t115 76.5t143 28q76 0 142.5 -28t115.5 -76.5t77 -115t28 -143.5t-28 -143.5t-77 -115.5t-115.5 -76.5t-142.5 -27.5zM479 789q-21 0 -39 7.5t-33.5 16.5t-30 16.5t-28.5 7.5q-21 0 -32 -11.5t-16 -34.5h-55l3 14q9 42 38 64.5t62 22.5q21 0 38 -7.5t32.5 -16l29.5 -16
t28 -7.5q22 0 33.5 11t16.5 34h55l-3 -14q-8 -40 -35.5 -63.5t-63.5 -23.5z" />
    <glyph glyph-name="Odieresis" unicode="&#xd6;" horiz-adv-x="826" 
d="M413 51q64 0 119 23.5t95 64t62.5 96t22.5 120.5q0 64 -22.5 120t-62.5 96.5t-95 64t-119 23.5t-119 -23.5t-95 -64t-62.5 -96.5t-22.5 -120q0 -65 22.5 -120.5t62.5 -96t95 -64t119 -23.5zM413 -8q-77 0 -143 27.5t-115 76.5t-77 115.5t-28 143.5t28 143.5t77 115
t115 76.5t143 28q76 0 142.5 -28t115.5 -76.5t77 -115t28 -143.5t-28 -143.5t-77 -115.5t-115.5 -76.5t-142.5 -27.5zM303 791q-22 0 -37 15t-15 37t15 37t37 15t37 -15t15 -37t-15 -37t-37 -15zM523 791q-22 0 -37 15t-15 37t15 37t37 15t37 -15t15 -37t-15 -37t-37 -15z
" />
    <glyph glyph-name="multiply" unicode="&#xd7;" horiz-adv-x="590" 
d="M112 124l146 146l-146 146l37 37l146 -146l146 146l37 -37l-146 -146l147 -146l-38 -38l-146 146l-146 -146z" />
    <glyph glyph-name="Oslash" unicode="&#xd8;" horiz-adv-x="826" 
d="M96 20l62 73q-51 49 -79.5 116t-28.5 146q0 77 28 143.5t77 115t115 76.5t143 28q62 0 116.5 -18.5t99.5 -50.5l69 81l38 -34l-68 -80q51 -49 79.5 -116t28.5 -145q0 -77 -28 -143.5t-77 -115.5t-115.5 -76.5t-142.5 -27.5q-62 0 -116.5 18t-99.5 50l-63 -74zM114 355
q0 -64 22 -118.5t62 -96.5l392 463q-37 26 -81.5 41t-95.5 15q-64 0 -119 -23.5t-95 -64t-62.5 -96.5t-22.5 -120zM413 51q64 0 119 23.5t95 64t62.5 96t22.5 120.5q0 64 -22.5 118.5t-61.5 95.5l-392 -462q37 -27 81.5 -41.5t95.5 -14.5z" />
    <glyph glyph-name="Ugrave" unicode="&#xd9;" horiz-adv-x="743" 
d="M371 -8q-62 0 -113 18t-87.5 52.5t-57 85t-20.5 115.5v447h62v-450q0 -53 15.5 -92t44 -65t68.5 -39t88 -13q49 0 89 13t68.5 39t44 65t15.5 92v450h62v-447q0 -65 -20.5 -115.5t-57.5 -85t-88.5 -52.5t-112.5 -18zM262 913h82l82 -145h-56z" />
    <glyph glyph-name="Uacute" unicode="&#xda;" horiz-adv-x="743" 
d="M371 -8q-62 0 -113 18t-87.5 52.5t-57 85t-20.5 115.5v447h62v-450q0 -53 15.5 -92t44 -65t68.5 -39t88 -13q49 0 89 13t68.5 39t44 65t15.5 92v450h62v-447q0 -65 -20.5 -115.5t-57.5 -85t-88.5 -52.5t-112.5 -18zM399 913h82l-109 -145h-55z" />
    <glyph glyph-name="Ucircumflex" unicode="&#xdb;" horiz-adv-x="743" 
d="M371 -8q-62 0 -113 18t-87.5 52.5t-57 85t-20.5 115.5v447h62v-450q0 -53 15.5 -92t44 -65t68.5 -39t88 -13q49 0 89 13t68.5 39t44 65t15.5 92v450h62v-447q0 -65 -20.5 -115.5t-57.5 -85t-88.5 -52.5t-112.5 -18zM199 816l172 112l173 -111l-32 -44l-141 93l-141 -93z
" />
    <glyph glyph-name="Udieresis" unicode="&#xdc;" horiz-adv-x="743" 
d="M371 -8q-62 0 -113 18t-87.5 52.5t-57 85t-20.5 115.5v447h62v-450q0 -53 15.5 -92t44 -65t68.5 -39t88 -13q49 0 89 13t68.5 39t44 65t15.5 92v450h62v-447q0 -65 -20.5 -115.5t-57.5 -85t-88.5 -52.5t-112.5 -18zM261 791q-22 0 -37 15t-15 37t15 37t37 15t37 -15
t15 -37t-15 -37t-37 -15zM481 791q-22 0 -37 15t-15 37t15 37t37 15t37 -15t15 -37t-15 -37t-37 -15z" />
    <glyph glyph-name="Yacute" unicode="&#xdd;" horiz-adv-x="606" 
d="M272 302l-259 408h71l220 -350l219 350h70l-259 -408v-302h-62v302zM351 913h82l-109 -145h-55z" />
    <glyph glyph-name="Thorn" unicode="&#xde;" horiz-adv-x="578" 
d="M102 710h62v-146h116q119 0 186.5 -54.5t67.5 -152.5q0 -97 -67.5 -151.5t-186.5 -54.5h-116v-151h-62v710zM280 207q94 0 141.5 38.5t47.5 111.5t-47.5 112t-141.5 39h-116v-301h116z" />
    <glyph glyph-name="germandbls" unicode="&#xdf;" horiz-adv-x="552" 
d="M83 508q0 51 15 90t41 66t61.5 40.5t76.5 13.5t76 -14t60 -37.5t39 -54.5t14 -66q0 -59 -31.5 -99t-81.5 -58q73 -17 113 -67t40 -114q0 -43 -15.5 -80.5t-45 -66t-72.5 -45t-98 -16.5h-51v53h51q42 0 74.5 12t54.5 33t33.5 49.5t11.5 61.5q0 34 -13.5 62t-37.5 47.5
t-57.5 30.5t-74.5 11h-42v51h31q30 0 57.5 8.5t49 25t34.5 41t13 57.5q0 27 -10 49.5t-28 38.5t-42 25t-52 9q-60 0 -98.5 -39.5t-38.5 -118.5v-507h-57v508z" />
    <glyph glyph-name="agrave" unicode="&#xe0;" horiz-adv-x="624" 
d="M484 68q-72 -76 -184 -76q-56 0 -102.5 20.5t-80.5 55.5t-52.5 82t-18.5 100t18.5 100t52.5 82t80.5 55.5t102.5 20.5q55 0 101.5 -19t82.5 -58v69h57v-500h-57v68zM300 45q67 0 114 29t70 71v211q-24 42 -71 70.5t-113 28.5q-43 0 -79 -16.5t-61.5 -44t-40 -65
t-14.5 -79.5t14.5 -79.5t40 -65t61.5 -44t79 -16.5zM179 710h81l91 -165h-54z" />
    <glyph glyph-name="aacute" unicode="&#xe1;" horiz-adv-x="624" 
d="M484 68q-72 -76 -184 -76q-56 0 -102.5 20.5t-80.5 55.5t-52.5 82t-18.5 100t18.5 100t52.5 82t80.5 55.5t102.5 20.5q55 0 101.5 -19t82.5 -58v69h57v-500h-57v68zM300 45q67 0 114 29t70 71v211q-24 42 -71 70.5t-113 28.5q-43 0 -79 -16.5t-61.5 -44t-40 -65
t-14.5 -79.5t14.5 -79.5t40 -65t61.5 -44t79 -16.5zM364 710h81l-118 -165h-54z" />
    <glyph glyph-name="acircumflex" unicode="&#xe2;" horiz-adv-x="624" 
d="M484 68q-72 -76 -184 -76q-56 0 -102.5 20.5t-80.5 55.5t-52.5 82t-18.5 100t18.5 100t52.5 82t80.5 55.5t102.5 20.5q55 0 101.5 -19t82.5 -58v69h57v-500h-57v68zM300 45q67 0 114 29t70 71v211q-24 42 -71 70.5t-113 28.5q-43 0 -79 -16.5t-61.5 -44t-40 -65
t-14.5 -79.5t14.5 -79.5t40 -65t61.5 -44t79 -16.5zM147 606l167 112l166 -111l-27 -44l-139 95l-140 -95z" />
    <glyph glyph-name="atilde" unicode="&#xe3;" horiz-adv-x="624" 
d="M484 68q-72 -76 -184 -76q-56 0 -102.5 20.5t-80.5 55.5t-52.5 82t-18.5 100t18.5 100t52.5 82t80.5 55.5t102.5 20.5q55 0 101.5 -19t82.5 -58v69h57v-500h-57v68zM300 45q67 0 114 29t70 71v211q-24 42 -71 70.5t-113 28.5q-43 0 -79 -16.5t-61.5 -44t-40 -65
t-14.5 -79.5t14.5 -79.5t40 -65t61.5 -44t79 -16.5zM151 585q9 42 36.5 64t60.5 22q21 0 38 -7.5t32.5 -16l29.5 -16t28 -7.5q22 0 33.5 12t16.5 35h52l-3 -14q-8 -37 -33.5 -61t-62.5 -24q-21 0 -39 7.5t-33.5 16l-30 16t-28.5 7.5q-21 0 -32 -12t-16 -35h-52z" />
    <glyph glyph-name="adieresis" unicode="&#xe4;" horiz-adv-x="624" 
d="M484 68q-72 -76 -184 -76q-56 0 -102.5 20.5t-80.5 55.5t-52.5 82t-18.5 100t18.5 100t52.5 82t80.5 55.5t102.5 20.5q55 0 101.5 -19t82.5 -58v69h57v-500h-57v68zM300 45q67 0 114 29t70 71v211q-24 42 -71 70.5t-113 28.5q-43 0 -79 -16.5t-61.5 -44t-40 -65
t-14.5 -79.5t14.5 -79.5t40 -65t61.5 -44t79 -16.5zM209 580q-22 0 -37 15t-15 37t15 37t37 15t37 -15t15 -37t-15 -37t-37 -15zM429 580q-22 0 -37 15t-15 37t15 37t37 15t37 -15t15 -37t-15 -37t-37 -15z" />
    <glyph glyph-name="aring" unicode="&#xe5;" horiz-adv-x="624" 
d="M484 68q-72 -76 -184 -76q-56 0 -102.5 20.5t-80.5 55.5t-52.5 82t-18.5 100t18.5 100t52.5 82t80.5 55.5t102.5 20.5q55 0 101.5 -19t82.5 -58v69h57v-500h-57v68zM300 45q67 0 114 29t70 71v211q-24 42 -71 70.5t-113 28.5q-43 0 -79 -16.5t-61.5 -44t-40 -65
t-14.5 -79.5t14.5 -79.5t40 -65t61.5 -44t79 -16.5zM300 610q22 0 37.5 15.5t15.5 38.5q0 22 -15.5 38t-37.5 16t-38 -16t-16 -38q0 -23 16 -38.5t38 -15.5zM300 573q-19 0 -36 7t-29.5 19.5t-19.5 29t-7 35.5t7 35.5t19.5 29t29.5 19.5t36 7q38 0 65 -26.5t27 -64.5
t-27 -64.5t-65 -26.5z" />
    <glyph glyph-name="ae" unicode="&#xe6;" horiz-adv-x="932" 
d="M669 -8q-69 0 -124 30.5t-88 81.5q-42 -54 -97 -83t-126 -29q-94 0 -144 46.5t-50 119.5q0 36 14 66t40.5 52t64.5 34.5t85 12.5q59 0 100 -12t70 -29v35q0 41 -12.5 67.5t-33.5 42.5t-48 22t-56 6q-51 0 -89.5 -17.5t-66.5 -43.5l-36 40q31 30 79 52t113 22
q31 0 61.5 -6.5t56 -20t45.5 -34.5t31 -51q33 51 85.5 81.5t115.5 30.5q49 0 91.5 -15.5t74.5 -48t50.5 -81t20.5 -114.5h-422q0 -42 14.5 -79t40.5 -65t62 -44t78 -16q51 0 89.5 17.5t66.5 43.5l36 -40q-32 -30 -79.5 -52t-112.5 -22zM235 45q66 0 111 27t68 69v78
q-29 23 -69.5 37.5t-98.5 14.5q-30 0 -56.5 -7.5t-47 -21.5t-32 -35.5t-11.5 -48.5q0 -28 11 -49t29.5 -35.5t43.5 -21.5t52 -7zM657 455q-32 0 -61.5 -11t-53.5 -31.5t-40.5 -49t-23.5 -63.5h355q-4 39 -19.5 68t-39 48.5t-54 29t-63.5 9.5z" />
    <glyph glyph-name="ccedilla" unicode="&#xe7;" horiz-adv-x="524" 
d="M280 -7q-51 4 -94 25.5t-74 56t-48.5 79.5t-17.5 96q0 53 19 100t53 82t80.5 55.5t101.5 20.5q65 0 112 -22t79 -52l-36 -41q-28 26 -66 44t-89 18q-42 0 -78 -16.5t-62 -44t-40.5 -65t-14.5 -79.5t14.5 -79.5t40.5 -65t62 -44t78 -16.5q51 0 89 18t66 44l36 -41
q-29 -28 -70.5 -48t-98.5 -25l-49 -130h-74z" />
    <glyph glyph-name="egrave" unicode="&#xe8;" horiz-adv-x="563" 
d="M300 -8q-56 0 -102.5 20.5t-80 55.5t-52.5 82t-19 100q0 54 19 101t52 82t77.5 55t95.5 20q49 0 91.5 -15.5t74.5 -48t50.5 -81t20.5 -114.5h-422q0 -42 14.5 -79t40.5 -65t62 -44t78 -16q51 0 89.5 17.5t66.5 43.5l36 -40q-32 -30 -79.5 -52t-112.5 -22zM288 455
q-32 0 -61.5 -11t-53.5 -31.5t-40.5 -49t-23.5 -63.5h355q-4 39 -19.5 68t-39 48.5t-54 29t-63.5 9.5zM172 710h81l91 -165h-54z" />
    <glyph glyph-name="eacute" unicode="&#xe9;" horiz-adv-x="563" 
d="M300 -8q-56 0 -102.5 20.5t-80 55.5t-52.5 82t-19 100q0 54 19 101t52 82t77.5 55t95.5 20q49 0 91.5 -15.5t74.5 -48t50.5 -81t20.5 -114.5h-422q0 -42 14.5 -79t40.5 -65t62 -44t78 -16q51 0 89.5 17.5t66.5 43.5l36 -40q-32 -30 -79.5 -52t-112.5 -22zM288 455
q-32 0 -61.5 -11t-53.5 -31.5t-40.5 -49t-23.5 -63.5h355q-4 39 -19.5 68t-39 48.5t-54 29t-63.5 9.5zM334 710h81l-118 -165h-54z" />
    <glyph glyph-name="ecircumflex" unicode="&#xea;" horiz-adv-x="563" 
d="M300 -8q-56 0 -102.5 20.5t-80 55.5t-52.5 82t-19 100q0 54 19 101t52 82t77.5 55t95.5 20q49 0 91.5 -15.5t74.5 -48t50.5 -81t20.5 -114.5h-422q0 -42 14.5 -79t40.5 -65t62 -44t78 -16q51 0 89.5 17.5t66.5 43.5l36 -40q-32 -30 -79.5 -52t-112.5 -22zM288 455
q-32 0 -61.5 -11t-53.5 -31.5t-40.5 -49t-23.5 -63.5h355q-4 39 -19.5 68t-39 48.5t-54 29t-63.5 9.5zM124 606l167 112l166 -111l-27 -44l-139 95l-140 -95z" />
    <glyph glyph-name="edieresis" unicode="&#xeb;" horiz-adv-x="563" 
d="M300 -8q-56 0 -102.5 20.5t-80 55.5t-52.5 82t-19 100q0 54 19 101t52 82t77.5 55t95.5 20q49 0 91.5 -15.5t74.5 -48t50.5 -81t20.5 -114.5h-422q0 -42 14.5 -79t40.5 -65t62 -44t78 -16q51 0 89.5 17.5t66.5 43.5l36 -40q-32 -30 -79.5 -52t-112.5 -22zM288 455
q-32 0 -61.5 -11t-53.5 -31.5t-40.5 -49t-23.5 -63.5h355q-4 39 -19.5 68t-39 48.5t-54 29t-63.5 9.5zM181 580q-22 0 -37 15t-15 37t15 37t37 15t37 -15t15 -37t-15 -37t-37 -15zM401 580q-22 0 -37 15t-15 37t15 37t37 15t37 -15t15 -37t-15 -37t-37 -15z" />
    <glyph glyph-name="igrave" unicode="&#xec;" horiz-adv-x="223" 
d="M83 500h57v-500h-57v500zM-2 710h81l91 -165h-54z" />
    <glyph glyph-name="iacute" unicode="&#xed;" horiz-adv-x="223" 
d="M83 500h57v-500h-57v500zM144 710h81l-118 -165h-54z" />
    <glyph glyph-name="icircumflex" unicode="&#xee;" horiz-adv-x="223" 
d="M83 500h57v-500h-57v500zM-56 606l167 112l166 -111l-27 -44l-139 95l-140 -95z" />
    <glyph glyph-name="idieresis" unicode="&#xef;" horiz-adv-x="223" 
d="M3 580q-22 0 -37 15t-15 37t15 37t37 15t37 -15t15 -37t-15 -37t-37 -15zM223 580q-22 0 -37 15t-15 37t15 37t37 15t37 -15t15 -37t-15 -37t-37 -15zM83 500h57v-500h-57v500z" />
    <glyph glyph-name="eth" unicode="&#xf0;" horiz-adv-x="611" 
d="M204 627h91l-58 83h62l58 -83h135v-55h-96l113 -159q33 -47 44 -86t11 -77q0 -53 -19 -100t-53.5 -82t-82 -55.5t-104.5 -20.5t-104.5 20.5t-82 55.5t-53.5 82t-19 100t19 100t53.5 82t82 55.5t104.5 20.5q44 0 84 -14l-55 78h-130v55zM305 45q46 0 83 16.5t63 44t40 65
t14 79.5t-14 79.5t-40 65t-63 44t-83 16.5q-45 0 -81.5 -16.5t-62.5 -44t-40.5 -65t-14.5 -79.5t14.5 -79.5t40.5 -65t62.5 -44t81.5 -16.5z" />
    <glyph glyph-name="ntilde" unicode="&#xf1;" 
d="M83 500h57v-72q30 45 76 62.5t96 17.5q39 0 72.5 -13t58 -38t38.5 -60.5t14 -80.5v-316h-57v308q0 72 -39 109.5t-102 37.5q-65 0 -104 -34.5t-53 -88.5v-332h-57v500zM127 585q9 42 36.5 64t60.5 22q21 0 38 -7.5t32.5 -16l29.5 -16t28 -7.5q22 0 33.5 12t16.5 35h52
l-3 -14q-8 -37 -33.5 -61t-62.5 -24q-21 0 -39 7.5t-33.5 16l-30 16t-28.5 7.5q-21 0 -32 -12t-16 -35h-52z" />
    <glyph glyph-name="ograve" unicode="&#xf2;" horiz-adv-x="610" 
d="M305 45q45 0 82 16.5t63.5 44t40.5 65t14 79.5t-14 79.5t-40.5 65t-63.5 44t-82 16.5t-81.5 -16.5t-63 -44t-41 -65t-14.5 -79.5t14.5 -79.5t41 -65t63 -44t81.5 -16.5zM305 -8q-57 0 -104.5 20.5t-82 55.5t-53.5 82t-19 100t19 100t53.5 82t82 55.5t104.5 20.5
t104.5 -20.5t82 -55.5t53.5 -82t19 -100t-19 -100t-53.5 -82t-82 -55.5t-104.5 -20.5zM181 710h81l91 -165h-54z" />
    <glyph glyph-name="oacute" unicode="&#xf3;" horiz-adv-x="610" 
d="M305 45q45 0 82 16.5t63.5 44t40.5 65t14 79.5t-14 79.5t-40.5 65t-63.5 44t-82 16.5t-81.5 -16.5t-63 -44t-41 -65t-14.5 -79.5t14.5 -79.5t41 -65t63 -44t81.5 -16.5zM305 -8q-57 0 -104.5 20.5t-82 55.5t-53.5 82t-19 100t19 100t53.5 82t82 55.5t104.5 20.5
t104.5 -20.5t82 -55.5t53.5 -82t19 -100t-19 -100t-53.5 -82t-82 -55.5t-104.5 -20.5zM358 710h81l-118 -165h-54z" />
    <glyph glyph-name="ocircumflex" unicode="&#xf4;" horiz-adv-x="610" 
d="M305 45q45 0 82 16.5t63.5 44t40.5 65t14 79.5t-14 79.5t-40.5 65t-63.5 44t-82 16.5t-81.5 -16.5t-63 -44t-41 -65t-14.5 -79.5t14.5 -79.5t41 -65t63 -44t81.5 -16.5zM305 -8q-57 0 -104.5 20.5t-82 55.5t-53.5 82t-19 100t19 100t53.5 82t82 55.5t104.5 20.5
t104.5 -20.5t82 -55.5t53.5 -82t19 -100t-19 -100t-53.5 -82t-82 -55.5t-104.5 -20.5zM138 606l167 112l166 -111l-27 -44l-139 95l-140 -95z" />
    <glyph glyph-name="otilde" unicode="&#xf5;" horiz-adv-x="610" 
d="M305 45q45 0 82 16.5t63.5 44t40.5 65t14 79.5t-14 79.5t-40.5 65t-63.5 44t-82 16.5t-81.5 -16.5t-63 -44t-41 -65t-14.5 -79.5t14.5 -79.5t41 -65t63 -44t81.5 -16.5zM305 -8q-57 0 -104.5 20.5t-82 55.5t-53.5 82t-19 100t19 100t53.5 82t82 55.5t104.5 20.5
t104.5 -20.5t82 -55.5t53.5 -82t19 -100t-19 -100t-53.5 -82t-82 -55.5t-104.5 -20.5zM143 585q9 42 36.5 64t60.5 22q21 0 38 -7.5t32.5 -16l29.5 -16t28 -7.5q22 0 33.5 12t16.5 35h52l-3 -14q-8 -37 -33.5 -61t-62.5 -24q-21 0 -39 7.5t-33.5 16l-30 16t-28.5 7.5
q-21 0 -32 -12t-16 -35h-52z" />
    <glyph glyph-name="odieresis" unicode="&#xf6;" horiz-adv-x="610" 
d="M305 45q45 0 82 16.5t63.5 44t40.5 65t14 79.5t-14 79.5t-40.5 65t-63.5 44t-82 16.5t-81.5 -16.5t-63 -44t-41 -65t-14.5 -79.5t14.5 -79.5t41 -65t63 -44t81.5 -16.5zM305 -8q-57 0 -104.5 20.5t-82 55.5t-53.5 82t-19 100t19 100t53.5 82t82 55.5t104.5 20.5
t104.5 -20.5t82 -55.5t53.5 -82t19 -100t-19 -100t-53.5 -82t-82 -55.5t-104.5 -20.5zM195 580q-22 0 -37 15t-15 37t15 37t37 15t37 -15t15 -37t-15 -37t-37 -15zM415 580q-22 0 -37 15t-15 37t15 37t37 15t37 -15t15 -37t-15 -37t-37 -15z" />
    <glyph glyph-name="divide" unicode="&#xf7;" horiz-adv-x="590" 
d="M295 71q-25 0 -42.5 17.5t-17.5 42.5t17.5 42.5t42.5 17.5q24 0 41.5 -17.5t17.5 -42.5t-17.5 -42.5t-41.5 -17.5zM75 298h440v-55h-440v55zM295 350q-25 0 -42.5 17.5t-17.5 42.5t17.5 42.5t42.5 17.5q24 0 41.5 -17.5t17.5 -42.5t-17.5 -42.5t-41.5 -17.5z" />
    <glyph glyph-name="oslash" unicode="&#xf8;" horiz-adv-x="619" 
d="M51 23l58 60q-28 34 -43 76.5t-15 90.5q0 53 19 100t53.5 82t82 55.5t104.5 20.5q47 0 87.5 -14t72.5 -39l56 57l37 -35l-56 -58q29 -34 45.5 -77t16.5 -92q0 -53 -19 -100t-53.5 -82t-82 -55.5t-104.5 -20.5q-48 0 -89.5 14.5t-73.5 40.5l-58 -60zM310 45q45 0 82 16.5
t63.5 44t40.5 65t14 79.5q0 73 -42 129l-283 -292q25 -20 56.5 -31t68.5 -11zM110 250q0 -35 10 -67.5t29 -58.5l283 291q-25 19 -55.5 29.5t-66.5 10.5q-45 0 -81.5 -16.5t-63 -44t-41 -65t-14.5 -79.5z" />
    <glyph glyph-name="ugrave" unicode="&#xf9;" 
d="M431 70q-31 -44 -77 -61t-94 -17q-39 0 -73 13t-58.5 38t-38.5 60.5t-14 80.5v316h57v-308q0 -72 39.5 -109.5t102.5 -37.5t102.5 34t53.5 88v333h57v-500h-57v70zM158 710h81l91 -165h-54z" />
    <glyph glyph-name="uacute" unicode="&#xfa;" 
d="M431 70q-31 -44 -77 -61t-94 -17q-39 0 -73 13t-58.5 38t-38.5 60.5t-14 80.5v316h57v-308q0 -72 39.5 -109.5t102.5 -37.5t102.5 34t53.5 88v333h57v-500h-57v70zM325 710h81l-118 -165h-54z" />
    <glyph glyph-name="ucircumflex" unicode="&#xfb;" 
d="M431 70q-31 -44 -77 -61t-94 -17q-39 0 -73 13t-58.5 38t-38.5 60.5t-14 80.5v316h57v-308q0 -72 39.5 -109.5t102.5 -37.5t102.5 34t53.5 88v333h57v-500h-57v70zM115 606l167 112l166 -111l-27 -44l-139 95l-140 -95z" />
    <glyph glyph-name="udieresis" unicode="&#xfc;" 
d="M431 70q-31 -44 -77 -61t-94 -17q-39 0 -73 13t-58.5 38t-38.5 60.5t-14 80.5v316h57v-308q0 -72 39.5 -109.5t102.5 -37.5t102.5 34t53.5 88v333h57v-500h-57v70zM172 580q-22 0 -37 15t-15 37t15 37t37 15t37 -15t15 -37t-15 -37t-37 -15zM392 580q-22 0 -37 15t-15 37
t15 37t37 15t37 -15t15 -37t-15 -37t-37 -15z" />
    <glyph glyph-name="yacute" unicode="&#xfd;" horiz-adv-x="502" 
d="M222 55l-214 445h64l180 -389l181 389h64l-329 -684h-61zM316 710h81l-118 -165h-54z" />
    <glyph glyph-name="thorn" unicode="&#xfe;" horiz-adv-x="626" 
d="M83 710h57v-280q72 78 185 78q56 0 102.5 -20.5t80.5 -55.5t52.5 -82t18.5 -100t-18.5 -100t-52.5 -82t-80.5 -55.5t-102.5 -20.5q-114 0 -185 77v-253h-57v894zM325 455q-67 0 -114.5 -29.5t-70.5 -71.5v-209q23 -42 70.5 -71t114.5 -29q43 0 79 16.5t61.5 44t40 65
t14.5 79.5t-14.5 79.5t-40 65t-61.5 44t-79 16.5z" />
    <glyph glyph-name="ydieresis" unicode="&#xff;" horiz-adv-x="502" 
d="M222 55l-214 445h64l180 -389l181 389h64l-329 -684h-61zM142 580q-22 0 -37 15t-15 37t15 37t37 15t37 -15t15 -37t-15 -37t-37 -15zM362 580q-22 0 -37 15t-15 37t15 37t37 15t37 -15t15 -37t-15 -37t-37 -15z" />
    <glyph glyph-name="Abreve" unicode="&#x102;" horiz-adv-x="678" 
d="M339 718l343 -718h-65l-104 217h-348l-103 -217h-65zM193 276h292l-146 307zM338 781q-66 0 -103.5 35t-41.5 84h53q4 -29 26.5 -51.5t66.5 -22.5q45 0 68 22.5t27 51.5h53q-3 -24 -13.5 -46t-29 -38t-45 -25.5t-61.5 -9.5z" />
    <glyph glyph-name="Amacron" unicode="&#x100;" horiz-adv-x="678" 
d="M339 718l343 -718h-65l-104 217h-348l-103 -217h-65zM193 276h292l-146 307zM200 859h278v-50h-278v50z" />
    <glyph glyph-name="Aogonek" unicode="&#x104;" horiz-adv-x="678" 
d="M628 -189q-20 0 -39 5.5t-33.5 16t-23.5 26.5t-9 37q0 17 8 33t21.5 30t30.5 24.5t35 16.5h-1l-104 217h-348l-103 -217h-65l342 718l343 -718h-2q-45 -20 -68 -44.5t-23 -47.5q0 -17 14 -31.5t43 -14.5q21 0 36 5v-49q-24 -7 -54 -7zM193 276h292l-146 307z" />
    <glyph glyph-name="Cacute" unicode="&#x106;" horiz-adv-x="668" 
d="M413 -8q-77 0 -143 27.5t-115 76.5t-77 115.5t-28 143.5t28 143.5t77 115t115 76.5t143 28q65 0 122 -19.5t103 -57.5l-34 -50q-38 32 -86 50t-105 18q-64 0 -119 -23.5t-95 -64t-62.5 -96.5t-22.5 -120q0 -65 22.5 -120.5t62.5 -96t95 -64t119 -23.5q57 0 105.5 18
t86.5 50l33 -50q-45 -37 -102.5 -57t-122.5 -20zM442 913h82l-109 -145h-55z" />
    <glyph glyph-name="Ccaron" unicode="&#x10c;" horiz-adv-x="668" 
d="M413 -8q-77 0 -143 27.5t-115 76.5t-77 115.5t-28 143.5t28 143.5t77 115t115 76.5t143 28q65 0 122 -19.5t103 -57.5l-34 -50q-38 32 -86 50t-105 18q-64 0 -119 -23.5t-95 -64t-62.5 -96.5t-22.5 -120q0 -65 22.5 -120.5t62.5 -96t95 -64t119 -23.5q57 0 105.5 18
t86.5 50l33 -50q-45 -37 -102.5 -57t-122.5 -20zM242 883l31 43l141 -93l141 93l32 -44l-173 -111z" />
    <glyph glyph-name="Ccircumflex" unicode="&#x108;" horiz-adv-x="668" 
d="M413 -8q-77 0 -143 27.5t-115 76.5t-77 115.5t-28 143.5t28 143.5t77 115t115 76.5t143 28q65 0 122 -19.5t103 -57.5l-34 -50q-38 32 -86 50t-105 18q-64 0 -119 -23.5t-95 -64t-62.5 -96.5t-22.5 -120q0 -65 22.5 -120.5t62.5 -96t95 -64t119 -23.5q57 0 105.5 18
t86.5 50l33 -50q-45 -37 -102.5 -57t-122.5 -20zM242 816l172 112l173 -111l-32 -44l-141 93l-141 -93z" />
    <glyph glyph-name="Cdotaccent" unicode="&#x10a;" horiz-adv-x="668" 
d="M413 -8q-77 0 -143 27.5t-115 76.5t-77 115.5t-28 143.5t28 143.5t77 115t115 76.5t143 28q65 0 122 -19.5t103 -57.5l-34 -50q-38 32 -86 50t-105 18q-64 0 -119 -23.5t-95 -64t-62.5 -96.5t-22.5 -120q0 -65 22.5 -120.5t62.5 -96t95 -64t119 -23.5q57 0 105.5 18
t86.5 50l33 -50q-45 -37 -102.5 -57t-122.5 -20zM413 791q-22 0 -37 15t-15 37t15 37t37 15t37 -15t15 -37t-15 -37t-37 -15z" />
    <glyph glyph-name="Dcaron" unicode="&#x10e;" horiz-adv-x="734" 
d="M299 59q73 0 132 22t101 61.5t65 93.5t23 119q0 64 -23 118.5t-65 94t-101 61.5t-132 22h-135v-592h135zM102 710h197q85 0 155.5 -26.5t121.5 -74t79.5 -112.5t28.5 -142t-28.5 -142.5t-79.5 -112.5t-121.5 -73.5t-155.5 -26.5h-197v710zM161 883l31 43l141 -93l141 93
l32 -44l-173 -111z" />
    <glyph glyph-name="Dcroat" unicode="&#x110;" horiz-adv-x="750" 
d="M14 400h104v310h197q85 0 155.5 -26.5t121.5 -74t79.5 -112.5t28.5 -142t-28.5 -142.5t-79.5 -112.5t-121.5 -73.5t-155.5 -26.5h-197v342h-104v58zM315 59q73 0 132 22t101 61.5t65 93.5t23 119q0 64 -23 118.5t-65 94t-101 61.5t-132 22h-135v-251h140v-58h-140v-283
h135z" />
    <glyph glyph-name="Ebreve" unicode="&#x114;" horiz-adv-x="549" 
d="M102 710h398v-59h-336v-255h276v-60h-276v-277h336v-59h-398v710zM299 781q-66 0 -103.5 35t-41.5 84h53q4 -29 26.5 -51.5t66.5 -22.5q45 0 68 22.5t27 51.5h53q-3 -24 -13.5 -46t-29 -38t-45 -25.5t-61.5 -9.5z" />
    <glyph glyph-name="Ecaron" unicode="&#x11a;" horiz-adv-x="549" 
d="M102 710h398v-59h-336v-255h276v-60h-276v-277h336v-59h-398v710zM129 883l31 43l141 -93l141 93l32 -44l-173 -111z" />
    <glyph glyph-name="Emacron" unicode="&#x112;" horiz-adv-x="549" 
d="M102 710h398v-59h-336v-255h276v-60h-276v-277h336v-59h-398v710zM162 859h278v-50h-278v50z" />
    <glyph glyph-name="Eogonek" unicode="&#x118;" horiz-adv-x="549" 
d="M102 710h398v-59h-336v-255h276v-60h-276v-277h336v-59q-45 -20 -68 -44.5t-23 -47.5q0 -17 14 -31.5t43 -14.5q21 0 36 5v-49q-24 -7 -54 -7q-20 0 -39 5.5t-33.5 16t-23.5 26.5t-9 37q0 17 8 33t21.5 30t30.5 24.5t35 16.5h-336v710z" />
    <glyph glyph-name="Edotaccent" unicode="&#x116;" horiz-adv-x="549" 
d="M102 710h398v-59h-336v-255h276v-60h-276v-277h336v-59h-398v710zM302 792q-22 0 -37 15t-15 37t15 37t37 15t37 -15t15 -37t-15 -37t-37 -15z" />
    <glyph glyph-name="Gbreve" unicode="&#x11e;" horiz-adv-x="723" 
d="M413 -8q-77 0 -143 27.5t-115 76.5t-77 115.5t-28 143.5t28 143.5t77 115t115 76.5t143 28q69 0 128 -20t107 -56l-35 -50q-38 31 -88 49t-112 18q-64 0 -119 -23.5t-95 -64t-62.5 -96.5t-22.5 -120q0 -65 22.5 -120.5t62.5 -96t95 -64t119 -23.5q48 0 96 11t86 32v242
h-206l27 60h241v-335q-50 -32 -114.5 -50.5t-129.5 -18.5zM411 781q-66 0 -103.5 35t-41.5 84h53q4 -29 26.5 -51.5t66.5 -22.5q45 0 68 22.5t27 51.5h53q-3 -24 -13.5 -46t-29 -38t-45 -25.5t-61.5 -9.5z" />
    <glyph glyph-name="Gcircumflex" unicode="&#x11c;" horiz-adv-x="723" 
d="M413 -8q-77 0 -143 27.5t-115 76.5t-77 115.5t-28 143.5t28 143.5t77 115t115 76.5t143 28q69 0 128 -20t107 -56l-35 -50q-38 31 -88 49t-112 18q-64 0 -119 -23.5t-95 -64t-62.5 -96.5t-22.5 -120q0 -65 22.5 -120.5t62.5 -96t95 -64t119 -23.5q48 0 96 11t86 32v242
h-206l27 60h241v-335q-50 -32 -114.5 -50.5t-129.5 -18.5zM241 816l172 112l173 -111l-32 -44l-141 93l-141 -93z" />
    <glyph glyph-name="Gcommaaccent" unicode="&#x122;" horiz-adv-x="723" 
d="M413 -8q-77 0 -143 27.5t-115 76.5t-77 115.5t-28 143.5t28 143.5t77 115t115 76.5t143 28q69 0 128 -20t107 -56l-35 -50q-38 31 -88 49t-112 18q-64 0 -119 -23.5t-95 -64t-62.5 -96.5t-22.5 -120q0 -65 22.5 -120.5t62.5 -96t95 -64t119 -23.5q48 0 96 11t86 32v242
h-206l27 60h241v-335q-50 -32 -114.5 -50.5t-129.5 -18.5zM373 -50h81l-118 -165h-54z" />
    <glyph glyph-name="Gdotaccent" unicode="&#x120;" horiz-adv-x="723" 
d="M413 -8q-77 0 -143 27.5t-115 76.5t-77 115.5t-28 143.5t28 143.5t77 115t115 76.5t143 28q69 0 128 -20t107 -56l-35 -50q-38 31 -88 49t-112 18q-64 0 -119 -23.5t-95 -64t-62.5 -96.5t-22.5 -120q0 -65 22.5 -120.5t62.5 -96t95 -64t119 -23.5q48 0 96 11t86 32v242
h-206l27 60h241v-335q-50 -32 -114.5 -50.5t-129.5 -18.5zM414 791q-22 0 -37 15t-15 37t15 37t37 15t37 -15t15 -37t-15 -37t-37 -15z" />
    <glyph glyph-name="Hbar" unicode="&#x126;" horiz-adv-x="767" 
d="M40 581h63v129h62v-129h437v129h62v-129h63v-58h-63v-523h-62v336h-437v-336h-62v523h-63v58zM602 396v127h-437v-127h437z" />
    <glyph glyph-name="Hcircumflex" unicode="&#x124;" horiz-adv-x="765" 
d="M102 710h62v-314h437v314h62v-710h-62v336h-437v-336h-62v710zM210 816l172 112l173 -111l-32 -44l-141 93l-141 -93z" />
    <glyph glyph-name="Ibreve" unicode="&#x12c;" horiz-adv-x="266" 
d="M102 710h62v-710h-62v710zM132 781q-66 0 -103.5 35t-41.5 84h53q4 -29 26.5 -51.5t66.5 -22.5q45 0 68 22.5t27 51.5h53q-3 -24 -13.5 -46t-29 -38t-45 -25.5t-61.5 -9.5z" />
    <glyph glyph-name="Idotaccent" unicode="&#x130;" horiz-adv-x="266" 
d="M102 710h62v-710h-62v710zM132 791q-22 0 -37 15t-15 37t15 37t37 15t37 -15t15 -37t-15 -37t-37 -15z" />
    <glyph glyph-name="Imacron" unicode="&#x12a;" horiz-adv-x="266" 
d="M102 710h62v-710h-62v710zM-5 859h278v-50h-278v50z" />
    <glyph glyph-name="Iogonek" unicode="&#x12e;" horiz-adv-x="266" 
d="M102 710h62v-710q-45 -20 -68 -44.5t-23 -47.5q0 -17 14 -31.5t43 -14.5q21 0 36 5v-49q-24 -7 -54 -7q-20 0 -39 5.5t-33.5 16t-23.5 26.5t-9 37q0 17 8 33t21.5 30t30.5 24.5t35 16.5v710z" />
    <glyph glyph-name="Itilde" unicode="&#x128;" horiz-adv-x="266" 
d="M102 710h62v-710h-62v710zM200 789q-21 0 -39 7.5t-33.5 16.5t-30 16.5t-28.5 7.5q-21 0 -32 -11.5t-16 -34.5h-55l3 14q9 42 38 64.5t62 22.5q21 0 38 -7.5t32.5 -16l29.5 -16t28 -7.5q22 0 33.5 11t16.5 34h55l-3 -14q-8 -40 -35.5 -63.5t-63.5 -23.5z" />
    <glyph glyph-name="uni1ECA" unicode="&#x1eca;" horiz-adv-x="266" 
d="M102 710h62v-710h-62v710zM133 -184q-22 0 -37 15t-15 37t15 37t37 15t37 -15t15 -37t-15 -37t-37 -15z" />
    <glyph glyph-name="Jcircumflex" unicode="&#x134;" horiz-adv-x="509" 
d="M218 -8q-42 0 -77.5 13.5t-62 38.5t-41.5 61t-15 82h62q0 -35 10.5 -60t28.5 -41.5t42.5 -25t51.5 -9.5q60 0 97.5 33.5t37.5 102.5v523h62v-533q0 -46 -15.5 -80.5t-42 -58t-62 -35t-76.5 -11.5zM211 816l172 112l173 -111l-32 -44l-141 93l-141 -93z" />
    <glyph glyph-name="Kcommaaccent" unicode="&#x136;" horiz-adv-x="618" 
d="M102 710h62v-355l352 355h80l-358 -362l385 -348h-87l-372 338v-338h-62v710zM293 -50h81l-118 -165h-54z" />
    <glyph glyph-name="Lacute" unicode="&#x139;" horiz-adv-x="506" 
d="M188 913h82l-109 -145h-55zM102 710h62v-651h327v-59h-389v710z" />
    <glyph glyph-name="Lcaron" unicode="&#x13d;" horiz-adv-x="507" 
d="M102 710h62v-651h327v-59h-389v710zM310 710h58l-42 -167h-41z" />
    <glyph glyph-name="Lcommaaccent" unicode="&#x13b;" horiz-adv-x="506" 
d="M102 710h62v-651h327v-59h-389v710zM247 -50h81l-118 -165h-54z" />
    <glyph glyph-name="Ldot" unicode="&#x13f;" horiz-adv-x="511" 
d="M102 710h62v-651h327v-59h-389v710zM383 327q-22 0 -37 15t-15 37t15 37t37 15t37 -15t15 -37t-15 -37t-37 -15z" />
    <glyph glyph-name="Lslash" unicode="&#x141;" horiz-adv-x="529" 
d="M15 256l107 73v381h62v-338l203 140l32 -52l-235 -161v-240h327v-59h-389v256l-75 -51z" />
    <glyph glyph-name="Nacute" unicode="&#x143;" horiz-adv-x="795" 
d="M164 565v-565h-62v718l529 -573v565h62v-718zM425 913h82l-109 -145h-55z" />
    <glyph glyph-name="Ncaron" unicode="&#x147;" horiz-adv-x="795" 
d="M164 565v-565h-62v718l529 -573v565h62v-718zM225 883l31 43l141 -93l141 93l32 -44l-173 -111z" />
    <glyph glyph-name="Ncommaaccent" unicode="&#x145;" horiz-adv-x="795" 
d="M164 565v-565h-62v718l529 -573v565h62v-718zM373 -50h81l-118 -165h-54z" />
    <glyph glyph-name="OE" unicode="&#x152;" horiz-adv-x="1099" 
d="M413 -8q-77 0 -143 27.5t-115 76.5t-77 115.5t-28 143.5t28 143.5t77 115t115 76.5t143 28q69 0 130 -23t109 -64v79h398v-59h-336v-89q24 -36 39.5 -77.5t20.5 -88.5h216v-60h-215q-2 -54 -18 -101t-43 -87v-89h336v-59h-398v79q-48 -42 -109 -64.5t-130 -22.5zM413 51
q64 0 119 23.5t95 64t62.5 96t22.5 120.5q0 64 -22.5 120t-62.5 96.5t-95 64t-119 23.5t-119 -23.5t-95 -64t-62.5 -96.5t-22.5 -120q0 -65 22.5 -120.5t62.5 -96t95 -64t119 -23.5z" />
    <glyph glyph-name="Obreve" unicode="&#x14e;" horiz-adv-x="826" 
d="M413 51q64 0 119 23.5t95 64t62.5 96t22.5 120.5q0 64 -22.5 120t-62.5 96.5t-95 64t-119 23.5t-119 -23.5t-95 -64t-62.5 -96.5t-22.5 -120q0 -65 22.5 -120.5t62.5 -96t95 -64t119 -23.5zM413 -8q-77 0 -143 27.5t-115 76.5t-77 115.5t-28 143.5t28 143.5t77 115
t115 76.5t143 28q76 0 142.5 -28t115.5 -76.5t77 -115t28 -143.5t-28 -143.5t-77 -115.5t-115.5 -76.5t-142.5 -27.5zM412 781q-66 0 -103.5 35t-41.5 84h53q4 -29 26.5 -51.5t66.5 -22.5q45 0 68 22.5t27 51.5h53q-3 -24 -13.5 -46t-29 -38t-45 -25.5t-61.5 -9.5z" />
    <glyph glyph-name="Ohungarumlaut" unicode="&#x150;" horiz-adv-x="826" 
d="M413 51q64 0 119 23.5t95 64t62.5 96t22.5 120.5q0 64 -22.5 120t-62.5 96.5t-95 64t-119 23.5t-119 -23.5t-95 -64t-62.5 -96.5t-22.5 -120q0 -65 22.5 -120.5t62.5 -96t95 -64t119 -23.5zM413 -8q-77 0 -143 27.5t-115 76.5t-77 115.5t-28 143.5t28 143.5t77 115
t115 76.5t143 28q76 0 142.5 -28t115.5 -76.5t77 -115t28 -143.5t-28 -143.5t-77 -115.5t-115.5 -76.5t-142.5 -27.5zM353 913h82l-108 -145h-56zM553 913h82l-108 -145h-56z" />
    <glyph glyph-name="Omacron" unicode="&#x14c;" horiz-adv-x="826" 
d="M413 51q64 0 119 23.5t95 64t62.5 96t22.5 120.5q0 64 -22.5 120t-62.5 96.5t-95 64t-119 23.5t-119 -23.5t-95 -64t-62.5 -96.5t-22.5 -120q0 -65 22.5 -120.5t62.5 -96t95 -64t119 -23.5zM413 -8q-77 0 -143 27.5t-115 76.5t-77 115.5t-28 143.5t28 143.5t77 115
t115 76.5t143 28q76 0 142.5 -28t115.5 -76.5t77 -115t28 -143.5t-28 -143.5t-77 -115.5t-115.5 -76.5t-142.5 -27.5zM274 859h278v-50h-278v50z" />
    <glyph glyph-name="uni1ECC" unicode="&#x1ecc;" horiz-adv-x="826" 
d="M413 51q64 0 119 23.5t95 64t62.5 96t22.5 120.5q0 64 -22.5 120t-62.5 96.5t-95 64t-119 23.5t-119 -23.5t-95 -64t-62.5 -96.5t-22.5 -120q0 -65 22.5 -120.5t62.5 -96t95 -64t119 -23.5zM413 -8q-77 0 -143 27.5t-115 76.5t-77 115.5t-28 143.5t28 143.5t77 115
t115 76.5t143 28q76 0 142.5 -28t115.5 -76.5t77 -115t28 -143.5t-28 -143.5t-77 -115.5t-115.5 -76.5t-142.5 -27.5zM413 -184q-22 0 -37 15t-15 37t15 37t37 15t37 -15t15 -37t-15 -37t-37 -15z" />
    <glyph glyph-name="Racute" unicode="&#x154;" horiz-adv-x="602" 
d="M256 321h-92v-321h-62v710h188q110 0 170.5 -51.5t60.5 -143.5q0 -82 -50.5 -133t-142.5 -60l269 -322h-77zM288 378q85 0 126.5 35.5t41.5 101.5t-41.5 101.5t-126.5 35.5h-124v-274h124zM327 913h82l-109 -145h-55z" />
    <glyph glyph-name="Rcaron" unicode="&#x158;" horiz-adv-x="602" 
d="M256 321h-92v-321h-62v710h188q110 0 170.5 -51.5t60.5 -143.5q0 -82 -50.5 -133t-142.5 -60l269 -322h-77zM288 378q85 0 126.5 35.5t41.5 101.5t-41.5 101.5t-126.5 35.5h-124v-274h124zM112 883l31 43l141 -93l141 93l32 -44l-173 -111z" />
    <glyph glyph-name="Rcommaaccent" unicode="&#x156;" horiz-adv-x="602" 
d="M283 -50h81l-118 -165h-54zM256 321h-92v-321h-62v710h188q110 0 170.5 -51.5t60.5 -143.5q0 -82 -50.5 -133t-142.5 -60l269 -322h-77zM288 378q85 0 126.5 35.5t41.5 101.5t-41.5 101.5t-126.5 35.5h-124v-274h124z" />
    <glyph glyph-name="Sacute" unicode="&#x15a;" horiz-adv-x="527" 
d="M257 -8q-37 0 -70 8.5t-61.5 23t-51 32t-37.5 35.5l47 43q13 -16 31 -31t40 -26.5t47.5 -18.5t54.5 -7q73 0 117.5 33t44.5 89q0 59 -34.5 92t-95.5 60l-75 32q-81 35 -116 82t-35 112q0 38 17 69t45.5 52.5t65 33.5t74.5 12q63 0 114 -25.5t84 -64.5l-46 -43
q-28 33 -64 53.5t-91 20.5q-28 0 -53 -7.5t-43.5 -22t-29.5 -35.5t-11 -47q0 -45 24.5 -76t85.5 -57l75 -32q36 -15 67.5 -34t54.5 -43t36.5 -54.5t13.5 -68.5q0 -41 -15 -75.5t-44 -60t-71 -40t-95 -14.5zM307 913h82l-109 -145h-55z" />
    <glyph glyph-name="Scaron" unicode="&#x160;" horiz-adv-x="527" 
d="M257 -8q-37 0 -70 8.5t-61.5 23t-51 32t-37.5 35.5l47 43q13 -16 31 -31t40 -26.5t47.5 -18.5t54.5 -7q73 0 117.5 33t44.5 89q0 59 -34.5 92t-95.5 60l-75 32q-81 35 -116 82t-35 112q0 38 17 69t45.5 52.5t65 33.5t74.5 12q63 0 114 -25.5t84 -64.5l-46 -43
q-28 33 -64 53.5t-91 20.5q-28 0 -53 -7.5t-43.5 -22t-29.5 -35.5t-11 -47q0 -45 24.5 -76t85.5 -57l75 -32q36 -15 67.5 -34t54.5 -43t36.5 -54.5t13.5 -68.5q0 -41 -15 -75.5t-44 -60t-71 -40t-95 -14.5zM95 883l31 43l141 -93l141 93l32 -44l-173 -111z" />
    <glyph glyph-name="Scedilla" unicode="&#x15e;" horiz-adv-x="527" 
d="M238 -7q-68 5 -120.5 34.5t-80.5 63.5l47 43q13 -16 31 -31t40 -26.5t47.5 -18.5t54.5 -7q73 0 117.5 33t44.5 89q0 59 -34.5 92t-95.5 60l-75 32q-81 35 -116 82t-35 112q0 38 17 69t45.5 52.5t65 33.5t74.5 12q63 0 114 -25.5t84 -64.5l-46 -43q-28 33 -64 53.5
t-91 20.5q-28 0 -53 -7.5t-43.5 -22t-29.5 -35.5t-11 -47q0 -45 24.5 -76t85.5 -57l75 -32q36 -15 67.5 -34t54.5 -43t36.5 -54.5t13.5 -68.5q0 -75 -50 -127t-140 -61l-38 -131h-83z" />
    <glyph glyph-name="Scircumflex" unicode="&#x15c;" horiz-adv-x="527" 
d="M257 -8q-37 0 -70 8.5t-61.5 23t-51 32t-37.5 35.5l47 43q13 -16 31 -31t40 -26.5t47.5 -18.5t54.5 -7q73 0 117.5 33t44.5 89q0 59 -34.5 92t-95.5 60l-75 32q-81 35 -116 82t-35 112q0 38 17 69t45.5 52.5t65 33.5t74.5 12q63 0 114 -25.5t84 -64.5l-46 -43
q-28 33 -64 53.5t-91 20.5q-28 0 -53 -7.5t-43.5 -22t-29.5 -35.5t-11 -47q0 -45 24.5 -76t85.5 -57l75 -32q36 -15 67.5 -34t54.5 -43t36.5 -54.5t13.5 -68.5q0 -41 -15 -75.5t-44 -60t-71 -40t-95 -14.5zM95 816l172 112l173 -111l-32 -44l-141 93l-141 -93z" />
    <glyph glyph-name="Scommaaccent" unicode="&#x218;" horiz-adv-x="527" 
d="M228 -50h81l-118 -165h-54zM257 -8q-37 0 -70 8.5t-61.5 23t-51 32t-37.5 35.5l47 43q13 -16 31 -31t40 -26.5t47.5 -18.5t54.5 -7q73 0 117.5 33t44.5 89q0 59 -34.5 92t-95.5 60l-75 32q-81 35 -116 82t-35 112q0 38 17 69t45.5 52.5t65 33.5t74.5 12q63 0 114 -25.5
t84 -64.5l-46 -43q-28 33 -64 53.5t-91 20.5q-28 0 -53 -7.5t-43.5 -22t-29.5 -35.5t-11 -47q0 -45 24.5 -76t85.5 -57l75 -32q36 -15 67.5 -34t54.5 -43t36.5 -54.5t13.5 -68.5q0 -41 -15 -75.5t-44 -60t-71 -40t-95 -14.5z" />
    <glyph glyph-name="Tcaron" unicode="&#x164;" horiz-adv-x="495" 
d="M216 651h-201v59h465v-59h-202v-651h-62v651zM75 883l31 43l141 -93l141 93l32 -44l-173 -111z" />
    <glyph glyph-name="Tcommaaccent" unicode="&#x162;" horiz-adv-x="495" 
d="M216 651h-201v59h465v-59h-202v-651h-62v651zM210 -50h81l-118 -165h-54z" />
    <glyph glyph-name="uni021A" unicode="&#x21a;" horiz-adv-x="495" 
d="M216 651h-201v59h465v-59h-202v-651h-62v651zM210 -50h81l-118 -165h-54z" />
    <glyph glyph-name="Ubreve" unicode="&#x16c;" horiz-adv-x="743" 
d="M371 -8q-62 0 -113 18t-87.5 52.5t-57 85t-20.5 115.5v447h62v-450q0 -53 15.5 -92t44 -65t68.5 -39t88 -13q49 0 89 13t68.5 39t44 65t15.5 92v450h62v-447q0 -65 -20.5 -115.5t-57.5 -85t-88.5 -52.5t-112.5 -18zM369 781q-66 0 -103.5 35t-41.5 84h53
q4 -29 26.5 -51.5t66.5 -22.5q45 0 68 22.5t27 51.5h53q-3 -24 -13.5 -46t-29 -38t-45 -25.5t-61.5 -9.5z" />
    <glyph glyph-name="Uhungarumlaut" unicode="&#x170;" horiz-adv-x="743" 
d="M371 -8q-62 0 -113 18t-87.5 52.5t-57 85t-20.5 115.5v447h62v-450q0 -53 15.5 -92t44 -65t68.5 -39t88 -13q49 0 89 13t68.5 39t44 65t15.5 92v450h62v-447q0 -65 -20.5 -115.5t-57.5 -85t-88.5 -52.5t-112.5 -18zM311 913h82l-108 -145h-56zM511 913h82l-108 -145h-56z
" />
    <glyph glyph-name="Umacron" unicode="&#x16a;" horiz-adv-x="743" 
d="M371 -8q-62 0 -113 18t-87.5 52.5t-57 85t-20.5 115.5v447h62v-450q0 -53 15.5 -92t44 -65t68.5 -39t88 -13q49 0 89 13t68.5 39t44 65t15.5 92v450h62v-447q0 -65 -20.5 -115.5t-57.5 -85t-88.5 -52.5t-112.5 -18zM232 859h278v-50h-278v50z" />
    <glyph glyph-name="Uogonek" unicode="&#x172;" horiz-adv-x="743" 
d="M396 -189q-20 0 -39 5.5t-33.5 16t-23.5 26.5t-9 37q0 29 22 55.5t52 40.5q-60 1 -110 19.5t-86 53t-56 84.5t-20 114v447h62v-450q0 -53 15.5 -92t44 -65t68.5 -39t88 -13q49 0 89 13t68.5 39t44 65t15.5 92v450h62v-447q0 -109 -55 -176t-147 -87q-45 -20 -68 -44.5
t-23 -47.5q0 -17 14 -31.5t43 -14.5q21 0 36 5v-49q-24 -7 -54 -7z" />
    <glyph glyph-name="Uring" unicode="&#x16e;" horiz-adv-x="743" 
d="M371 -8q-62 0 -113 18t-87.5 52.5t-57 85t-20.5 115.5v447h62v-450q0 -53 15.5 -92t44 -65t68.5 -39t88 -13q49 0 89 13t68.5 39t44 65t15.5 92v450h62v-447q0 -65 -20.5 -115.5t-57.5 -85t-88.5 -52.5t-112.5 -18zM371 788q21 0 35.5 13t14.5 35t-14.5 35.5t-35.5 13.5
q-20 0 -34.5 -13.5t-14.5 -35.5t14.5 -35t34.5 -13zM371 751q-37 0 -63 24t-26 61q0 38 26.5 61.5t62.5 23.5q38 0 64.5 -23.5t26.5 -61.5q0 -37 -26.5 -61t-64.5 -24z" />
    <glyph glyph-name="Utilde" unicode="&#x168;" horiz-adv-x="743" 
d="M371 -8q-62 0 -113 18t-87.5 52.5t-57 85t-20.5 115.5v447h62v-450q0 -53 15.5 -92t44 -65t68.5 -39t88 -13q49 0 89 13t68.5 39t44 65t15.5 92v450h62v-447q0 -65 -20.5 -115.5t-57.5 -85t-88.5 -52.5t-112.5 -18zM437 789q-21 0 -39 7.5t-33.5 16.5t-30 16.5t-28.5 7.5
q-21 0 -32 -11.5t-16 -34.5h-55l3 14q9 42 38 64.5t62 22.5q21 0 38 -7.5t32.5 -16l29.5 -16t28 -7.5q22 0 33.5 11t16.5 34h55l-3 -14q-8 -40 -35.5 -63.5t-63.5 -23.5z" />
    <glyph glyph-name="uni1EE4" unicode="&#x1ee4;" horiz-adv-x="743" 
d="M371 -8q-62 0 -113 18t-87.5 52.5t-57 85t-20.5 115.5v447h62v-450q0 -53 15.5 -92t44 -65t68.5 -39t88 -13q49 0 89 13t68.5 39t44 65t15.5 92v450h62v-447q0 -65 -20.5 -115.5t-57.5 -85t-88.5 -52.5t-112.5 -18zM372 -184q-22 0 -37 15t-15 37t15 37t37 15t37 -15
t15 -37t-15 -37t-37 -15z" />
    <glyph glyph-name="Wacute" unicode="&#x1e82;" horiz-adv-x="898" 
d="M13 710h64l178 -549l194 557l194 -557l178 549h64l-241 -718l-195 565l-195 -565zM504 913h82l-109 -145h-55z" />
    <glyph glyph-name="Wcircumflex" unicode="&#x174;" horiz-adv-x="898" 
d="M13 710h64l178 -549l194 557l194 -557l178 549h64l-241 -718l-195 565l-195 -565zM277 816l172 112l173 -111l-32 -44l-141 93l-141 -93z" />
    <glyph glyph-name="Wdieresis" unicode="&#x1e84;" horiz-adv-x="898" 
d="M13 710h64l178 -549l194 557l194 -557l178 549h64l-241 -718l-195 565l-195 -565zM338 791q-22 0 -37 15t-15 37t15 37t37 15t37 -15t15 -37t-15 -37t-37 -15zM558 791q-22 0 -37 15t-15 37t15 37t37 15t37 -15t15 -37t-15 -37t-37 -15z" />
    <glyph glyph-name="Wgrave" unicode="&#x1e80;" horiz-adv-x="898" 
d="M13 710h64l178 -549l194 557l194 -557l178 549h64l-241 -718l-195 565l-195 -565zM313 913h82l82 -145h-56z" />
    <glyph glyph-name="Ycircumflex" unicode="&#x176;" horiz-adv-x="606" 
d="M272 302l-259 408h71l220 -350l219 350h70l-259 -408v-302h-62v302zM131 816l172 112l173 -111l-32 -44l-141 93l-141 -93z" />
    <glyph glyph-name="Ydieresis" unicode="&#x178;" horiz-adv-x="606" 
d="M272 302l-259 408h71l220 -350l219 350h70l-259 -408v-302h-62v302zM193 791q-22 0 -37 15t-15 37t15 37t37 15t37 -15t15 -37t-15 -37t-37 -15zM413 791q-22 0 -37 15t-15 37t15 37t37 15t37 -15t15 -37t-15 -37t-37 -15z" />
    <glyph glyph-name="Ygrave" unicode="&#x1ef2;" horiz-adv-x="606" 
d="M272 302l-259 408h71l220 -350l219 350h70l-259 -408v-302h-62v302zM184 913h82l82 -145h-56z" />
    <glyph glyph-name="uni0232" unicode="&#x232;" horiz-adv-x="606" 
d="M272 302l-259 408h71l220 -350l219 350h70l-259 -408v-302h-62v302zM164 859h278v-50h-278v50z" />
    <glyph glyph-name="Zacute" unicode="&#x179;" horiz-adv-x="578" 
d="M435 651h-381v59h488l-425 -651h435v-59h-542zM329 913h82l-109 -145h-55z" />
    <glyph glyph-name="Zcaron" unicode="&#x17d;" horiz-adv-x="578" 
d="M435 651h-381v59h488l-425 -651h435v-59h-542zM127 883l31 43l141 -93l141 93l32 -44l-173 -111z" />
    <glyph glyph-name="Zdotaccent" unicode="&#x17b;" horiz-adv-x="578" 
d="M435 651h-381v59h488l-425 -651h435v-59h-542zM298 791q-22 0 -37 15t-15 37t15 37t37 15t37 -15t15 -37t-15 -37t-37 -15z" />
    <glyph glyph-name="abreve" unicode="&#x103;" horiz-adv-x="624" 
d="M484 68q-72 -76 -184 -76q-56 0 -102.5 20.5t-80.5 55.5t-52.5 82t-18.5 100t18.5 100t52.5 82t80.5 55.5t102.5 20.5q55 0 101.5 -19t82.5 -58v69h57v-500h-57v68zM300 45q67 0 114 29t70 71v211q-24 42 -71 70.5t-113 28.5q-43 0 -79 -16.5t-61.5 -44t-40 -65
t-14.5 -79.5t14.5 -79.5t40 -65t61.5 -44t79 -16.5zM299 591q-66 0 -103.5 34.5t-41.5 84.5h53q4 -29 26.5 -51.5t66.5 -22.5q45 0 68 22.5t27 51.5h53q-5 -50 -42 -84.5t-107 -34.5z" />
    <glyph glyph-name="amacron" unicode="&#x101;" horiz-adv-x="624" 
d="M484 68q-72 -76 -184 -76q-56 0 -102.5 20.5t-80.5 55.5t-52.5 82t-18.5 100t18.5 100t52.5 82t80.5 55.5t102.5 20.5q55 0 101.5 -19t82.5 -58v69h57v-500h-57v68zM300 45q67 0 114 29t70 71v211q-24 42 -71 70.5t-113 28.5q-43 0 -79 -16.5t-61.5 -44t-40 -65
t-14.5 -79.5t14.5 -79.5t40 -65t61.5 -44t79 -16.5zM178 680h278v-51h-278v51z" />
    <glyph glyph-name="aogonek" unicode="&#x105;" horiz-adv-x="624" 
d="M494 -174q-20 0 -39 4.5t-33.5 14.5t-23.5 25t-9 36q0 17 8 31.5t21.5 26.5t30.5 21t35 15v68q-72 -76 -184 -76q-56 0 -102.5 20.5t-80.5 55.5t-52.5 82t-18.5 100t18.5 100t52.5 82t80.5 55.5t102.5 20.5q55 0 101.5 -19t82.5 -58v69h57v-500q-86 -38 -86 -82
q0 -17 14 -29t43 -12q21 0 36 5v-49q-24 -7 -54 -7zM300 45q67 0 114 29t70 71v211q-24 42 -71 70.5t-113 28.5q-43 0 -79 -16.5t-61.5 -44t-40 -65t-14.5 -79.5t14.5 -79.5t40 -65t61.5 -44t79 -16.5z" />
    <glyph glyph-name="cacute" unicode="&#x107;" horiz-adv-x="524" 
d="M300 -8q-55 0 -101.5 20.5t-80.5 55.5t-53 82t-19 100t19 100t53 82t80.5 55.5t101.5 20.5q65 0 112 -22t79 -52l-36 -41q-28 26 -66 44t-89 18q-42 0 -78 -16.5t-62 -44t-40.5 -65t-14.5 -79.5t14.5 -79.5t40.5 -65t62 -44t78 -16.5q51 0 89 18t66 44l36 -41
q-32 -30 -79 -52t-112 -22zM337 710h81l-118 -165h-54z" />
    <glyph glyph-name="ccaron" unicode="&#x10d;" horiz-adv-x="524" 
d="M300 -8q-55 0 -101.5 20.5t-80.5 55.5t-53 82t-19 100t19 100t53 82t80.5 55.5t101.5 20.5q65 0 112 -22t79 -52l-36 -41q-28 26 -66 44t-89 18q-42 0 -78 -16.5t-62 -44t-40.5 -65t-14.5 -79.5t14.5 -79.5t40.5 -65t62 -44t78 -16.5q51 0 89 18t66 44l36 -41
q-32 -30 -79 -52t-112 -22zM300 585l-167 112l27 43l140 -95l139 95l27 -44z" />
    <glyph glyph-name="ccircumflex" unicode="&#x109;" horiz-adv-x="524" 
d="M300 -8q-55 0 -101.5 20.5t-80.5 55.5t-53 82t-19 100t19 100t53 82t80.5 55.5t101.5 20.5q65 0 112 -22t79 -52l-36 -41q-28 26 -66 44t-89 18q-42 0 -78 -16.5t-62 -44t-40.5 -65t-14.5 -79.5t14.5 -79.5t40.5 -65t62 -44t78 -16.5q51 0 89 18t66 44l36 -41
q-32 -30 -79 -52t-112 -22zM132 606l167 112l166 -111l-27 -44l-139 95l-140 -95z" />
    <glyph glyph-name="cdotaccent" unicode="&#x10b;" horiz-adv-x="524" 
d="M300 -8q-55 0 -101.5 20.5t-80.5 55.5t-53 82t-19 100t19 100t53 82t80.5 55.5t101.5 20.5q65 0 112 -22t79 -52l-36 -41q-28 26 -66 44t-89 18q-42 0 -78 -16.5t-62 -44t-40.5 -65t-14.5 -79.5t14.5 -79.5t40.5 -65t62 -44t78 -16.5q51 0 89 18t66 44l36 -41
q-32 -30 -79 -52t-112 -22zM300 580q-22 0 -37 15t-15 37t15 37t37 15t37 -15t15 -37t-15 -37t-37 -15z" />
    <glyph glyph-name="dcaron" unicode="&#x10f;" horiz-adv-x="648" 
d="M484 68q-72 -76 -184 -76q-56 0 -102.5 20.5t-80.5 55.5t-52.5 82t-18.5 100t18.5 100t52.5 82t80.5 55.5t102.5 20.5q55 0 101.5 -19t82.5 -58v279h57v-710h-57v68zM300 45q67 0 114 29t70 71v211q-24 42 -71 70.5t-113 28.5q-43 0 -79 -16.5t-61.5 -44t-40 -65
t-14.5 -79.5t14.5 -79.5t40 -65t61.5 -44t79 -16.5zM636 710h58l-42 -167h-41z" />
    <glyph glyph-name="dcroat" unicode="&#x111;" horiz-adv-x="624" 
d="M308 638h176v72h57v-72h73v-54h-73v-584h-57v68q-72 -76 -184 -76q-56 0 -102.5 20.5t-80.5 55.5t-52.5 82t-18.5 100t18.5 100t52.5 82t80.5 55.5t102.5 20.5q55 0 101.5 -19t82.5 -58v153h-176v54zM300 45q67 0 114 29t70 71v211q-24 42 -71 70.5t-113 28.5
q-43 0 -79 -16.5t-61.5 -44t-40 -65t-14.5 -79.5t14.5 -79.5t40 -65t61.5 -44t79 -16.5z" />
    <glyph glyph-name="ebreve" unicode="&#x115;" horiz-adv-x="563" 
d="M300 -8q-56 0 -102.5 20.5t-80 55.5t-52.5 82t-19 100q0 54 19 101t52 82t77.5 55t95.5 20q49 0 91.5 -15.5t74.5 -48t50.5 -81t20.5 -114.5h-422q0 -42 14.5 -79t40.5 -65t62 -44t78 -16q51 0 89.5 17.5t66.5 43.5l36 -40q-32 -30 -79.5 -52t-112.5 -22zM288 455
q-32 0 -61.5 -11t-53.5 -31.5t-40.5 -49t-23.5 -63.5h355q-4 39 -19.5 68t-39 48.5t-54 29t-63.5 9.5zM291 591q-66 0 -103.5 34.5t-41.5 84.5h53q4 -29 26.5 -51.5t66.5 -22.5q45 0 68 22.5t27 51.5h53q-5 -50 -42 -84.5t-107 -34.5z" />
    <glyph glyph-name="ecaron" unicode="&#x11b;" horiz-adv-x="563" 
d="M300 -8q-56 0 -102.5 20.5t-80 55.5t-52.5 82t-19 100q0 54 19 101t52 82t77.5 55t95.5 20q49 0 91.5 -15.5t74.5 -48t50.5 -81t20.5 -114.5h-422q0 -42 14.5 -79t40.5 -65t62 -44t78 -16q51 0 89.5 17.5t66.5 43.5l36 -40q-32 -30 -79.5 -52t-112.5 -22zM288 455
q-32 0 -61.5 -11t-53.5 -31.5t-40.5 -49t-23.5 -63.5h355q-4 39 -19.5 68t-39 48.5t-54 29t-63.5 9.5zM291 585l-167 112l27 43l140 -95l139 95l27 -44z" />
    <glyph glyph-name="emacron" unicode="&#x113;" horiz-adv-x="563" 
d="M300 -8q-56 0 -102.5 20.5t-80 55.5t-52.5 82t-19 100q0 54 19 101t52 82t77.5 55t95.5 20q49 0 91.5 -15.5t74.5 -48t50.5 -81t20.5 -114.5h-422q0 -42 14.5 -79t40.5 -65t62 -44t78 -16q51 0 89.5 17.5t66.5 43.5l36 -40q-32 -30 -79.5 -52t-112.5 -22zM288 455
q-32 0 -61.5 -11t-53.5 -31.5t-40.5 -49t-23.5 -63.5h355q-4 39 -19.5 68t-39 48.5t-54 29t-63.5 9.5zM151 680h278v-51h-278v51z" />
    <glyph glyph-name="eogonek" unicode="&#x119;" horiz-adv-x="564" 
d="M313 -174q-20 0 -39 4.5t-33.5 14.5t-23.5 25t-9 36q0 29 22 51t53 36q-52 3 -95.5 24.5t-74.5 56t-48.5 80t-17.5 96.5q0 54 19 101t52 82t77.5 55t95.5 20q49 0 91.5 -15.5t74.5 -48t50.5 -81t20.5 -114.5h-422q0 -42 14.5 -79t40.5 -65t62 -44t78 -16q51 0 89.5 17.5
t66.5 43.5l36 -40q-25 -23 -58 -41.5t-75 -26.5q-86 -38 -86 -80q0 -17 14 -29t43 -12q21 0 36 5v-49q-24 -7 -54 -7zM289 455q-32 0 -61.5 -11t-53.5 -31.5t-40.5 -49t-23.5 -63.5h355q-4 39 -19.5 68t-39 48.5t-54 29t-63.5 9.5z" />
    <glyph glyph-name="edotaccent" unicode="&#x117;" horiz-adv-x="563" 
d="M300 -8q-56 0 -102.5 20.5t-80 55.5t-52.5 82t-19 100q0 54 19 101t52 82t77.5 55t95.5 20q49 0 91.5 -15.5t74.5 -48t50.5 -81t20.5 -114.5h-422q0 -42 14.5 -79t40.5 -65t62 -44t78 -16q51 0 89.5 17.5t66.5 43.5l36 -40q-32 -30 -79.5 -52t-112.5 -22zM288 455
q-32 0 -61.5 -11t-53.5 -31.5t-40.5 -49t-23.5 -63.5h355q-4 39 -19.5 68t-39 48.5t-54 29t-63.5 9.5zM293 580q-22 0 -37 15t-15 37t15 37t37 15t37 -15t15 -37t-15 -37t-37 -15z" />
    <glyph glyph-name="gbreve" unicode="&#x11f;" horiz-adv-x="617" 
d="M292 -194q-57 0 -113 16t-97 44l30 48q16 -12 37.5 -22t46 -17.5t51 -11.5t52.5 -4q36 0 70.5 8t61 26t43 46t16.5 68q0 17 -3.5 39.5t-11.5 38.5q-70 -76 -181 -76q-56 0 -101 19.5t-77.5 53.5t-50 79.5t-17.5 96.5q0 52 17.5 97.5t50 79.5t77.5 53.5t101 19.5
t100 -18.5t80 -56.5v67h57v-397q9 -25 13.5 -50t4.5 -47q0 -54 -22.5 -92t-58.5 -62t-82 -35t-94 -11zM294 62q66 0 111.5 28t68.5 69v199q-23 42 -68.5 69.5t-111.5 27.5q-43 0 -77.5 -15.5t-59 -42t-37.5 -62.5t-13 -77t13 -76.5t37.5 -62t59 -42t77.5 -15.5zM295 591
q-66 0 -103.5 34.5t-41.5 84.5h53q4 -29 26.5 -51.5t66.5 -22.5q45 0 68 22.5t27 51.5h53q-5 -50 -42 -84.5t-107 -34.5z" />
    <glyph glyph-name="gcircumflex" unicode="&#x11d;" horiz-adv-x="617" 
d="M292 -194q-57 0 -113 16t-97 44l30 48q16 -12 37.5 -22t46 -17.5t51 -11.5t52.5 -4q36 0 70.5 8t61 26t43 46t16.5 68q0 17 -3.5 39.5t-11.5 38.5q-70 -76 -181 -76q-56 0 -101 19.5t-77.5 53.5t-50 79.5t-17.5 96.5q0 52 17.5 97.5t50 79.5t77.5 53.5t101 19.5
t100 -18.5t80 -56.5v67h57v-397q9 -25 13.5 -50t4.5 -47q0 -54 -22.5 -92t-58.5 -62t-82 -35t-94 -11zM294 62q66 0 111.5 28t68.5 69v199q-23 42 -68.5 69.5t-111.5 27.5q-43 0 -77.5 -15.5t-59 -42t-37.5 -62.5t-13 -77t13 -76.5t37.5 -62t59 -42t77.5 -15.5zM128 606
l167 112l166 -111l-27 -44l-139 95l-140 -95z" />
    <glyph glyph-name="gcommaaccent" unicode="&#x123;" horiz-adv-x="617" 
d="M336.006 584.997h-80.9951l117.993 164.99h53.9971zM292 -194q-57 0 -113 16t-97 44l30 48q16 -12 37.5 -22t46 -17.5t51 -11.5t52.5 -4q36 0 70.5 8t61 26t43 46t16.5 68q0 17 -3.5 39.5t-11.5 38.5q-70 -76 -181 -76q-56 0 -101 19.5t-77.5 53.5t-50 79.5t-17.5 96.5
q0 52 17.5 97.5t50 79.5t77.5 53.5t101 19.5t100 -18.5t80 -56.5v67h57v-397q9 -25 13.5 -50t4.5 -47q0 -54 -22.5 -92t-58.5 -62t-82 -35t-94 -11zM294 62q66 0 111.5 28t68.5 69v199q-23 42 -68.5 69.5t-111.5 27.5q-43 0 -77.5 -15.5t-59 -42t-37.5 -62.5t-13 -77
t13 -76.5t37.5 -62t59 -42t77.5 -15.5z" />
    <glyph glyph-name="gdotaccent" unicode="&#x121;" horiz-adv-x="617" 
d="M292 -194q-57 0 -113 16t-97 44l30 48q16 -12 37.5 -22t46 -17.5t51 -11.5t52.5 -4q36 0 70.5 8t61 26t43 46t16.5 68q0 17 -3.5 39.5t-11.5 38.5q-70 -76 -181 -76q-56 0 -101 19.5t-77.5 53.5t-50 79.5t-17.5 96.5q0 52 17.5 97.5t50 79.5t77.5 53.5t101 19.5
t100 -18.5t80 -56.5v67h57v-397q9 -25 13.5 -50t4.5 -47q0 -54 -22.5 -92t-58.5 -62t-82 -35t-94 -11zM294 62q66 0 111.5 28t68.5 69v199q-23 42 -68.5 69.5t-111.5 27.5q-43 0 -77.5 -15.5t-59 -42t-37.5 -62.5t-13 -77t13 -76.5t37.5 -62t59 -42t77.5 -15.5zM295 580
q-22 0 -37 15t-15 37t15 37t37 15t37 -15t15 -37t-15 -37t-37 -15z" />
    <glyph glyph-name="hbar" unicode="&#x127;" 
d="M1 638h82v72h57v-72h167v-54h-167v-156q30 45 76 62.5t96 17.5q39 0 72.5 -13t58 -38t38.5 -60.5t14 -80.5v-316h-57v308q0 72 -39 109.5t-102 37.5q-65 0 -104 -34.5t-53 -88.5v-332h-57v584h-82v54z" />
    <glyph glyph-name="hcircumflex" unicode="&#x125;" 
d="M83 710h57v-282q30 45 76 62.5t96 17.5q39 0 72.5 -13t58 -38t38.5 -60.5t14 -80.5v-316h-57v308q0 72 -39 109.5t-102 37.5q-65 0 -104 -34.5t-53 -88.5v-332h-57v710zM117 816l172 112l173 -111l-32 -44l-141 93l-141 -93z" />
    <glyph glyph-name="dotlessi" unicode="&#x131;" horiz-adv-x="223" 
d="M83 500h57v-500h-57v500z" />
    <glyph glyph-name="ibreve" unicode="&#x12d;" horiz-adv-x="223" 
d="M83 500h57v-500h-57v500zM110 591q-66 0 -103.5 34.5t-41.5 84.5h53q4 -29 26.5 -51.5t66.5 -22.5q45 0 68 22.5t27 51.5h53q-5 -50 -42 -84.5t-107 -34.5z" />
    <glyph glyph-name="imacron" unicode="&#x12b;" horiz-adv-x="223" 
d="M83 500h57v-500h-57v500zM-27 680h278v-51h-278v51z" />
    <glyph glyph-name="iogonek" unicode="&#x12f;" horiz-adv-x="223" 
d="M93 -174q-20 0 -39 4.5t-33.5 14.5t-23.5 25t-9 36q0 17 8 31.5t21.5 26.5t30.5 21t35 15v500h57v-500q-86 -38 -86 -82q0 -17 14 -29t43 -12q21 0 36 5v-49q-24 -7 -54 -7zM84 627q-10 7 -16 17.5t-6 23.5q0 20 15 35t35 15t35 -15t15 -35q0 -13 -6 -23.5t-16 -17.5h-56
z" />
    <glyph glyph-name="itilde" unicode="&#x129;" horiz-adv-x="223" 
d="M83 500h57v-500h-57v500zM-49 585q9 42 36.5 64t60.5 22q21 0 38 -7.5t32.5 -16l29.5 -16t28 -7.5q22 0 33.5 12t16.5 35h52l-3 -14q-8 -37 -33.5 -61t-62.5 -24q-21 0 -39 7.5t-33.5 16l-30 16t-28.5 7.5q-21 0 -32 -12t-16 -35h-52z" />
    <glyph glyph-name="uni1ECB" unicode="&#x1ecb;" horiz-adv-x="223" 
d="M84 627q-10 7 -16 17.5t-6 23.5q0 20 15 35t35 15t35 -15t15 -35q0 -13 -6 -23.5t-16 -17.5h-56zM83 500h57v-500h-57v500zM112 -184q-22 0 -37 15t-15 37t15 37t37 15t37 -15t15 -37t-15 -37t-37 -15z" />
    <glyph glyph-name="uni0237" unicode="&#x237;" horiz-adv-x="231" 
d="M-15 -129h34q42 0 57 19.5t15 61.5v548h57v-541q0 -72 -28.5 -107.5t-101.5 -35.5h-33v55z" />
    <glyph glyph-name="jcircumflex" unicode="&#x135;" horiz-adv-x="231" 
d="M-15 -129h34q42 0 57 19.5t15 61.5v548h57v-541q0 -72 -28.5 -107.5t-101.5 -35.5h-33v55zM-47 606l167 112l166 -111l-27 -44l-139 95l-140 -95z" />
    <glyph glyph-name="kcommaaccent" unicode="&#x137;" horiz-adv-x="486" 
d="M224 -50h81l-118 -165h-54zM83 710h57v-438l249 228h75l-258 -237l281 -263h-79l-268 250v-250h-57v710z" />
    <glyph glyph-name="lacute" unicode="&#x13a;" horiz-adv-x="223" 
d="M83 710h57v-710h-57v710zM166 913h82l-109 -145h-55z" />
    <glyph glyph-name="lcaron" unicode="&#x13e;" horiz-adv-x="247" 
d="M83 710h57v-710h-57v710zM236 710h58l-42 -167h-41z" />
    <glyph glyph-name="lcommaaccent" unicode="&#x13c;" horiz-adv-x="223" 
d="M83 710h57v-710h-57v710zM73 -50h81l-118 -165h-54z" />
    <glyph glyph-name="ldot" unicode="&#x140;" horiz-adv-x="283" 
d="M83 710h57v-710h-57v710zM252 304q-22 0 -37 15t-15 37t15 37t37 15t37 -15t15 -37t-15 -37t-37 -15z" />
    <glyph glyph-name="lslash" unicode="&#x142;" horiz-adv-x="321" 
d="M20 314l117 80v316h57v-277l87 60l29 -48l-116 -80v-365h-57v326l-87 -59z" />
    <glyph glyph-name="nacute" unicode="&#x144;" 
d="M83 500h57v-72q30 45 76 62.5t96 17.5q39 0 72.5 -13t58 -38t38.5 -60.5t14 -80.5v-316h-57v308q0 72 -39 109.5t-102 37.5q-65 0 -104 -34.5t-53 -88.5v-332h-57v500zM323 710h81l-118 -165h-54z" />
    <glyph glyph-name="ncaron" unicode="&#x148;" 
d="M83 500h57v-72q30 45 76 62.5t96 17.5q39 0 72.5 -13t58 -38t38.5 -60.5t14 -80.5v-316h-57v308q0 72 -39 109.5t-102 37.5q-65 0 -104 -34.5t-53 -88.5v-332h-57v500zM288 585l-167 112l27 43l140 -95l139 95l27 -44z" />
    <glyph glyph-name="ncommaaccent" unicode="&#x146;" 
d="M83 500h57v-72q30 45 76 62.5t96 17.5q39 0 72.5 -13t58 -38t38.5 -60.5t14 -80.5v-316h-57v308q0 72 -39 109.5t-102 37.5q-65 0 -104 -34.5t-53 -88.5v-332h-57v500zM247 -50h81l-118 -165h-54z" />
    <glyph glyph-name="oe" unicode="&#x153;" horiz-adv-x="1022" 
d="M305 -8q-57 0 -104.5 20.5t-82 55.5t-53.5 82t-19 100t19 100t53.5 82t82 55.5t104.5 20.5q78 0 137.5 -37.5t91.5 -97.5q32 61 88.5 98t126.5 37q49 0 91.5 -15.5t74.5 -48t50.5 -81t20.5 -114.5h-423q0 -42 15 -79t41 -65t62 -44t78 -16q51 0 89.5 17.5t66.5 43.5
l36 -40q-32 -30 -79.5 -52t-112.5 -22q-77 0 -135 37.5t-90 97.5q-32 -60 -91.5 -97.5t-137.5 -37.5zM305 45q45 0 82.5 16.5t63.5 44t40.5 65t14.5 79.5t-14.5 79.5t-40.5 65t-63.5 44t-82.5 16.5t-81.5 -16.5t-63 -44t-41 -65t-14.5 -79.5t14.5 -79.5t41 -65t63 -44
t81.5 -16.5zM923 300q-4 39 -19.5 68t-39 48.5t-54 29t-63.5 9.5q-32 0 -61.5 -11t-53.5 -31.5t-41 -49t-24 -63.5h356z" />
    <glyph glyph-name="obreve" unicode="&#x14f;" horiz-adv-x="610" 
d="M305 45q45 0 82 16.5t63.5 44t40.5 65t14 79.5t-14 79.5t-40.5 65t-63.5 44t-82 16.5t-81.5 -16.5t-63 -44t-41 -65t-14.5 -79.5t14.5 -79.5t41 -65t63 -44t81.5 -16.5zM305 -8q-57 0 -104.5 20.5t-82 55.5t-53.5 82t-19 100t19 100t53.5 82t82 55.5t104.5 20.5
t104.5 -20.5t82 -55.5t53.5 -82t19 -100t-19 -100t-53.5 -82t-82 -55.5t-104.5 -20.5zM304 591q-66 0 -103.5 34.5t-41.5 84.5h53q4 -29 26.5 -51.5t66.5 -22.5q45 0 68 22.5t27 51.5h53q-5 -50 -42 -84.5t-107 -34.5z" />
    <glyph glyph-name="ohungarumlaut" unicode="&#x151;" horiz-adv-x="610" 
d="M305 45q45 0 82 16.5t63.5 44t40.5 65t14 79.5t-14 79.5t-40.5 65t-63.5 44t-82 16.5t-81.5 -16.5t-63 -44t-41 -65t-14.5 -79.5t14.5 -79.5t41 -65t63 -44t81.5 -16.5zM305 -8q-57 0 -104.5 20.5t-82 55.5t-53.5 82t-19 100t19 100t53.5 82t82 55.5t104.5 20.5
t104.5 -20.5t82 -55.5t53.5 -82t19 -100t-19 -100t-53.5 -82t-82 -55.5t-104.5 -20.5zM280 710h81l-118 -165h-54zM440 710h81l-118 -165h-54z" />
    <glyph glyph-name="omacron" unicode="&#x14d;" horiz-adv-x="610" 
d="M305 45q45 0 82 16.5t63.5 44t40.5 65t14 79.5t-14 79.5t-40.5 65t-63.5 44t-82 16.5t-81.5 -16.5t-63 -44t-41 -65t-14.5 -79.5t14.5 -79.5t41 -65t63 -44t81.5 -16.5zM305 -8q-57 0 -104.5 20.5t-82 55.5t-53.5 82t-19 100t19 100t53.5 82t82 55.5t104.5 20.5
t104.5 -20.5t82 -55.5t53.5 -82t19 -100t-19 -100t-53.5 -82t-82 -55.5t-104.5 -20.5zM166 680h278v-51h-278v51z" />
    <glyph glyph-name="uni1ECD" unicode="&#x1ecd;" horiz-adv-x="610" 
d="M305 45q45 0 82 16.5t63.5 44t40.5 65t14 79.5t-14 79.5t-40.5 65t-63.5 44t-82 16.5t-81.5 -16.5t-63 -44t-41 -65t-14.5 -79.5t14.5 -79.5t41 -65t63 -44t81.5 -16.5zM305 -8q-57 0 -104.5 20.5t-82 55.5t-53.5 82t-19 100t19 100t53.5 82t82 55.5t104.5 20.5
t104.5 -20.5t82 -55.5t53.5 -82t19 -100t-19 -100t-53.5 -82t-82 -55.5t-104.5 -20.5zM305 -184q-22 0 -37 15t-15 37t15 37t37 15t37 -15t15 -37t-15 -37t-37 -15z" />
    <glyph glyph-name="racute" unicode="&#x155;" horiz-adv-x="337" 
d="M83 500h57v-76q26 38 65 58.5t85 20.5q16 0 33 -3v-59q-22 5 -39 5q-49 0 -88 -28t-56 -76v-342h-57v500zM237 710h81l-118 -165h-54z" />
    <glyph glyph-name="rcaron" unicode="&#x159;" horiz-adv-x="337" 
d="M83 500h57v-76q26 38 65 58.5t85 20.5q16 0 33 -3v-59q-22 5 -39 5q-49 0 -88 -28t-56 -76v-342h-57v500zM204 585l-167 112l27 43l140 -95l139 95l27 -44z" />
    <glyph glyph-name="rcommaaccent" unicode="&#x157;" horiz-adv-x="337" 
d="M84 -50h81l-118 -165h-54zM83 500h57v-76q26 38 65 58.5t85 20.5q16 0 33 -3v-59q-22 5 -39 5q-49 0 -88 -28t-56 -76v-342h-57v500z" />
    <glyph glyph-name="sacute" unicode="&#x15b;" horiz-adv-x="417" 
d="M204 -8q-54 0 -99.5 25t-68.5 73l49 30q20 -36 49 -55.5t73 -19.5q23 0 43.5 5.5t35.5 16t24 26t9 34.5q0 37 -22.5 59t-76.5 41l-46 16q-34 12 -56 28t-35 35t-18.5 39t-5.5 40q0 25 11 47.5t31 39.5t48 26.5t61 9.5q48 0 85.5 -23.5t56.5 -68.5l-49 -21
q-11 27 -35 43.5t-60 16.5q-37 0 -63.5 -18.5t-26.5 -52.5q0 -29 16 -52.5t67 -41.5l49 -17q63 -23 95 -58t32 -87q0 -27 -11.5 -51.5t-33.5 -43t-54.5 -30t-73.5 -11.5zM274 710h81l-118 -165h-54z" />
    <glyph glyph-name="scaron" unicode="&#x161;" horiz-adv-x="417" 
d="M204 -8q-54 0 -99.5 25t-68.5 73l49 30q20 -36 49 -55.5t73 -19.5q23 0 43.5 5.5t35.5 16t24 26t9 34.5q0 37 -22.5 59t-76.5 41l-46 16q-34 12 -56 28t-35 35t-18.5 39t-5.5 40q0 25 11 47.5t31 39.5t48 26.5t61 9.5q48 0 85.5 -23.5t56.5 -68.5l-49 -21
q-11 27 -35 43.5t-60 16.5q-37 0 -63.5 -18.5t-26.5 -52.5q0 -29 16 -52.5t67 -41.5l49 -17q63 -23 95 -58t32 -87q0 -27 -11.5 -51.5t-33.5 -43t-54.5 -30t-73.5 -11.5zM210 585l-167 112l27 43l140 -95l139 95l27 -44z" />
    <glyph glyph-name="scedilla" unicode="&#x15f;" horiz-adv-x="417" 
d="M191 -7q-50 3 -92 27.5t-63 69.5l49 30q20 -36 49 -55.5t73 -19.5q23 0 43.5 5.5t35.5 16t24 26t9 34.5q0 37 -22.5 59t-76.5 41l-46 16q-34 12 -56 28t-35 35t-18.5 39t-5.5 40q0 25 11 47.5t31 39.5t48 26.5t61 9.5q48 0 85.5 -23.5t56.5 -68.5l-49 -21
q-11 27 -35 43.5t-60 16.5q-37 0 -63.5 -18.5t-26.5 -52.5q0 -29 16 -52.5t67 -41.5l49 -17q63 -23 95 -58t32 -87q0 -49 -37.5 -87.5t-106.5 -46.5l-49 -131h-74z" />
    <glyph glyph-name="scircumflex" unicode="&#x15d;" horiz-adv-x="417" 
d="M204 -8q-54 0 -99.5 25t-68.5 73l49 30q20 -36 49 -55.5t73 -19.5q23 0 43.5 5.5t35.5 16t24 26t9 34.5q0 37 -22.5 59t-76.5 41l-46 16q-34 12 -56 28t-35 35t-18.5 39t-5.5 40q0 25 11 47.5t31 39.5t48 26.5t61 9.5q48 0 85.5 -23.5t56.5 -68.5l-49 -21
q-11 27 -35 43.5t-60 16.5q-37 0 -63.5 -18.5t-26.5 -52.5q0 -29 16 -52.5t67 -41.5l49 -17q63 -23 95 -58t32 -87q0 -27 -11.5 -51.5t-33.5 -43t-54.5 -30t-73.5 -11.5zM43 606l167 112l166 -111l-27 -44l-139 95l-140 -95z" />
    <glyph glyph-name="scommaaccent" unicode="&#x219;" horiz-adv-x="417" 
d="M169 -50h81l-118 -165h-54zM204 -8q-54 0 -99.5 25t-68.5 73l49 30q20 -36 49 -55.5t73 -19.5q23 0 43.5 5.5t35.5 16t24 26t9 34.5q0 37 -22.5 59t-76.5 41l-46 16q-34 12 -56 28t-35 35t-18.5 39t-5.5 40q0 25 11 47.5t31 39.5t48 26.5t61 9.5q48 0 85.5 -23.5
t56.5 -68.5l-49 -21q-11 27 -35 43.5t-60 16.5q-37 0 -63.5 -18.5t-26.5 -52.5q0 -29 16 -52.5t67 -41.5l49 -17q63 -23 95 -58t32 -87q0 -27 -11.5 -51.5t-33.5 -43t-54.5 -30t-73.5 -11.5z" />
    <glyph glyph-name="tcaron" unicode="&#x165;" horiz-adv-x="338" 
d="M11 500h100v122l57 28v-150h149l-13 -55h-136v-311q0 -42 17.5 -60.5t63.5 -18.5h61v-55h-62q-67 0 -102 30t-35 102v313h-87zM273 710h58l-42 -167h-41z" />
    <glyph glyph-name="tcommaaccent" unicode="&#x163;" horiz-adv-x="337" 
d="M11 500h100v122l57 28v-150h149l-13 -55h-136v-311q0 -42 17.5 -60.5t63.5 -18.5h61v-55h-62q-67 0 -102 30t-35 102v313h-87zM187 -50h81l-118 -165h-54z" />
    <glyph glyph-name="uni021B" unicode="&#x21b;" horiz-adv-x="337" 
d="M11 500h100v122l57 28v-150h149l-13 -55h-136v-311q0 -42 17.5 -60.5t63.5 -18.5h61v-55h-62q-67 0 -102 30t-35 102v313h-87zM187 -50h81l-118 -165h-54z" />
    <glyph glyph-name="ubreve" unicode="&#x16d;" 
d="M431 70q-31 -44 -77 -61t-94 -17q-39 0 -73 13t-58.5 38t-38.5 60.5t-14 80.5v316h57v-308q0 -72 39.5 -109.5t102.5 -37.5t102.5 34t53.5 88v333h57v-500h-57v70zM281 591q-66 0 -103.5 34.5t-41.5 84.5h53q4 -29 26.5 -51.5t66.5 -22.5q45 0 68 22.5t27 51.5h53
q-5 -50 -42 -84.5t-107 -34.5z" />
    <glyph glyph-name="uhungarumlaut" unicode="&#x171;" 
d="M431 70q-31 -44 -77 -61t-94 -17q-39 0 -73 13t-58.5 38t-38.5 60.5t-14 80.5v316h57v-308q0 -72 39.5 -109.5t102.5 -37.5t102.5 34t53.5 88v333h57v-500h-57v70zM257 710h81l-118 -165h-54zM417 710h81l-118 -165h-54z" />
    <glyph glyph-name="umacron" unicode="&#x16b;" 
d="M431 70q-31 -44 -77 -61t-94 -17q-39 0 -73 13t-58.5 38t-38.5 60.5t-14 80.5v316h57v-308q0 -72 39.5 -109.5t102.5 -37.5t102.5 34t53.5 88v333h57v-500h-57v70zM143 680h278v-51h-278v51z" />
    <glyph glyph-name="uogonek" unicode="&#x173;" 
d="M438 -174q-20 0 -39 4.5t-33.5 14.5t-23.5 25t-9 36q0 17 8.5 31.5t22.5 26.5t31.5 21t35.5 15v70q-31 -44 -77 -61t-94 -17q-39 0 -73 13t-58.5 38t-38.5 60.5t-14 80.5v316h57v-308q0 -72 39.5 -109.5t102.5 -37.5t102.5 34t53.5 88v333h57v-500q-89 -39 -89 -82
q0 -17 14 -29t43 -12q21 0 36 5v-49q-24 -7 -54 -7z" />
    <glyph glyph-name="uring" unicode="&#x16f;" 
d="M431 70q-31 -44 -77 -61t-94 -17q-39 0 -73 13t-58.5 38t-38.5 60.5t-14 80.5v316h57v-308q0 -72 39.5 -109.5t102.5 -37.5t102.5 34t53.5 88v333h57v-500h-57v70zM283 610q22 0 37.5 15.5t15.5 38.5q0 22 -15.5 38t-37.5 16t-38 -16t-16 -38q0 -23 16 -38.5t38 -15.5z
M283 573q-19 0 -36 7t-29.5 19.5t-19.5 29t-7 35.5t7 35.5t19.5 29t29.5 19.5t36 7q38 0 65 -26.5t27 -64.5t-27 -64.5t-65 -26.5z" />
    <glyph glyph-name="utilde" unicode="&#x169;" 
d="M431 70q-31 -44 -77 -61t-94 -17q-39 0 -73 13t-58.5 38t-38.5 60.5t-14 80.5v316h57v-308q0 -72 39.5 -109.5t102.5 -37.5t102.5 34t53.5 88v333h57v-500h-57v70zM120 585q9 42 36.5 64t60.5 22q21 0 38 -7.5t32.5 -16l29.5 -16t28 -7.5q22 0 33.5 12t16.5 35h52l-3 -14
q-8 -37 -33.5 -61t-62.5 -24q-21 0 -39 7.5t-33.5 16l-30 16t-28.5 7.5q-21 0 -32 -12t-16 -35h-52z" />
    <glyph glyph-name="uni1EE5" unicode="&#x1ee5;" 
d="M431 70q-31 -44 -77 -61t-94 -17q-39 0 -73 13t-58.5 38t-38.5 60.5t-14 80.5v316h57v-308q0 -72 39.5 -109.5t102.5 -37.5t102.5 34t53.5 88v333h57v-500h-57v70zM282 -184q-22 0 -37 15t-15 37t15 37t37 15t37 -15t15 -37t-15 -37t-37 -15z" />
    <glyph glyph-name="wacute" unicode="&#x1e83;" horiz-adv-x="691" 
d="M15 500h59l126 -400l146 408l145 -408l126 400h59l-159 -500h-41l-130 359l-128 -359h-43zM410 710h81l-118 -165h-54z" />
    <glyph glyph-name="wcircumflex" unicode="&#x175;" horiz-adv-x="691" 
d="M15 500h59l126 -400l146 408l145 -408l126 400h59l-159 -500h-41l-130 359l-128 -359h-43zM179 606l167 112l166 -111l-27 -44l-139 95l-140 -95z" />
    <glyph glyph-name="wdieresis" unicode="&#x1e85;" horiz-adv-x="691" 
d="M15 500h59l126 -400l146 408l145 -408l126 400h59l-159 -500h-41l-130 359l-128 -359h-43zM236 580q-22 0 -37 15t-15 37t15 37t37 15t37 -15t15 -37t-15 -37t-37 -15zM456 580q-22 0 -37 15t-15 37t15 37t37 15t37 -15t15 -37t-15 -37t-37 -15z" />
    <glyph glyph-name="wgrave" unicode="&#x1e81;" horiz-adv-x="691" 
d="M15 500h59l126 -400l146 408l145 -408l126 400h59l-159 -500h-41l-130 359l-128 -359h-43zM201 710h81l91 -165h-54z" />
    <glyph glyph-name="ycircumflex" unicode="&#x177;" horiz-adv-x="502" 
d="M222 55l-214 445h64l180 -389l181 389h64l-329 -684h-61zM85 606l167 112l166 -111l-27 -44l-139 95l-140 -95z" />
    <glyph glyph-name="ygrave" unicode="&#x1ef3;" horiz-adv-x="502" 
d="M222 55l-214 445h64l180 -389l181 389h64l-329 -684h-61zM128 710h81l91 -165h-54z" />
    <glyph glyph-name="uni0233" unicode="&#x233;" horiz-adv-x="502" 
d="M222 55l-214 445h64l180 -389l181 389h64l-329 -684h-61zM113 680h278v-51h-278v51z" />
    <glyph glyph-name="zacute" unicode="&#x17a;" horiz-adv-x="473" 
d="M339 445h-290v55h393l-321 -445h315v-55h-417zM288 710h81l-118 -165h-54z" />
    <glyph glyph-name="zcaron" unicode="&#x17e;" horiz-adv-x="473" 
d="M339 445h-290v55h393l-321 -445h315v-55h-417zM245 585l-167 112l27 43l140 -95l139 95l27 -44z" />
    <glyph glyph-name="zdotaccent" unicode="&#x17c;" horiz-adv-x="473" 
d="M339 445h-290v55h393l-321 -445h315v-55h-417zM245 580q-22 0 -37 15t-15 37t15 37t37 15t37 -15t15 -37t-15 -37t-37 -15z" />
    <glyph glyph-name="ellipsis" unicode="&#x2026;" horiz-adv-x="638" 
d="M117 -8q-25 0 -42 18t-17 41q0 25 17 43t42 18t42 -18t17 -43q0 -23 -17 -41t-42 -18zM319 -8q-25 0 -42 18t-17 41q0 25 17 43t42 18t42 -18t17 -43q0 -23 -17 -41t-42 -18zM521 -8q-25 0 -42 18t-17 41q0 25 17 43t42 18t42 -18t17 -43q0 -23 -17 -41t-42 -18z" />
    <glyph glyph-name="endash" unicode="&#x2013;" horiz-adv-x="548" 
d="M68 298h412v-55h-412v55z" />
    <glyph glyph-name="emdash" unicode="&#x2014;" horiz-adv-x="844" 
d="M68 298h708v-55h-708v55z" />
    <glyph glyph-name="guilsinglleft" unicode="&#x2039;" horiz-adv-x="298" 
d="M48 250l147 213l46 -30l-126 -183l126 -183l-46 -30z" />
    <glyph glyph-name="guilsinglright" unicode="&#x203a;" horiz-adv-x="298" 
d="M103 37l-46 30l126 183l-126 183l46 30l147 -213z" />
    <glyph glyph-name="quoteleft" unicode="&#x2018;" horiz-adv-x="229" 
d="M118 572h42v-103h-96v104l54 137h44z" />
    <glyph glyph-name="quoteright" unicode="&#x2019;" horiz-adv-x="220" 
d="M112 607h-42v103h96v-104l-54 -137h-44z" />
    <glyph glyph-name="quotedblleft" unicode="&#x201c;" horiz-adv-x="413" 
d="M118 572h42v-103h-96v104l54 137h44zM302 572h42v-103h-96v104l54 137h44z" />
    <glyph glyph-name="quotedblright" unicode="&#x201d;" horiz-adv-x="404" 
d="M112 607h-42v103h96v-104l-54 -137h-44zM296 607h-42v103h96v-104l-54 -137h-44z" />
    <glyph glyph-name="quotesinglbase" unicode="&#x201a;" horiz-adv-x="244" 
d="M116 0h-42v103h96v-104l-54 -137h-44z" />
    <glyph glyph-name="quotedblbase" unicode="&#x201e;" horiz-adv-x="428" 
d="M116 0h-42v103h96v-104l-54 -137h-44zM300 0h-42v103h96v-104l-54 -137h-44z" />
    <glyph glyph-name="bullet" unicode="&#x2022;" horiz-adv-x="430" 
d="M215 166q-28 0 -53 10.5t-43.5 29t-29 43.5t-10.5 53t10.5 53t29 43.5t43.5 29t53 10.5t53 -10.5t43.5 -29t29 -43.5t10.5 -53t-10.5 -53t-29 -43.5t-43.5 -29t-53 -10.5z" />
    <glyph glyph-name="minus" unicode="&#x2212;" horiz-adv-x="590" 
d="M75 298h440v-55h-440v55z" />
    <glyph glyph-name="Euro" unicode="&#x20ac;" horiz-adv-x="759" 
d="M66 460h117q16 57 47.5 104.5t76 81.5t100 53t118.5 19q67 0 114 -14.5t89 -41.5l-25 -49q-35 23 -77.5 37.5t-100.5 14.5q-51 0 -96 -15t-81.5 -42t-63.5 -64.5t-42 -83.5h384l-24 -45h-371q-2 -15 -3.5 -30t-1.5 -30q0 -14 1 -28t3 -28h312l-23 -45h-279
q15 -47 42 -85.5t64 -66t82.5 -42.5t96.5 -15q68 0 126 26v-58q-59 -21 -126 -21q-63 0 -119 19.5t-101 54t-76.5 82.5t-46.5 106h-140l24 45h107q-2 14 -3 28t-1 28q0 15 1 30t3 30h-131z" />
    <glyph glyph-name="uniFB01" unicode="&#xfb01;" horiz-adv-x="581" 
d="M19 500h91q-19 16 -29.5 39.5t-10.5 50.5q0 53 40.5 86.5t108.5 33.5h101v-54h-104q-36 0 -62 -18t-26 -56q0 -41 25.5 -61.5t56.5 -20.5h110v-55h-146v-445h-57v445h-98v55zM442 627q-10 7 -16 17.5t-6 23.5q0 20 15 35t35 15t35 -15t15 -35q0 -13 -6 -23.5t-16 -17.5
h-56zM441 500h57v-500h-57v500z" />
    <glyph glyph-name="uniFB02" unicode="&#xfb02;" horiz-adv-x="582" 
d="M19 500h91q-19 16 -29.5 39.5t-10.5 50.5q0 53 40.5 86.5t108.5 33.5h101v-54h-104q-36 0 -62 -18t-26 -56q0 -41 25.5 -61.5t56.5 -20.5h110v-55h-146v-445h-57v445h-98v55zM442 710h57v-710h-57v710z" />
    <glyph glyph-name="breve" unicode="&#x2d8;" horiz-adv-x="338" 
d="M167 591q-66 0 -103.5 34.5t-41.5 84.5h53q4 -29 26.5 -51.5t66.5 -22.5q45 0 68 22.5t27 51.5h53q-5 -50 -42 -84.5t-107 -34.5z" />
    <glyph glyph-name="caron" unicode="&#x2c7;" horiz-adv-x="366" 
d="M175 585l-167 112l27 43l140 -95l139 95l27 -44z" />
    <glyph glyph-name="circumflex" unicode="&#x2c6;" horiz-adv-x="356" 
d="M8 606l167 112l166 -111l-27 -44l-139 95l-140 -95z" />
    <glyph glyph-name="dotaccent" unicode="&#x2d9;" horiz-adv-x="121" 
d="M61 580q-22 0 -37 15t-15 37t15 37t37 15t37 -15t15 -37t-15 -37t-37 -15z" />
    <glyph glyph-name="glyph332" horiz-adv-x="121" 
d="M61 -184q-22 0 -37 15t-15 37t15 37t37 15t37 -15t15 -37t-15 -37t-37 -15z" />
    <glyph glyph-name="hungarumlaut" unicode="&#x2dd;" horiz-adv-x="364" 
d="M102 710h81l-118 -165h-54zM262 710h81l-118 -165h-54z" />
    <glyph glyph-name="glyph334" horiz-adv-x="216" 
d="M102 -50h81l-118 -165h-54z" />
    <glyph glyph-name="ogonek" unicode="&#x2db;" horiz-adv-x="203" 
d="M127 -174q-20 0 -39 4.5t-33.5 14.5t-23.5 25t-9 36q0 17 8 31.5t21.5 26.5t30.5 21t35 15h62q-45 -20 -68 -39.5t-23 -42.5q0 -17 14 -29t43 -12q21 0 36 5v-49q-24 -7 -54 -7z" />
    <glyph glyph-name="ring" unicode="&#x2da;" horiz-adv-x="223" 
d="M113 610q22 0 37.5 15.5t15.5 38.5q0 22 -15.5 38t-37.5 16t-38 -16t-16 -38q0 -23 16 -38.5t38 -15.5zM113 573q-19 0 -36 7t-29.5 19.5t-19.5 29t-7 35.5t7 35.5t19.5 29t29.5 19.5t36 7q38 0 65 -26.5t27 -64.5t-27 -64.5t-65 -26.5z" />
    <glyph glyph-name="tilde" unicode="&#x2dc;" horiz-adv-x="396" 
d="M36 585q9 42 36.5 64t60.5 22q21 0 38 -7.5t32.5 -16l29.5 -16t28 -7.5q22 0 33.5 12t16.5 35h52l-3 -14q-8 -37 -33.5 -61t-62.5 -24q-21 0 -39 7.5t-33.5 16l-30 16t-28.5 7.5q-21 0 -32 -12t-16 -35h-52z" />
    <glyph glyph-name="glyph338" horiz-adv-x="500" 
d="M243 710h58l-42 -167h-41z" />
    <glyph glyph-name="glyph339" horiz-adv-x="214" 
d="M111 913h82l-109 -145h-55z" />
    <glyph glyph-name="glyph340" horiz-adv-x="338" 
d="M167 781q-66 0 -103.5 35t-41.5 84h53q4 -29 26.5 -51.5t66.5 -22.5q45 0 68 22.5t27 51.5h53q-3 -24 -13.5 -46t-29 -38t-45 -25.5t-61.5 -9.5z" />
    <glyph glyph-name="glyph341" horiz-adv-x="357" 
d="M6 883l31 43l141 -93l141 93l32 -44l-173 -111z" />
    <glyph glyph-name="glyph342" horiz-adv-x="357" 
d="M6 816l172 112l173 -111l-32 -44l-141 93l-141 -93z" />
    <glyph glyph-name="glyph343" horiz-adv-x="344" 
d="M61 791q-22 0 -37 15t-15 37t15 37t37 15t37 -15t15 -37t-15 -37t-37 -15zM281 791q-22 0 -37 15t-15 37t15 37t37 15t37 -15t15 -37t-15 -37t-37 -15z" />
    <glyph glyph-name="glyph344" horiz-adv-x="124" 
d="M61 791q-22 0 -37 15t-15 37t15 37t37 15t37 -15t15 -37t-15 -37t-37 -15z" />
    <glyph glyph-name="glyph345" horiz-adv-x="214" 
d="M24 913h82l82 -145h-56z" />
    <glyph glyph-name="glyph346" horiz-adv-x="412" 
d="M110 913h82l-108 -145h-56zM310 913h82l-108 -145h-56z" />
    <glyph glyph-name="glyph347" horiz-adv-x="322" 
d="M22 859h278v-50h-278v50z" />
    <glyph glyph-name="glyph348" horiz-adv-x="223" 
d="M111 788q21 0 35.5 13t14.5 35t-14.5 35.5t-35.5 13.5q-20 0 -34.5 -13.5t-14.5 -35.5t14.5 -35t34.5 -13zM111 751q-37 0 -63 24t-26 61q0 38 26.5 61.5t62.5 23.5q38 0 64.5 -23.5t26.5 -61.5q0 -37 -26.5 -61t-64.5 -24z" />
    <glyph glyph-name="glyph349" horiz-adv-x="396" 
d="M264 789q-21 0 -39 7.5t-33.5 16.5t-30 16.5t-28.5 7.5q-21 0 -32 -11.5t-16 -34.5h-55l3 14q9 42 38 64.5t62 22.5q21 0 38 -7.5t32.5 -16l29.5 -16t28 -7.5q22 0 33.5 11t16.5 34h55l-3 -14q-8 -40 -35.5 -63.5t-63.5 -23.5z" />
    </font>
</defs>
</svg>
